<?xml version="1.0" standalone="yes"?>

<svg version="1.1" viewBox="0.0 0.0 395.8530183727034 341.63517060367457" fill="none" stroke="none" stroke-linecap="square" stroke-miterlimit="10" xmlns="http://www.w3.org/2000/svg" xmlns:xlink="http://www.w3.org/1999/xlink"><clipPath id="p.0"><path d="m0 0l395.85303 0l0 341.63516l-395.85303 0l0 -341.63516z" clip-rule="nonzero"></path></clipPath><g clip-path="url(#p.0)"><path fill="#000000" fill-opacity="0.0" d="m0 0l395.85303 0l0 341.63516l-395.85303 0z" fill-rule="nonzero"></path><path fill="#000000" fill-opacity="0.0" d="m19.238846 120.097115l116.59842 0l0 114.83465l-116.59842 0z" fill-rule="nonzero"></path><path stroke="#000000" stroke-width="1.0" stroke-linejoin="round" stroke-linecap="butt" d="m19.238846 120.097115l116.59842 0l0 114.83465l-116.59842 0z" fill-rule="nonzero"></path><path fill="#666666" d="m25.637794 168.78215l0 0c0 -20.769379 23.231838 -37.606293 51.889763 -37.606293l0 0c28.657928 0 51.88977 16.836914 51.88977 37.606293l0 0c0 20.769394 -23.231842 37.606308 -51.88977 37.606308l0 0c-28.657925 0 -51.889763 -16.836914 -51.889763 -37.606308z" fill-rule="nonzero"></path><path stroke="#000000" stroke-width="1.0" stroke-linejoin="round" stroke-linecap="butt" d="m25.637794 168.78215l0 0c0 -20.769379 23.231838 -37.606293 51.889763 -37.606293l0 0c28.657928 0 51.88977 16.836914 51.88977 37.606293l0 0c0 20.769394 -23.231842 37.606308 -51.88977 37.606308l0 0c-28.657925 0 -51.889763 -16.836914 -51.889763 -37.606308z" fill-rule="nonzero"></path><path fill="#ffffff" d="m56.50646 172.25653q-0.84375 0.359375 -1.765625 0.359375q-1.484375 0 -2.28125 -0.890625q-0.796875 -0.890625 -0.796875 -2.640625q0 -0.84375 0.21875 -1.515625q0.21875 -0.6875 0.625 -1.15625q0.40625 -0.484375 0.984375 -0.734375q0.578125 -0.265625 1.296875 -0.265625q0.5 0 0.90625 0.09375q0.421875 0.078125 0.8125 0.25l0 0.9375q-0.375 -0.203125 -0.796875 -0.3125q-0.40625 -0.109375 -0.890625 -0.109375q-0.484375 0 -0.890625 0.1875q-0.390625 0.171875 -0.671875 0.53125q-0.28125 0.34375 -0.4375 0.859375q-0.140625 0.5 -0.140625 1.15625q0 1.359375 0.546875 2.0625q0.546875 0.6875 1.625 0.6875q0.453125 0 0.859375 -0.109375q0.421875 -0.109375 0.796875 -0.296875l0 0.90625zm12.030209 -3.328125q0 0.515625 -0.078125 0.984375q-0.078125 0.453125 -0.25 0.859375q-0.171875 0.390625 -0.453125 0.71875q-0.265625 0.3125 -0.671875 0.546875q-0.390625 0.234375 -0.921875 0.359375q-0.515625 0.125 -1.1875 0.125l-1.5156212 0l0 -7.015625l1.8124962 0q1.65625 0 2.453125 0.84375q0.8125 0.84375 0.8125 2.578125zm-1.0 0.078125q0 -0.75 -0.140625 -1.265625q-0.140625 -0.515625 -0.4375 -0.828125q-0.28125 -0.328125 -0.71875 -0.46875q-0.421875 -0.140625 -1.0 -0.140625l-0.8125 0l0 5.390625l0.703125 0q2.40625 0 2.40625 -2.6875zm5.530731 3.515625l-0.03125 -0.71875q-0.4375 0.421875 -0.890625 0.625q-0.453125 0.1875 -0.953125 0.1875q-0.453125 0 -0.78125 -0.109375q-0.328125 -0.125 -0.546875 -0.328125q-0.21875 -0.203125 -0.3125 -0.484375q-0.09375 -0.28125 -0.09375 -0.609375q0 -0.8125 0.59375 -1.265625q0.609375 -0.46875 1.796875 -0.46875l1.109375 0l0 -0.46875q0 -0.484375 -0.3125 -0.765625q-0.296875 -0.28125 -0.921875 -0.28125q-0.453125 0 -0.90625 0.109375q-0.4375 0.09375 -0.90625 0.28125l0 -0.84375q0.171875 -0.0625 0.390625 -0.125q0.21875 -0.0625 0.453125 -0.109375q0.25 -0.0625 0.5 -0.078125q0.265625 -0.03125 0.546875 -0.03125q0.484375 0 0.875 0.109375q0.390625 0.09375 0.65625 0.328125q0.28125 0.21875 0.421875 0.546875q0.140625 0.328125 0.140625 0.78125l0 3.71875l-0.828125 0zm-0.109375 -2.453125l-1.1875 0q-0.34375 0 -0.59375 0.078125q-0.25 0.0625 -0.421875 0.1875q-0.15625 0.125 -0.234375 0.3125q-0.078125 0.171875 -0.078125 0.40625q0 0.15625 0.046875 0.296875q0.046875 0.140625 0.15625 0.25q0.109375 0.109375 0.28125 0.171875q0.171875 0.0625 0.421875 0.0625q0.3125 0 0.734375 -0.1875q0.421875 -0.203125 0.875 -0.625l0 -0.953125zm7.061981 -0.53125q0 0.203125 -0.015625 0.34375q0 0.125 -0.015625 0.25l-3.78125 0q0 0.828125 0.453125 1.265625q0.46875 0.4375 1.34375 0.4375q0.234375 0 0.46875 -0.015625q0.234375 -0.015625 0.453125 -0.046875q0.21875 -0.03125 0.421875 -0.0625q0.203125 -0.046875 0.375 -0.09375l0 0.765625q-0.375 0.109375 -0.859375 0.171875q-0.484375 0.0625 -1.0 0.0625q-0.6875 0 -1.1875 -0.1875q-0.5 -0.1875 -0.828125 -0.546875q-0.3125 -0.359375 -0.46875 -0.875q-0.15625 -0.515625 -0.15625 -1.171875q0 -0.5625 0.15625 -1.0625q0.171875 -0.515625 0.484375 -0.890625q0.3125 -0.390625 0.765625 -0.609375q0.46875 -0.234375 1.046875 -0.234375q0.5625 0 1.0 0.171875q0.4375 0.171875 0.734375 0.5q0.296875 0.328125 0.453125 0.796875q0.15625 0.453125 0.15625 1.03125zm-0.984375 -0.125q0.015625 -0.359375 -0.078125 -0.65625q-0.078125 -0.3125 -0.265625 -0.515625q-0.171875 -0.21875 -0.4375 -0.34375q-0.265625 -0.125 -0.625 -0.125q-0.296875 0 -0.5625 0.125q-0.25 0.125 -0.4375 0.34375q-0.171875 0.203125 -0.28125 0.515625q-0.109375 0.296875 -0.140625 0.65625l2.828125 0zm6.124481 3.109375l0 -3.875q0 -0.25 -0.015625 -0.40625q-0.015625 -0.171875 -0.0625 -0.265625q-0.03125 -0.09375 -0.09375 -0.125q-0.0625 -0.03125 -0.15625 -0.03125q-0.109375 0 -0.203125 0.0625q-0.09375 0.0625 -0.203125 0.203125q-0.09375 0.140625 -0.21875 0.390625q-0.125 0.234375 -0.296875 0.578125l0 3.46875l-0.859375 0l0 -3.765625q0 -0.296875 -0.015625 -0.484375q-0.015625 -0.1875 -0.0625 -0.28125q-0.046875 -0.109375 -0.109375 -0.140625q-0.0625 -0.03125 -0.15625 -0.03125q-0.09375 0 -0.1875 0.046875q-0.078125 0.046875 -0.1875 0.1875q-0.09375 0.140625 -0.234375 0.390625q-0.125 0.234375 -0.296875 0.609375l0 3.46875l-0.859375 0l0 -5.390625l0.71875 0l0.03125 1.03125q0.140625 -0.3125 0.265625 -0.53125q0.140625 -0.21875 0.28125 -0.34375q0.140625 -0.125 0.296875 -0.1875q0.15625 -0.0625 0.359375 -0.0625q0.4375 0 0.65625 0.28125q0.21875 0.28125 0.21875 0.875q0.140625 -0.28125 0.265625 -0.484375q0.125 -0.21875 0.265625 -0.359375q0.140625 -0.15625 0.3125 -0.234375q0.171875 -0.078125 0.390625 -0.078125q1.015625 0 1.015625 1.5625l0 3.921875l-0.859375 0zm6.702606 -2.734375q0 0.625 -0.171875 1.15625q-0.171875 0.515625 -0.515625 0.890625q-0.328125 0.375 -0.8125 0.578125q-0.46875 0.203125 -1.078125 0.203125q-0.578125 0 -1.046875 -0.171875q-0.453125 -0.1875 -0.78125 -0.53125q-0.3125 -0.359375 -0.484375 -0.875q-0.15625 -0.515625 -0.15625 -1.1875q0 -0.625 0.171875 -1.140625q0.171875 -0.515625 0.5 -0.890625q0.34375 -0.375 0.8125 -0.578125q0.484375 -0.203125 1.09375 -0.203125q0.578125 0 1.03125 0.1875q0.46875 0.171875 0.78125 0.515625q0.328125 0.34375 0.484375 0.859375q0.171875 0.515625 0.171875 1.1875zm-0.953125 0.03125q0 -0.5 -0.109375 -0.859375q-0.109375 -0.375 -0.3125 -0.625q-0.203125 -0.25 -0.5 -0.375q-0.28125 -0.125 -0.640625 -0.125q-0.421875 0 -0.71875 0.171875q-0.296875 0.15625 -0.5 0.4375q-0.1875 0.265625 -0.28125 0.625q-0.078125 0.359375 -0.078125 0.75q0 0.5 0.109375 0.890625q0.109375 0.375 0.3125 0.625q0.203125 0.234375 0.484375 0.375q0.296875 0.125 0.671875 0.125q0.40625 0 0.703125 -0.15625q0.3125 -0.171875 0.5 -0.4375q0.1875 -0.28125 0.265625 -0.640625q0.09375 -0.375 0.09375 -0.78125zm2.1244812 -2.6875l0.828125 0l0.046875 0.875q0.234375 -0.28125 0.453125 -0.46875q0.21875 -0.1875 0.421875 -0.296875q0.21875 -0.109375 0.4375 -0.15625q0.21875 -0.046875 0.453125 -0.046875q0.84375 0 1.265625 0.5q0.421875 0.484375 0.421875 1.46875l0 3.515625l-0.921875 0l0 -3.4375q0 -0.640625 -0.25 -0.9375q-0.234375 -0.3125 -0.703125 -0.3125q-0.171875 0 -0.34375 0.0625q-0.15625 0.046875 -0.328125 0.171875q-0.171875 0.125 -0.390625 0.34375q-0.203125 0.203125 -0.453125 0.53125l0 3.578125l-0.9375 0l0 -5.390625zm10.124481 3.921875q0 0.28125 -0.09375 0.515625q-0.09375 0.21875 -0.265625 0.390625q-0.15625 0.171875 -0.390625 0.296875q-0.21875 0.125 -0.46875 0.203125q-0.25 0.078125 -0.515625 0.109375q-0.25 0.046875 -0.5 0.046875q-0.546875 0 -1.015625 -0.046875q-0.453125 -0.046875 -0.890625 -0.15625l0 -0.859375q0.46875 0.140625 0.9375 0.21875q0.46875 0.0625 0.921875 0.0625q0.671875 0 0.984375 -0.1875q0.328125 -0.1875 0.328125 -0.515625q0 -0.15625 -0.046875 -0.265625q-0.046875 -0.109375 -0.1875 -0.21875q-0.125 -0.109375 -0.40625 -0.21875q-0.28125 -0.109375 -0.78125 -0.265625q-0.359375 -0.09375 -0.671875 -0.234375q-0.3125 -0.140625 -0.53125 -0.328125q-0.21875 -0.1875 -0.359375 -0.4375q-0.125 -0.25 -0.125 -0.59375q0 -0.234375 0.09375 -0.5q0.109375 -0.265625 0.359375 -0.5q0.265625 -0.234375 0.6875 -0.375q0.4375 -0.15625 1.078125 -0.15625q0.3125 0 0.703125 0.03125q0.390625 0.03125 0.8125 0.125l0 0.828125q-0.453125 -0.109375 -0.84375 -0.15625q-0.390625 -0.046875 -0.6875 -0.046875q-0.34375 0 -0.59375 0.046875q-0.234375 0.046875 -0.390625 0.140625q-0.140625 0.09375 -0.203125 0.234375q-0.0625 0.125 -0.0625 0.265625q0 0.140625 0.046875 0.265625q0.0625 0.109375 0.21875 0.21875q0.15625 0.109375 0.421875 0.21875q0.28125 0.109375 0.71875 0.25q0.484375 0.140625 0.8125 0.296875q0.328125 0.140625 0.53125 0.328125q0.203125 0.1875 0.28125 0.4375q0.09375 0.234375 0.09375 0.53125z" fill-rule="nonzero"></path><path fill="#000000" fill-opacity="0.0" d="m25.648294 207.38686l103.77953 0l0 20.97638l-103.77953 0z" fill-rule="nonzero"></path><path fill="#000000" d="m59.07702 230.46686l0 -10.734375l4.03125 0q1.234375 0 1.96875 0.328125q0.75 0.328125 1.171875 1.0q0.421875 0.671875 0.421875 1.421875q0 0.6875 -0.375 1.296875q-0.375 0.59375 -1.125 0.96875q0.96875 0.296875 1.484375 0.984375q0.53125 0.6875 0.53125 1.625q0 0.75 -0.328125 1.40625q-0.3125 0.640625 -0.78125 1.0q-0.46875 0.34375 -1.171875 0.53125q-0.703125 0.171875 -1.734375 0.171875l-4.09375 0zm1.421875 -6.21875l2.328125 0q0.9375 0 1.359375 -0.125q0.53125 -0.171875 0.796875 -0.546875q0.28125 -0.375 0.28125 -0.9375q0 -0.53125 -0.25 -0.9375q-0.25 -0.40625 -0.734375 -0.546875q-0.46875 -0.15625 -1.625 -0.15625l-2.15625 0l0 3.25zm0 4.953125l2.671875 0q0.6875 0 0.96875 -0.046875q0.5 -0.09375 0.828125 -0.296875q0.328125 -0.203125 0.53125 -0.59375q0.21875 -0.390625 0.21875 -0.90625q0 -0.609375 -0.3125 -1.046875q-0.296875 -0.4375 -0.84375 -0.609375q-0.546875 -0.1875 -1.578125 -0.1875l-2.484375 0l0 3.6875zm7.7599792 -2.625q0 -2.15625 1.203125 -3.203125q1.0 -0.859375 2.4375 -0.859375q1.609375 0 2.625 1.046875q1.015625 1.046875 1.015625 2.90625q0 1.5 -0.453125 2.359375q-0.4375 0.859375 -1.3125 1.34375q-0.859375 0.46875 -1.875 0.46875q-1.625 0 -2.640625 -1.046875q-1.0 -1.046875 -1.0 -3.015625zm1.359375 0q0 1.5 0.640625 2.25q0.65625 0.734375 1.640625 0.734375q0.984375 0 1.640625 -0.75q0.65625 -0.75 0.65625 -2.28125q0 -1.4375 -0.65625 -2.171875q-0.65625 -0.75 -1.640625 -0.75q-0.984375 0 -1.640625 0.734375q-0.640625 0.734375 -0.640625 2.234375zm12.354233 2.9375q-0.734375 0.609375 -1.40625 0.875q-0.671875 0.25 -1.453125 0.25q-1.28125 0 -1.96875 -0.625q-0.6875 -0.625 -0.6875 -1.59375q0 -0.578125 0.25 -1.046875q0.265625 -0.46875 0.6875 -0.75q0.421875 -0.296875 0.953125 -0.4375q0.375 -0.109375 1.171875 -0.203125q1.59375 -0.1875 2.34375 -0.453125q0.015625 -0.265625 0.015625 -0.34375q0 -0.8125 -0.375 -1.140625q-0.515625 -0.4375 -1.5 -0.4375q-0.9375 0 -1.390625 0.328125q-0.4375 0.3125 -0.640625 1.140625l-1.296875 -0.171875q0.171875 -0.828125 0.578125 -1.328125q0.40625 -0.515625 1.171875 -0.78125q0.765625 -0.28125 1.765625 -0.28125q1.0 0 1.609375 0.234375q0.625 0.234375 0.921875 0.59375q0.296875 0.34375 0.40625 0.890625q0.0625 0.34375 0.0625 1.21875l0 1.75q0 1.84375 0.078125 2.328125q0.09375 0.484375 0.34375 0.9375l-1.375 0q-0.203125 -0.40625 -0.265625 -0.953125zm-0.109375 -2.953125q-0.71875 0.296875 -2.15625 0.5q-0.8125 0.125 -1.15625 0.265625q-0.328125 0.140625 -0.515625 0.421875q-0.171875 0.28125 -0.171875 0.625q0 0.53125 0.390625 0.890625q0.40625 0.34375 1.171875 0.34375q0.765625 0 1.359375 -0.328125q0.59375 -0.34375 0.875 -0.921875q0.203125 -0.4375 0.203125 -1.3125l0 -0.484375zm3.1667328 3.90625l0 -7.78125l1.1875 0l0 1.1875q0.453125 -0.828125 0.84375 -1.09375q0.390625 -0.265625 0.84375 -0.265625q0.671875 0 1.359375 0.421875l-0.453125 1.21875q-0.484375 -0.28125 -0.96875 -0.28125q-0.4375 0 -0.78125 0.265625q-0.34375 0.25 -0.484375 0.71875q-0.21875 0.703125 -0.21875 1.53125l0 4.078125l-1.328125 0zm9.943146 0l0 -0.984375q-0.734375 1.15625 -2.171875 1.15625q-0.921875 0 -1.703125 -0.5q-0.78125 -0.515625 -1.21875 -1.4375q-0.421875 -0.921875 -0.421875 -2.109375q0 -1.171875 0.390625 -2.109375q0.390625 -0.953125 1.15625 -1.453125q0.78125 -0.515625 1.734375 -0.515625q0.703125 0 1.25 0.296875q0.5625 0.296875 0.90625 0.765625l0 -3.84375l1.3125 0l0 10.734375l-1.234375 0zm-4.15625 -3.875q0 1.484375 0.625 2.234375q0.625 0.734375 1.484375 0.734375q0.859375 0 1.46875 -0.703125q0.609375 -0.71875 0.609375 -2.15625q0 -1.609375 -0.625 -2.34375q-0.609375 -0.75 -1.515625 -0.75q-0.875 0 -1.46875 0.71875q-0.578125 0.71875 -0.578125 2.265625z" fill-rule="nonzero"></path><path fill="#000000" fill-opacity="0.0" d="m256.1942 24.341208l116.59845 0l0 132.91339l-116.59845 0z" fill-rule="nonzero"></path><path stroke="#000000" stroke-width="1.0" stroke-linejoin="round" stroke-linecap="butt" d="m256.1942 24.341208l116.59845 0l0 132.91339l-116.59845 0z" fill-rule="nonzero"></path><path fill="#666666" d="m262.60367 49.115486l0 0c0 -11.428383 23.231842 -20.692913 51.88977 -20.692913l0 0c28.657928 0 51.88977 9.26453 51.88977 20.692913l0 0c0 11.428379 -23.231842 20.69291 -51.88977 20.69291l0 0c-28.657928 0 -51.88977 -9.26453 -51.88977 -20.69291z" fill-rule="nonzero"></path><path stroke="#000000" stroke-width="1.0" stroke-linejoin="round" stroke-linecap="butt" d="m262.60367 49.115486l0 0c0 -11.428383 23.231842 -20.692913 51.88977 -20.692913l0 0c28.657928 0 51.88977 9.26453 51.88977 20.692913l0 0c0 11.428379 -23.231842 20.69291 -51.88977 20.69291l0 0c-28.657928 0 -51.88977 -9.26453 -51.88977 -20.69291z" fill-rule="nonzero"></path><path fill="#ffffff" d="m302.37 41.480484q0 0.4375 -0.15625 0.859375q-0.15625 0.421875 -0.5 0.75q-0.34375 0.328125 -0.875 0.546875q-0.515625 0.203125 -1.25 0.203125l-0.859375 0l0 2.515625l-0.96875 0l0 -7.015625l1.984375 0q0.515625 0 0.984375 0.109375q0.484375 0.109375 0.84375 0.375q0.375 0.25 0.578125 0.671875q0.21875 0.40625 0.21875 0.984375zm-0.984375 0.046875q0 -0.671875 -0.453125 -1.03125q-0.4375 -0.359375 -1.234375 -0.359375l-0.96875 0l0 2.890625l0.890625 0q0.84375 0 1.296875 -0.375q0.46875 -0.375 0.46875 -1.125zm7.046356 -0.5625l-1.84375 4.828125q-0.28125 0.734375 -0.59375 1.265625q-0.296875 0.53125 -0.65625 0.859375q-0.359375 0.34375 -0.796875 0.5q-0.421875 0.171875 -0.953125 0.171875q-0.140625 0 -0.25 -0.015625q-0.109375 0 -0.25 0l0 -0.859375q0.125 0.015625 0.265625 0.03125q0.140625 0.015625 0.296875 0.015625q0.25 0 0.46875 -0.078125q0.234375 -0.078125 0.421875 -0.25q0.203125 -0.15625 0.390625 -0.4375q0.1875 -0.265625 0.359375 -0.640625l-2.15625 -5.390625l1.0625 0l1.359375 3.5625l0.28125 0.84375l0.3125 -0.859375l1.25 -3.546875l1.03125 0zm5.405731 5.3125q-0.3125 0.078125 -0.65625 0.109375q-0.328125 0.046875 -0.6875 0.046875q-1.015625 0 -1.515625 -0.453125q-0.5 -0.46875 -0.5 -1.421875l0 -2.8125l-1.5 0l0 -0.78125l1.5 0l0 -1.484375l0.9375 -0.234375l0 1.71875l2.421875 0l0 0.78125l-2.421875 0l0 2.734375q0 0.578125 0.3125 0.875q0.3125 0.28125 0.90625 0.28125q0.265625 0 0.5625 -0.03125q0.3125 -0.046875 0.640625 -0.125l0 0.796875zm5.843231 0.078125l-0.921875 0l0 -3.4375q0 -0.625 -0.234375 -0.9375q-0.234375 -0.3125 -0.671875 -0.3125q-0.1875 0 -0.359375 0.0625q-0.15625 0.046875 -0.34375 0.171875q-0.171875 0.125 -0.390625 0.34375q-0.203125 0.203125 -0.46875 0.53125l0 3.578125l-0.9375 0l0 -7.59375l0.9375 0l0 2.203125l-0.03125 0.84375q0.21875 -0.265625 0.421875 -0.4375q0.21875 -0.1875 0.421875 -0.296875q0.21875 -0.109375 0.4375 -0.15625q0.21875 -0.046875 0.453125 -0.046875q0.8125 0 1.25 0.5q0.4375 0.484375 0.4375 1.46875l0 3.515625zm6.218231 -2.734375q0 0.625 -0.171875 1.15625q-0.171875 0.515625 -0.515625 0.890625q-0.328125 0.375 -0.8125 0.578125q-0.46875 0.203125 -1.078125 0.203125q-0.578125 0 -1.046875 -0.171875q-0.453125 -0.1875 -0.78125 -0.53125q-0.3125 -0.359375 -0.484375 -0.875q-0.15625 -0.515625 -0.15625 -1.1875q0 -0.625 0.171875 -1.140625q0.171875 -0.515625 0.5 -0.890625q0.34375 -0.375 0.8125 -0.578125q0.484375 -0.203125 1.09375 -0.203125q0.578125 0 1.03125 0.1875q0.46875 0.171875 0.78125 0.515625q0.328125 0.34375 0.484375 0.859375q0.171875 0.515625 0.171875 1.1875zm-0.953125 0.03125q0 -0.5 -0.109375 -0.859375q-0.109375 -0.375 -0.3125 -0.625q-0.203125 -0.25 -0.5 -0.375q-0.28125 -0.125 -0.640625 -0.125q-0.421875 0 -0.71875 0.171875q-0.296875 0.15625 -0.5 0.4375q-0.1875 0.265625 -0.28125 0.625q-0.078125 0.359375 -0.078125 0.75q0 0.5 0.109375 0.890625q0.109375 0.375 0.3125 0.625q0.203125 0.234375 0.484375 0.375q0.296875 0.125 0.671875 0.125q0.40625 0 0.703125 -0.15625q0.3125 -0.171875 0.5 -0.4375q0.1875 -0.28125 0.265625 -0.640625q0.09375 -0.375 0.09375 -0.78125zm2.1244812 -2.6875l0.828125 0l0.046875 0.875q0.234375 -0.28125 0.453125 -0.46875q0.21875 -0.1875 0.421875 -0.296875q0.21875 -0.109375 0.4375 -0.15625q0.21875 -0.046875 0.453125 -0.046875q0.84375 0 1.265625 0.5q0.421875 0.484375 0.421875 1.46875l0 3.515625l-0.921875 0l0 -3.4375q0 -0.640625 -0.25 -0.9375q-0.234375 -0.3125 -0.703125 -0.3125q-0.171875 0 -0.34375 0.0625q-0.15625 0.046875 -0.328125 0.171875q-0.171875 0.125 -0.390625 0.34375q-0.203125 0.203125 -0.453125 0.53125l0 3.578125l-0.9375 0l0 -5.390625z" fill-rule="nonzero"></path><path fill="#ffffff" d="m302.57312 55.761734q0 0.515625 -0.078125 0.984375q-0.078125 0.453125 -0.25 0.859375q-0.171875 0.390625 -0.453125 0.71875q-0.265625 0.3125 -0.671875 0.546875q-0.390625 0.234375 -0.921875 0.359375q-0.515625 0.125 -1.1875 0.125l-1.515625 0l0 -7.015625l1.8125 0q1.65625 0 2.453125 0.84375q0.8125 0.84375 0.8125 2.578125zm-1.0 0.078125q0 -0.75 -0.140625 -1.265625q-0.140625 -0.515625 -0.4375 -0.828125q-0.28125 -0.328125 -0.71875 -0.46875q-0.421875 -0.140625 -1.0 -0.140625l-0.8125 0l0 5.390625l0.703125 0q2.40625 0 2.40625 -2.6875zm5.530731 3.515625l-0.03125 -0.71875q-0.4375 0.421875 -0.890625 0.625q-0.453125 0.1875 -0.953125 0.1875q-0.453125 0 -0.78125 -0.109375q-0.328125 -0.125 -0.546875 -0.328125q-0.21875 -0.203125 -0.3125 -0.484375q-0.09375 -0.28125 -0.09375 -0.609375q0 -0.8125 0.59375 -1.265625q0.609375 -0.46875 1.796875 -0.46875l1.109375 0l0 -0.46875q0 -0.484375 -0.3125 -0.765625q-0.296875 -0.28125 -0.921875 -0.28125q-0.453125 0 -0.90625 0.109375q-0.4375 0.09375 -0.90625 0.28125l0 -0.84375q0.171875 -0.0625 0.390625 -0.125q0.21875 -0.0625 0.453125 -0.109375q0.25 -0.0625 0.5 -0.078125q0.265625 -0.03125 0.546875 -0.03125q0.484375 0 0.875 0.109375q0.390625 0.09375 0.65625 0.328125q0.28125 0.21875 0.421875 0.546875q0.140625 0.328125 0.140625 0.78125l0 3.71875l-0.828125 0zm-0.109375 -2.453125l-1.1875 0q-0.34375 0 -0.59375 0.078125q-0.25 0.0625 -0.421875 0.1875q-0.15625 0.125 -0.234375 0.3125q-0.078125 0.171875 -0.078125 0.40625q0 0.15625 0.046875 0.296875q0.046875 0.140625 0.15625 0.25q0.109375 0.109375 0.28125 0.171875q0.171875 0.0625 0.421875 0.0625q0.3125 0 0.734375 -0.1875q0.421875 -0.203125 0.875 -0.625l0 -0.953125zm7.061981 -0.53125q0 0.203125 -0.015625 0.34375q0 0.125 -0.015625 0.25l-3.78125 0q0 0.828125 0.453125 1.265625q0.46875 0.4375 1.34375 0.4375q0.234375 0 0.46875 -0.015625q0.234375 -0.015625 0.453125 -0.046875q0.21875 -0.03125 0.421875 -0.0625q0.203125 -0.046875 0.375 -0.09375l0 0.765625q-0.375 0.109375 -0.859375 0.171875q-0.484375 0.0625 -1.0 0.0625q-0.6875 0 -1.1875 -0.1875q-0.5 -0.1875 -0.828125 -0.546875q-0.3125 -0.359375 -0.46875 -0.875q-0.15625 -0.515625 -0.15625 -1.171875q0 -0.5625 0.15625 -1.0625q0.171875 -0.515625 0.484375 -0.890625q0.3125 -0.390625 0.765625 -0.609375q0.46875 -0.234375 1.046875 -0.234375q0.5625 0 1.0 0.171875q0.4375 0.171875 0.734375 0.5q0.296875 0.328125 0.453125 0.796875q0.15625 0.453125 0.15625 1.03125zm-0.984375 -0.125q0.015625 -0.359375 -0.078125 -0.65625q-0.078125 -0.3125 -0.265625 -0.515625q-0.171875 -0.21875 -0.4375 -0.34375q-0.265625 -0.125 -0.625 -0.125q-0.296875 0 -0.5625 0.125q-0.25 0.125 -0.4375 0.34375q-0.171875 0.203125 -0.28125 0.515625q-0.109375 0.296875 -0.140625 0.65625l2.828125 0zm6.124481 3.109375l0 -3.875q0 -0.25 -0.015625 -0.40625q-0.015625 -0.171875 -0.0625 -0.265625q-0.03125 -0.09375 -0.09375 -0.125q-0.0625 -0.03125 -0.15625 -0.03125q-0.109375 0 -0.203125 0.0625q-0.09375 0.0625 -0.203125 0.203125q-0.09375 0.140625 -0.21875 0.390625q-0.125 0.234375 -0.296875 0.578125l0 3.46875l-0.859375 0l0 -3.765625q0 -0.296875 -0.015625 -0.484375q-0.015625 -0.1875 -0.0625 -0.28125q-0.046875 -0.109375 -0.109375 -0.140625q-0.0625 -0.03125 -0.15625 -0.03125q-0.09375 0 -0.1875 0.046875q-0.078125 0.046875 -0.1875 0.1875q-0.09375 0.140625 -0.234375 0.390625q-0.125 0.234375 -0.296875 0.609375l0 3.46875l-0.859375 0l0 -5.390625l0.71875 0l0.03125 1.03125q0.140625 -0.3125 0.265625 -0.53125q0.140625 -0.21875 0.28125 -0.34375q0.140625 -0.125 0.296875 -0.1875q0.15625 -0.0625 0.359375 -0.0625q0.4375 0 0.65625 0.28125q0.21875 0.28125 0.21875 0.875q0.140625 -0.28125 0.265625 -0.484375q0.125 -0.21875 0.265625 -0.359375q0.140625 -0.15625 0.3125 -0.234375q0.171875 -0.078125 0.390625 -0.078125q1.015625 0 1.015625 1.5625l0 3.921875l-0.859375 0zm6.702606 -2.734375q0 0.625 -0.171875 1.15625q-0.171875 0.515625 -0.515625 0.890625q-0.328125 0.375 -0.8125 0.578125q-0.46875 0.203125 -1.078125 0.203125q-0.578125 0 -1.046875 -0.171875q-0.453125 -0.1875 -0.78125 -0.53125q-0.3125 -0.359375 -0.484375 -0.875q-0.15625 -0.515625 -0.15625 -1.1875q0 -0.625 0.171875 -1.140625q0.171875 -0.515625 0.5 -0.890625q0.34375 -0.375 0.8125 -0.578125q0.484375 -0.203125 1.09375 -0.203125q0.578125 0 1.03125 0.1875q0.46875 0.171875 0.78125 0.515625q0.328125 0.34375 0.484375 0.859375q0.171875 0.515625 0.171875 1.1875zm-0.953125 0.03125q0 -0.5 -0.109375 -0.859375q-0.109375 -0.375 -0.3125 -0.625q-0.203125 -0.25 -0.5 -0.375q-0.28125 -0.125 -0.640625 -0.125q-0.421875 0 -0.71875 0.171875q-0.296875 0.15625 -0.5 0.4375q-0.1875 0.265625 -0.28125 0.625q-0.078125 0.359375 -0.078125 0.75q0 0.5 0.109375 0.890625q0.109375 0.375 0.3125 0.625q0.203125 0.234375 0.484375 0.375q0.296875 0.125 0.671875 0.125q0.40625 0 0.703125 -0.15625q0.3125 -0.171875 0.5 -0.4375q0.1875 -0.28125 0.265625 -0.640625q0.09375 -0.375 0.09375 -0.78125zm2.1244812 -2.6875l0.828125 0l0.046875 0.875q0.234375 -0.28125 0.453125 -0.46875q0.21875 -0.1875 0.421875 -0.296875q0.21875 -0.109375 0.4375 -0.15625q0.21875 -0.046875 0.453125 -0.046875q0.84375 0 1.265625 0.5q0.421875 0.484375 0.421875 1.46875l0 3.515625l-0.921875 0l0 -3.4375q0 -0.640625 -0.25 -0.9375q-0.234375 -0.3125 -0.703125 -0.3125q-0.171875 0 -0.34375 0.0625q-0.15625 0.046875 -0.328125 0.171875q-0.171875 0.125 -0.390625 0.34375q-0.203125 0.203125 -0.453125 0.53125l0 3.578125l-0.9375 0l0 -5.390625z" fill-rule="nonzero"></path><path fill="#000000" fill-opacity="0.0" d="m262.60367 130.86916l103.77954 0l0 20.97638l-103.77954 0z" fill-rule="nonzero"></path><path fill="#000000" d="m298.459 150.18353l1.421875 0.359375q-0.4375 1.75 -1.609375 2.671875q-1.15625 0.921875 -2.828125 0.921875q-1.734375 0 -2.828125 -0.703125q-1.09375 -0.71875 -1.65625 -2.046875q-0.5625 -1.34375 -0.5625 -2.890625q0 -1.671875 0.640625 -2.921875q0.640625 -1.25 1.8125 -1.890625q1.1875 -0.65625 2.609375 -0.65625q1.609375 0 2.703125 0.828125q1.109375 0.8125 1.546875 2.296875l-1.40625 0.328125q-0.375 -1.171875 -1.09375 -1.703125q-0.703125 -0.53125 -1.78125 -0.53125q-1.234375 0 -2.0625 0.59375q-0.828125 0.59375 -1.171875 1.59375q-0.328125 1.0 -0.328125 2.0625q0 1.359375 0.390625 2.390625q0.40625 1.015625 1.234375 1.53125q0.84375 0.5 1.828125 0.5q1.203125 0 2.03125 -0.6875q0.828125 -0.6875 1.109375 -2.046875zm2.724884 3.765625l0 -10.734375l1.328125 0l0 10.734375l-1.328125 0zm3.3030396 -9.21875l0 -1.515625l1.3125 0l0 1.515625l-1.3125 0zm0 9.21875l0 -7.78125l1.3125 0l0 7.78125l-1.3125 0zm8.568634 -2.5l1.359375 0.15625q-0.3125 1.203125 -1.1875 1.859375q-0.875 0.65625 -2.234375 0.65625q-1.703125 0 -2.703125 -1.046875q-1.0 -1.046875 -1.0 -2.953125q0 -1.953125 1.015625 -3.03125q1.015625 -1.09375 2.625 -1.09375q1.5625 0 2.546875 1.0625q0.984375 1.0625 0.984375 2.984375q0 0.125 0 0.359375l-5.8125 0q0.078125 1.28125 0.71875 1.96875q0.65625 0.671875 1.640625 0.671875q0.71875 0 1.234375 -0.375q0.515625 -0.390625 0.8125 -1.21875zm-4.328125 -2.140625l4.34375 0q-0.09375 -0.984375 -0.5 -1.46875q-0.625 -0.765625 -1.625 -0.765625q-0.921875 0 -1.546875 0.609375q-0.609375 0.609375 -0.671875 1.625zm7.151123 4.640625l0 -7.78125l1.1875 0l0 1.109375q0.859375 -1.28125 2.484375 -1.28125q0.703125 0 1.28125 0.25q0.59375 0.25 0.890625 0.671875q0.296875 0.40625 0.40625 0.96875q0.078125 0.359375 0.078125 1.28125l0 4.78125l-1.328125 0l0 -4.734375q0 -0.796875 -0.15625 -1.1875q-0.140625 -0.40625 -0.53125 -0.640625q-0.390625 -0.25 -0.921875 -0.25q-0.84375 0 -1.453125 0.53125q-0.609375 0.53125 -0.609375 2.03125l0 4.25l-1.328125 0zm11.041718 -1.171875l0.1875 1.15625q-0.5625 0.125 -1.0 0.125q-0.71875 0 -1.125 -0.234375q-0.390625 -0.234375 -0.546875 -0.59375q-0.15625 -0.375 -0.15625 -1.5625l0 -4.46875l-0.96875 0l0 -1.03125l0.96875 0l0 -1.921875l1.3125 -0.796875l0 2.71875l1.328125 0l0 1.03125l-1.328125 0l0 4.546875q0 0.5625 0.0625 0.734375q0.078125 0.15625 0.234375 0.25q0.15625 0.09375 0.4375 0.09375q0.234375 0 0.59375 -0.046875zm9.862701 1.171875l-1.328125 0l0 -8.40625q-0.46875 0.453125 -1.25 0.921875q-0.765625 0.453125 -1.375 0.671875l0 -1.28125q1.09375 -0.515625 1.921875 -1.25q0.828125 -0.734375 1.171875 -1.4375l0.859375 0l0 10.78125z" fill-rule="nonzero"></path><path fill="#666666" d="m262.60367 114.98751l0 0c0 -11.428375 23.231842 -20.69291 51.88977 -20.69291l0 0c28.657928 0 51.88977 9.264534 51.88977 20.69291l0 0c0 11.428383 -23.231842 20.692924 -51.88977 20.692924l0 0c-28.657928 0 -51.88977 -9.264542 -51.88977 -20.692924z" fill-rule="nonzero"></path><path stroke="#000000" stroke-width="1.0" stroke-linejoin="round" stroke-linecap="butt" d="m262.60367 114.98751l0 0c0 -11.428375 23.231842 -20.69291 51.88977 -20.69291l0 0c28.657928 0 51.88977 9.264534 51.88977 20.69291l0 0c0 11.428383 -23.231842 20.692924 -51.88977 20.692924l0 0c-28.657928 0 -51.88977 -9.264542 -51.88977 -20.692924z" fill-rule="nonzero"></path><path fill="#ffffff" d="m302.72937 111.71189l-0.484375 7.015625l-1.234375 0l-0.875 -2.5l-0.234375 -0.796875l-0.25 0.859375l-0.8125 2.4375l-1.203125 0l-0.484375 -7.015625l0.90625 0l0.28125 4.765625l0.078125 1.3125l0.34375 -1.109375l0.84375 -2.609375l0.65625 0l0.984375 2.796875l0.328125 0.921875l0.015625 -0.96875l0.28125 -5.109375l0.859375 0zm5.468231 4.03125q0 0.203125 -0.015625 0.34375q0 0.125 -0.015625 0.25l-3.78125 0q0 0.828125 0.453125 1.265625q0.46875 0.4375 1.34375 0.4375q0.234375 0 0.46875 -0.015625q0.234375 -0.015625 0.453125 -0.046875q0.21875 -0.03125 0.421875 -0.0625q0.203125 -0.046875 0.375 -0.09375l0 0.765625q-0.375 0.109375 -0.859375 0.171875q-0.484375 0.0625 -1.0 0.0625q-0.6875 0 -1.1875 -0.1875q-0.5 -0.1875 -0.828125 -0.546875q-0.3125 -0.359375 -0.46875 -0.875q-0.15625 -0.515625 -0.15625 -1.171875q0 -0.5625 0.15625 -1.0625q0.171875 -0.515625 0.484375 -0.890625q0.3125 -0.390625 0.765625 -0.609375q0.46875 -0.234375 1.046875 -0.234375q0.5625 0 1.0 0.171875q0.4375 0.171875 0.734375 0.5q0.296875 0.328125 0.453125 0.796875q0.15625 0.453125 0.15625 1.03125zm-0.984375 -0.125q0.015625 -0.359375 -0.078125 -0.65625q-0.078125 -0.3125 -0.265625 -0.515625q-0.171875 -0.21875 -0.4375 -0.34375q-0.265625 -0.125 -0.625 -0.125q-0.296875 0 -0.5625 0.125q-0.25 0.125 -0.4375 0.34375q-0.171875 0.203125 -0.28125 0.515625q-0.109375 0.296875 -0.140625 0.65625l2.828125 0zm6.890106 0.3125q0 0.671875 -0.1875 1.203125q-0.1875 0.53125 -0.53125 0.90625q-0.328125 0.359375 -0.828125 0.5625q-0.484375 0.1875 -1.09375 0.1875q-0.484375 0 -0.984375 -0.09375q-0.5 -0.09375 -0.984375 -0.28125l0 -7.28125l0.9375 0l0 2.09375l-0.046875 1.0q0.40625 -0.546875 0.859375 -0.765625q0.46875 -0.21875 0.984375 -0.21875q0.46875 0 0.8125 0.1875q0.359375 0.1875 0.59375 0.546875q0.234375 0.34375 0.34375 0.84375q0.125 0.5 0.125 1.109375zm-0.953125 0.046875q0 -0.421875 -0.0625 -0.78125q-0.0625 -0.359375 -0.203125 -0.609375q-0.125 -0.25 -0.34375 -0.390625q-0.203125 -0.140625 -0.5 -0.140625q-0.171875 0 -0.359375 0.0625q-0.171875 0.046875 -0.375 0.1875q-0.203125 0.125 -0.421875 0.34375q-0.203125 0.21875 -0.453125 0.53125l0 2.625q0.265625 0.109375 0.546875 0.171875q0.296875 0.0625 0.546875 0.0625q0.328125 0 0.609375 -0.09375q0.296875 -0.109375 0.515625 -0.34375q0.234375 -0.25 0.359375 -0.640625q0.140625 -0.40625 0.140625 -0.984375zm5.671356 2.75l-0.03125 -0.71875q-0.4375 0.421875 -0.890625 0.625q-0.453125 0.1875 -0.953125 0.1875q-0.453125 0 -0.78125 -0.109375q-0.328125 -0.125 -0.546875 -0.328125q-0.21875 -0.203125 -0.3125 -0.484375q-0.09375 -0.28125 -0.09375 -0.609375q0 -0.8125 0.59375 -1.265625q0.609375 -0.46875 1.796875 -0.46875l1.109375 0l0 -0.46875q0 -0.484375 -0.3125 -0.765625q-0.296875 -0.28125 -0.921875 -0.28125q-0.453125 0 -0.90625 0.109375q-0.4375 0.09375 -0.90625 0.28125l0 -0.84375q0.171875 -0.0625 0.390625 -0.125q0.21875 -0.0625 0.453125 -0.109375q0.25 -0.0625 0.5 -0.078125q0.265625 -0.03125 0.546875 -0.03125q0.484375 0 0.875 0.109375q0.390625 0.09375 0.65625 0.328125q0.28125 0.21875 0.421875 0.546875q0.140625 0.328125 0.140625 0.78125l0 3.71875l-0.828125 0zm-0.109375 -2.453125l-1.1875 0q-0.34375 0 -0.59375 0.078125q-0.25 0.0625 -0.421875 0.1875q-0.15625 0.125 -0.234375 0.3125q-0.078125 0.171875 -0.078125 0.40625q0 0.15625 0.046875 0.296875q0.046875 0.140625 0.15625 0.25q0.109375 0.109375 0.28125 0.171875q0.171875 0.0625 0.421875 0.0625q0.3125 0 0.734375 -0.1875q0.421875 -0.203125 0.875 -0.625l0 -0.953125zm7.108856 -0.34375q0 0.71875 -0.203125 1.265625q-0.203125 0.53125 -0.5625 0.890625q-0.34375 0.34375 -0.828125 0.53125q-0.484375 0.171875 -1.046875 0.171875q-0.265625 0 -0.515625 -0.03125q-0.25 -0.015625 -0.515625 -0.078125l0 2.25l-0.9375 0l0 -7.59375l0.828125 0l0.0625 0.90625q0.40625 -0.5625 0.859375 -0.78125q0.453125 -0.21875 0.984375 -0.21875q0.46875 0 0.8125 0.1875q0.359375 0.1875 0.59375 0.546875q0.234375 0.34375 0.34375 0.84375q0.125 0.5 0.125 1.109375zm-0.953125 0.046875q0 -0.421875 -0.0625 -0.78125q-0.0625 -0.359375 -0.203125 -0.609375q-0.125 -0.25 -0.34375 -0.390625q-0.203125 -0.140625 -0.5 -0.140625q-0.171875 0 -0.359375 0.0625q-0.171875 0.046875 -0.375 0.1875q-0.203125 0.125 -0.421875 0.34375q-0.203125 0.21875 -0.453125 0.53125l0 2.625q0.25 0.109375 0.53125 0.171875q0.296875 0.0625 0.5625 0.0625q0.765625 0 1.1875 -0.515625q0.4375 -0.515625 0.4375 -1.546875zm6.811981 -0.046875q0 0.71875 -0.203125 1.265625q-0.203125 0.53125 -0.5625 0.890625q-0.34375 0.34375 -0.828125 0.53125q-0.484375 0.171875 -1.046875 0.171875q-0.265625 0 -0.515625 -0.03125q-0.25 -0.015625 -0.515625 -0.078125l0 2.25l-0.9375 0l0 -7.59375l0.828125 0l0.0625 0.90625q0.40625 -0.5625 0.859375 -0.78125q0.453125 -0.21875 0.984375 -0.21875q0.46875 0 0.8125 0.1875q0.359375 0.1875 0.59375 0.546875q0.234375 0.34375 0.34375 0.84375q0.125 0.5 0.125 1.109375zm-0.953125 0.046875q0 -0.421875 -0.0625 -0.78125q-0.0625 -0.359375 -0.203125 -0.609375q-0.125 -0.25 -0.34375 -0.390625q-0.203125 -0.140625 -0.5 -0.140625q-0.171875 0 -0.359375 0.0625q-0.171875 0.046875 -0.375 0.1875q-0.203125 0.125 -0.421875 0.34375q-0.203125 0.21875 -0.453125 0.53125l0 2.625q0.25 0.109375 0.53125 0.171875q0.296875 0.0625 0.5625 0.0625q0.765625 0 1.1875 -0.515625q0.4375 -0.515625 0.4375 -1.546875z" fill-rule="nonzero"></path><path fill="#000000" fill-opacity="0.0" d="m314.49344 69.808395l0 24.472443" fill-rule="nonzero"></path><path stroke="#666666" stroke-width="1.0" stroke-linejoin="round" stroke-linecap="butt" d="m314.49344 75.808395l0 12.472443" fill-rule="evenodd"></path><path fill="#666666" stroke="#666666" stroke-width="1.0" stroke-linecap="butt" d="m316.14517 75.808395l-1.6517334 -4.5380936l-1.6517334 4.5380936z" fill-rule="evenodd"></path><path fill="#666666" stroke="#666666" stroke-width="1.0" stroke-linecap="butt" d="m312.8417 88.28084l1.6517334 4.538101l1.6517334 -4.538101z" fill-rule="evenodd"></path><path fill="#000000" fill-opacity="0.0" d="m262.60367 49.115486l-148.37794 93.07087" fill-rule="nonzero"></path><path stroke="#666666" stroke-width="2.0" stroke-linejoin="round" stroke-linecap="butt" d="m252.43802 55.49195l-128.04663 80.31794" fill-rule="evenodd"></path><path fill="#666666" stroke="#666666" stroke-width="2.0" stroke-linecap="butt" d="m254.19339 58.290443l5.9334106 -7.6213303l-9.444153 2.0243454z" fill-rule="evenodd"></path><path fill="#666666" stroke="#666666" stroke-width="2.0" stroke-linecap="butt" d="m122.63602 133.0114l-5.933426 7.6213226l9.44416 -2.0243378z" fill-rule="evenodd"></path><path fill="#000000" fill-opacity="0.0" d="m262.60367 114.98751l-133.19684 53.79528" fill-rule="nonzero"></path><path stroke="#666666" stroke-width="2.0" stroke-linejoin="round" stroke-linecap="butt" d="m251.4769 119.48137l-110.9433 44.807556" fill-rule="evenodd"></path><path fill="#666666" stroke="#666666" stroke-width="2.0" stroke-linecap="butt" d="m252.714 122.54445l7.1786346 -6.4620056l-9.652847 0.33585358z" fill-rule="evenodd"></path><path fill="#666666" stroke="#666666" stroke-width="2.0" stroke-linecap="butt" d="m139.2965 161.22585l-7.1786194 6.4620056l9.652832 -0.33584595z" fill-rule="evenodd"></path><path fill="#000000" fill-opacity="0.0" d="m256.1942 187.35957l116.59845 0l0 132.9134l-116.59845 0z" fill-rule="nonzero"></path><path stroke="#000000" stroke-width="1.0" stroke-linejoin="round" stroke-linecap="butt" d="m256.1942 187.35957l116.59845 0l0 132.9134l-116.59845 0z" fill-rule="nonzero"></path><path fill="#666666" d="m262.60367 213.51968l0 0c0 -11.428375 23.231842 -20.692917 51.88977 -20.692917l0 0c28.657928 0 51.88977 9.264542 51.88977 20.692917l0 0c0 11.428375 -23.231842 20.692917 -51.88977 20.692917l0 0c-28.657928 0 -51.88977 -9.264542 -51.88977 -20.692917z" fill-rule="nonzero"></path><path stroke="#000000" stroke-width="1.0" stroke-linejoin="round" stroke-linecap="butt" d="m262.60367 213.51968l0 0c0 -11.428375 23.231842 -20.692917 51.88977 -20.692917l0 0c28.657928 0 51.88977 9.264542 51.88977 20.692917l0 0c0 11.428375 -23.231842 20.692917 -51.88977 20.692917l0 0c-28.657928 0 -51.88977 -9.264542 -51.88977 -20.692917z" fill-rule="nonzero"></path><path fill="#ffffff" d="m302.37 205.88469q0 0.4375 -0.15625 0.859375q-0.15625 0.421875 -0.5 0.75q-0.34375 0.328125 -0.875 0.546875q-0.515625 0.203125 -1.25 0.203125l-0.859375 0l0 2.515625l-0.96875 0l0 -7.015625l1.984375 0q0.515625 0 0.984375 0.109375q0.484375 0.109375 0.84375 0.375q0.375 0.25 0.578125 0.671875q0.21875 0.40625 0.21875 0.984375zm-0.984375 0.046875q0 -0.671875 -0.453125 -1.03125q-0.4375 -0.359375 -1.234375 -0.359375l-0.96875 0l0 2.890625l0.890625 0q0.84375 0 1.296875 -0.375q0.46875 -0.375 0.46875 -1.125zm7.046356 -0.5625l-1.84375 4.828125q-0.28125 0.734375 -0.59375 1.265625q-0.296875 0.53125 -0.65625 0.859375q-0.359375 0.34375 -0.796875 0.5q-0.421875 0.171875 -0.953125 0.171875q-0.140625 0 -0.25 -0.015625q-0.109375 0 -0.25 0l0 -0.859375q0.125 0.015625 0.265625 0.03125q0.140625 0.015625 0.296875 0.015625q0.25 0 0.46875 -0.078125q0.234375 -0.078125 0.421875 -0.25q0.203125 -0.15625 0.390625 -0.4375q0.1875 -0.265625 0.359375 -0.640625l-2.15625 -5.390625l1.0625 0l1.359375 3.5625l0.28125 0.84375l0.3125 -0.859375l1.25 -3.546875l1.03125 0zm5.405731 5.3125q-0.3125 0.078125 -0.65625 0.109375q-0.328125 0.046875 -0.6875 0.046875q-1.015625 0 -1.515625 -0.453125q-0.5 -0.46875 -0.5 -1.421875l0 -2.8125l-1.5 0l0 -0.78125l1.5 0l0 -1.484375l0.9375 -0.234375l0 1.71875l2.421875 0l0 0.78125l-2.421875 0l0 2.734375q0 0.578125 0.3125 0.875q0.3125 0.28125 0.90625 0.28125q0.265625 0 0.5625 -0.03125q0.3125 -0.046875 0.640625 -0.125l0 0.796875zm5.843231 0.078125l-0.921875 0l0 -3.4375q0 -0.625 -0.234375 -0.9375q-0.234375 -0.3125 -0.671875 -0.3125q-0.1875 0 -0.359375 0.0625q-0.15625 0.046875 -0.34375 0.171875q-0.171875 0.125 -0.390625 0.34375q-0.203125 0.203125 -0.46875 0.53125l0 3.578125l-0.9375 0l0 -7.59375l0.9375 0l0 2.203125l-0.03125 0.84375q0.21875 -0.265625 0.421875 -0.4375q0.21875 -0.1875 0.421875 -0.296875q0.21875 -0.109375 0.4375 -0.15625q0.21875 -0.046875 0.453125 -0.046875q0.8125 0 1.25 0.5q0.4375 0.484375 0.4375 1.46875l0 3.515625zm6.218231 -2.734375q0 0.625 -0.171875 1.15625q-0.171875 0.515625 -0.515625 0.890625q-0.328125 0.375 -0.8125 0.578125q-0.46875 0.203125 -1.078125 0.203125q-0.578125 0 -1.046875 -0.171875q-0.453125 -0.1875 -0.78125 -0.53125q-0.3125 -0.359375 -0.484375 -0.875q-0.15625 -0.515625 -0.15625 -1.1875q0 -0.625 0.171875 -1.140625q0.171875 -0.515625 0.5 -0.890625q0.34375 -0.375 0.8125 -0.578125q0.484375 -0.203125 1.09375 -0.203125q0.578125 0 1.03125 0.1875q0.46875 0.171875 0.78125 0.515625q0.328125 0.34375 0.484375 0.859375q0.171875 0.515625 0.171875 1.1875zm-0.953125 0.03125q0 -0.5 -0.109375 -0.859375q-0.109375 -0.375 -0.3125 -0.625q-0.203125 -0.25 -0.5 -0.375q-0.28125 -0.125 -0.640625 -0.125q-0.421875 0 -0.71875 0.171875q-0.296875 0.15625 -0.5 0.4375q-0.1875 0.265625 -0.28125 0.625q-0.078125 0.359375 -0.078125 0.75q0 0.5 0.109375 0.890625q0.109375 0.375 0.3125 0.625q0.203125 0.234375 0.484375 0.375q0.296875 0.125 0.671875 0.125q0.40625 0 0.703125 -0.15625q0.3125 -0.171875 0.5 -0.4375q0.1875 -0.28125 0.265625 -0.640625q0.09375 -0.375 0.09375 -0.78125zm2.1244812 -2.6875l0.828125 0l0.046875 0.875q0.234375 -0.28125 0.453125 -0.46875q0.21875 -0.1875 0.421875 -0.296875q0.21875 -0.109375 0.4375 -0.15625q0.21875 -0.046875 0.453125 -0.046875q0.84375 0 1.265625 0.5q0.421875 0.484375 0.421875 1.46875l0 3.515625l-0.921875 0l0 -3.4375q0 -0.640625 -0.25 -0.9375q-0.234375 -0.3125 -0.703125 -0.3125q-0.171875 0 -0.34375 0.0625q-0.15625 0.046875 -0.328125 0.171875q-0.171875 0.125 -0.390625 0.34375q-0.203125 0.203125 -0.453125 0.53125l0 3.578125l-0.9375 0l0 -5.390625z" fill-rule="nonzero"></path><path fill="#ffffff" d="m302.57312 220.16594q0 0.515625 -0.078125 0.984375q-0.078125 0.453125 -0.25 0.859375q-0.171875 0.390625 -0.453125 0.71875q-0.265625 0.3125 -0.671875 0.546875q-0.390625 0.234375 -0.921875 0.359375q-0.515625 0.125 -1.1875 0.125l-1.515625 0l0 -7.015625l1.8125 0q1.65625 0 2.453125 0.84375q0.8125 0.84375 0.8125 2.578125zm-1.0 0.078125q0 -0.75 -0.140625 -1.265625q-0.140625 -0.515625 -0.4375 -0.828125q-0.28125 -0.328125 -0.71875 -0.46875q-0.421875 -0.140625 -1.0 -0.140625l-0.8125 0l0 5.390625l0.703125 0q2.40625 0 2.40625 -2.6875zm5.530731 3.515625l-0.03125 -0.71875q-0.4375 0.421875 -0.890625 0.625q-0.453125 0.1875 -0.953125 0.1875q-0.453125 0 -0.78125 -0.109375q-0.328125 -0.125 -0.546875 -0.328125q-0.21875 -0.203125 -0.3125 -0.484375q-0.09375 -0.28125 -0.09375 -0.609375q0 -0.8125 0.59375 -1.265625q0.609375 -0.46875 1.796875 -0.46875l1.109375 0l0 -0.46875q0 -0.484375 -0.3125 -0.765625q-0.296875 -0.28125 -0.921875 -0.28125q-0.453125 0 -0.90625 0.109375q-0.4375 0.09375 -0.90625 0.28125l0 -0.84375q0.171875 -0.0625 0.390625 -0.125q0.21875 -0.0625 0.453125 -0.109375q0.25 -0.0625 0.5 -0.078125q0.265625 -0.03125 0.546875 -0.03125q0.484375 0 0.875 0.109375q0.390625 0.09375 0.65625 0.328125q0.28125 0.21875 0.421875 0.546875q0.140625 0.328125 0.140625 0.78125l0 3.71875l-0.828125 0zm-0.109375 -2.453125l-1.1875 0q-0.34375 0 -0.59375 0.078125q-0.25 0.0625 -0.421875 0.1875q-0.15625 0.125 -0.234375 0.3125q-0.078125 0.171875 -0.078125 0.40625q0 0.15625 0.046875 0.296875q0.046875 0.140625 0.15625 0.25q0.109375 0.109375 0.28125 0.171875q0.171875 0.0625 0.421875 0.0625q0.3125 0 0.734375 -0.1875q0.421875 -0.203125 0.875 -0.625l0 -0.953125zm7.061981 -0.53125q0 0.203125 -0.015625 0.34375q0 0.125 -0.015625 0.25l-3.78125 0q0 0.828125 0.453125 1.265625q0.46875 0.4375 1.34375 0.4375q0.234375 0 0.46875 -0.015625q0.234375 -0.015625 0.453125 -0.046875q0.21875 -0.03125 0.421875 -0.0625q0.203125 -0.046875 0.375 -0.09375l0 0.765625q-0.375 0.109375 -0.859375 0.171875q-0.484375 0.0625 -1.0 0.0625q-0.6875 0 -1.1875 -0.1875q-0.5 -0.1875 -0.828125 -0.546875q-0.3125 -0.359375 -0.46875 -0.875q-0.15625 -0.515625 -0.15625 -1.171875q0 -0.5625 0.15625 -1.0625q0.171875 -0.515625 0.484375 -0.890625q0.3125 -0.390625 0.765625 -0.609375q0.46875 -0.234375 1.046875 -0.234375q0.5625 0 1.0 0.171875q0.4375 0.171875 0.734375 0.5q0.296875 0.328125 0.453125 0.796875q0.15625 0.453125 0.15625 1.03125zm-0.984375 -0.125q0.015625 -0.359375 -0.078125 -0.65625q-0.078125 -0.3125 -0.265625 -0.515625q-0.171875 -0.21875 -0.4375 -0.34375q-0.265625 -0.125 -0.625 -0.125q-0.296875 0 -0.5625 0.125q-0.25 0.125 -0.4375 0.34375q-0.171875 0.203125 -0.28125 0.515625q-0.109375 0.296875 -0.140625 0.65625l2.828125 0zm6.124481 3.109375l0 -3.875q0 -0.25 -0.015625 -0.40625q-0.015625 -0.171875 -0.0625 -0.265625q-0.03125 -0.09375 -0.09375 -0.125q-0.0625 -0.03125 -0.15625 -0.03125q-0.109375 0 -0.203125 0.0625q-0.09375 0.0625 -0.203125 0.203125q-0.09375 0.140625 -0.21875 0.390625q-0.125 0.234375 -0.296875 0.578125l0 3.46875l-0.859375 0l0 -3.765625q0 -0.296875 -0.015625 -0.484375q-0.015625 -0.1875 -0.0625 -0.28125q-0.046875 -0.109375 -0.109375 -0.140625q-0.0625 -0.03125 -0.15625 -0.03125q-0.09375 0 -0.1875 0.046875q-0.078125 0.046875 -0.1875 0.1875q-0.09375 0.140625 -0.234375 0.390625q-0.125 0.234375 -0.296875 0.609375l0 3.46875l-0.859375 0l0 -5.390625l0.71875 0l0.03125 1.03125q0.140625 -0.3125 0.265625 -0.53125q0.140625 -0.21875 0.28125 -0.34375q0.140625 -0.125 0.296875 -0.1875q0.15625 -0.0625 0.359375 -0.0625q0.4375 0 0.65625 0.28125q0.21875 0.28125 0.21875 0.875q0.140625 -0.28125 0.265625 -0.484375q0.125 -0.21875 0.265625 -0.359375q0.140625 -0.15625 0.3125 -0.234375q0.171875 -0.078125 0.390625 -0.078125q1.015625 0 1.015625 1.5625l0 3.921875l-0.859375 0zm6.702606 -2.734375q0 0.625 -0.171875 1.15625q-0.171875 0.515625 -0.515625 0.890625q-0.328125 0.375 -0.8125 0.578125q-0.46875 0.203125 -1.078125 0.203125q-0.578125 0 -1.046875 -0.171875q-0.453125 -0.1875 -0.78125 -0.53125q-0.3125 -0.359375 -0.484375 -0.875q-0.15625 -0.515625 -0.15625 -1.1875q0 -0.625 0.171875 -1.140625q0.171875 -0.515625 0.5 -0.890625q0.34375 -0.375 0.8125 -0.578125q0.484375 -0.203125 1.09375 -0.203125q0.578125 0 1.03125 0.1875q0.46875 0.171875 0.78125 0.515625q0.328125 0.34375 0.484375 0.859375q0.171875 0.515625 0.171875 1.1875zm-0.953125 0.03125q0 -0.5 -0.109375 -0.859375q-0.109375 -0.375 -0.3125 -0.625q-0.203125 -0.25 -0.5 -0.375q-0.28125 -0.125 -0.640625 -0.125q-0.421875 0 -0.71875 0.171875q-0.296875 0.15625 -0.5 0.4375q-0.1875 0.265625 -0.28125 0.625q-0.078125 0.359375 -0.078125 0.75q0 0.5 0.109375 0.890625q0.109375 0.375 0.3125 0.625q0.203125 0.234375 0.484375 0.375q0.296875 0.125 0.671875 0.125q0.40625 0 0.703125 -0.15625q0.3125 -0.171875 0.5 -0.4375q0.1875 -0.28125 0.265625 -0.640625q0.09375 -0.375 0.09375 -0.78125zm2.1244812 -2.6875l0.828125 0l0.046875 0.875q0.234375 -0.28125 0.453125 -0.46875q0.21875 -0.1875 0.421875 -0.296875q0.21875 -0.109375 0.4375 -0.15625q0.21875 -0.046875 0.453125 -0.046875q0.84375 0 1.265625 0.5q0.421875 0.484375 0.421875 1.46875l0 3.515625l-0.921875 0l0 -3.4375q0 -0.640625 -0.25 -0.9375q-0.234375 -0.3125 -0.703125 -0.3125q-0.171875 0 -0.34375 0.0625q-0.15625 0.046875 -0.328125 0.171875q-0.171875 0.125 -0.390625 0.34375q-0.203125 0.203125 -0.453125 0.53125l0 3.578125l-0.9375 0l0 -5.390625z" fill-rule="nonzero"></path><path fill="#000000" fill-opacity="0.0" d="m262.60367 294.10736l103.77954 0l0 20.97638l-103.77954 0z" fill-rule="nonzero"></path><path fill="#000000" d="m298.459 313.42175l1.421875 0.359375q-0.4375 1.75 -1.609375 2.671875q-1.15625 0.921875 -2.828125 0.921875q-1.734375 0 -2.828125 -0.703125q-1.09375 -0.71875 -1.65625 -2.046875q-0.5625 -1.34375 -0.5625 -2.890625q0 -1.671875 0.640625 -2.921875q0.640625 -1.25 1.8125 -1.890625q1.1875 -0.65625 2.609375 -0.65625q1.609375 0 2.703125 0.828125q1.109375 0.8125 1.546875 2.296875l-1.40625 0.328125q-0.375 -1.171875 -1.09375 -1.703125q-0.703125 -0.53125 -1.78125 -0.53125q-1.234375 0 -2.0625 0.59375q-0.828125 0.59375 -1.171875 1.59375q-0.328125 1.0 -0.328125 2.0625q0 1.359375 0.390625 2.390625q0.40625 1.015625 1.234375 1.53125q0.84375 0.5 1.828125 0.5q1.203125 0 2.03125 -0.6875q0.828125 -0.6875 1.109375 -2.046875zm2.724884 3.765625l0 -10.734375l1.328125 0l0 10.734375l-1.328125 0zm3.3030396 -9.21875l0 -1.515625l1.3125 0l0 1.515625l-1.3125 0zm0 9.21875l0 -7.78125l1.3125 0l0 7.78125l-1.3125 0zm8.568634 -2.5l1.359375 0.15625q-0.3125 1.203125 -1.1875 1.859375q-0.875 0.65625 -2.234375 0.65625q-1.703125 0 -2.703125 -1.046875q-1.0 -1.046875 -1.0 -2.953125q0 -1.953125 1.015625 -3.03125q1.015625 -1.09375 2.625 -1.09375q1.5625 0 2.546875 1.0625q0.984375 1.0625 0.984375 2.984375q0 0.125 0 0.359375l-5.8125 0q0.078125 1.28125 0.71875 1.96875q0.65625 0.671875 1.640625 0.671875q0.71875 0 1.234375 -0.375q0.515625 -0.390625 0.8125 -1.21875zm-4.328125 -2.140625l4.34375 0q-0.09375 -0.984375 -0.5 -1.46875q-0.625 -0.765625 -1.625 -0.765625q-0.921875 0 -1.546875 0.609375q-0.609375 0.609375 -0.671875 1.625zm7.151123 4.640625l0 -7.78125l1.1875 0l0 1.109375q0.859375 -1.28125 2.484375 -1.28125q0.703125 0 1.28125 0.25q0.59375 0.25 0.890625 0.671875q0.296875 0.40625 0.40625 0.96875q0.078125 0.359375 0.078125 1.28125l0 4.78125l-1.328125 0l0 -4.734375q0 -0.796875 -0.15625 -1.1875q-0.140625 -0.40625 -0.53125 -0.640625q-0.390625 -0.25 -0.921875 -0.25q-0.84375 0 -1.453125 0.53125q-0.609375 0.53125 -0.609375 2.03125l0 4.25l-1.328125 0zm11.041718 -1.171875l0.1875 1.15625q-0.5625 0.125 -1.0 0.125q-0.71875 0 -1.125 -0.234375q-0.390625 -0.234375 -0.546875 -0.59375q-0.15625 -0.375 -0.15625 -1.5625l0 -4.46875l-0.96875 0l0 -1.03125l0.96875 0l0 -1.921875l1.3125 -0.796875l0 2.71875l1.328125 0l0 1.03125l-1.328125 0l0 4.546875q0 0.5625 0.0625 0.734375q0.078125 0.15625 0.234375 0.25q0.15625 0.09375 0.4375 0.09375q0.234375 0 0.59375 -0.046875zm11.815826 -0.09375l0 1.265625l-7.09375 0q-0.015625 -0.46875 0.15625 -0.921875q0.265625 -0.71875 0.859375 -1.421875q0.609375 -0.703125 1.734375 -1.625q1.75 -1.4375 2.359375 -2.265625q0.625 -0.84375 0.625 -1.59375q0 -0.78125 -0.5625 -1.3125q-0.5625 -0.546875 -1.46875 -0.546875q-0.953125 0 -1.53125 0.578125q-0.5625 0.5625 -0.5625 1.578125l-1.359375 -0.140625q0.140625 -1.515625 1.046875 -2.3125q0.90625 -0.796875 2.4375 -0.796875q1.546875 0 2.4375 0.859375q0.90625 0.859375 0.90625 2.125q0 0.640625 -0.265625 1.265625q-0.25 0.625 -0.875 1.3125q-0.609375 0.6875 -2.03125 1.890625q-1.1875 0.984375 -1.53125 1.34375q-0.328125 0.359375 -0.546875 0.71875l5.265625 0z" fill-rule="nonzero"></path><path fill="#666666" d="m262.60367 279.39172l0 0c0 -11.428375 23.231842 -20.692932 51.88977 -20.692932l0 0c28.657928 0 51.88977 9.264557 51.88977 20.692932l0 0c0 11.428375 -23.231842 20.692902 -51.88977 20.692902l0 0c-28.657928 0 -51.88977 -9.264526 -51.88977 -20.692902z" fill-rule="nonzero"></path><path stroke="#000000" stroke-width="1.0" stroke-linejoin="round" stroke-linecap="butt" d="m262.60367 279.39172l0 0c0 -11.428375 23.231842 -20.692932 51.88977 -20.692932l0 0c28.657928 0 51.88977 9.264557 51.88977 20.692932l0 0c0 11.428375 -23.231842 20.692902 -51.88977 20.692902l0 0c-28.657928 0 -51.88977 -9.264526 -51.88977 -20.692902z" fill-rule="nonzero"></path><path fill="#ffffff" d="m302.72937 276.1161l-0.484375 7.015625l-1.234375 0l-0.875 -2.5l-0.234375 -0.796875l-0.25 0.859375l-0.8125 2.4375l-1.203125 0l-0.484375 -7.015625l0.90625 0l0.28125 4.765625l0.078125 1.3125l0.34375 -1.109375l0.84375 -2.609375l0.65625 0l0.984375 2.796875l0.328125 0.921875l0.015625 -0.96875l0.28125 -5.109375l0.859375 0zm5.468231 4.03125q0 0.203125 -0.015625 0.34375q0 0.125 -0.015625 0.25l-3.78125 0q0 0.828125 0.453125 1.265625q0.46875 0.4375 1.34375 0.4375q0.234375 0 0.46875 -0.015625q0.234375 -0.015625 0.453125 -0.046875q0.21875 -0.03125 0.421875 -0.0625q0.203125 -0.046875 0.375 -0.09375l0 0.765625q-0.375 0.109375 -0.859375 0.171875q-0.484375 0.0625 -1.0 0.0625q-0.6875 0 -1.1875 -0.1875q-0.5 -0.1875 -0.828125 -0.546875q-0.3125 -0.359375 -0.46875 -0.875q-0.15625 -0.515625 -0.15625 -1.171875q0 -0.5625 0.15625 -1.0625q0.171875 -0.515625 0.484375 -0.890625q0.3125 -0.390625 0.765625 -0.609375q0.46875 -0.234375 1.046875 -0.234375q0.5625 0 1.0 0.171875q0.4375 0.171875 0.734375 0.5q0.296875 0.328125 0.453125 0.796875q0.15625 0.453125 0.15625 1.03125zm-0.984375 -0.125q0.015625 -0.359375 -0.078125 -0.65625q-0.078125 -0.3125 -0.265625 -0.515625q-0.171875 -0.21875 -0.4375 -0.34375q-0.265625 -0.125 -0.625 -0.125q-0.296875 0 -0.5625 0.125q-0.25 0.125 -0.4375 0.34375q-0.171875 0.203125 -0.28125 0.515625q-0.109375 0.296875 -0.140625 0.65625l2.828125 0zm6.890106 0.3125q0 0.671875 -0.1875 1.203125q-0.1875 0.53125 -0.53125 0.90625q-0.328125 0.359375 -0.828125 0.5625q-0.484375 0.1875 -1.09375 0.1875q-0.484375 0 -0.984375 -0.09375q-0.5 -0.09375 -0.984375 -0.28125l0 -7.28125l0.9375 0l0 2.09375l-0.046875 1.0q0.40625 -0.546875 0.859375 -0.765625q0.46875 -0.21875 0.984375 -0.21875q0.46875 0 0.8125 0.1875q0.359375 0.1875 0.59375 0.546875q0.234375 0.34375 0.34375 0.84375q0.125 0.5 0.125 1.109375zm-0.953125 0.046875q0 -0.421875 -0.0625 -0.78125q-0.0625 -0.359375 -0.203125 -0.609375q-0.125 -0.25 -0.34375 -0.390625q-0.203125 -0.140625 -0.5 -0.140625q-0.171875 0 -0.359375 0.0625q-0.171875 0.046875 -0.375 0.1875q-0.203125 0.125 -0.421875 0.34375q-0.203125 0.21875 -0.453125 0.53125l0 2.625q0.265625 0.109375 0.546875 0.171875q0.296875 0.0625 0.546875 0.0625q0.328125 0 0.609375 -0.09375q0.296875 -0.109375 0.515625 -0.34375q0.234375 -0.25 0.359375 -0.640625q0.140625 -0.40625 0.140625 -0.984375zm5.671356 2.75l-0.03125 -0.71875q-0.4375 0.421875 -0.890625 0.625q-0.453125 0.1875 -0.953125 0.1875q-0.453125 0 -0.78125 -0.109375q-0.328125 -0.125 -0.546875 -0.328125q-0.21875 -0.203125 -0.3125 -0.484375q-0.09375 -0.28125 -0.09375 -0.609375q0 -0.8125 0.59375 -1.265625q0.609375 -0.46875 1.796875 -0.46875l1.109375 0l0 -0.46875q0 -0.484375 -0.3125 -0.765625q-0.296875 -0.28125 -0.921875 -0.28125q-0.453125 0 -0.90625 0.109375q-0.4375 0.09375 -0.90625 0.28125l0 -0.84375q0.171875 -0.0625 0.390625 -0.125q0.21875 -0.0625 0.453125 -0.109375q0.25 -0.0625 0.5 -0.078125q0.265625 -0.03125 0.546875 -0.03125q0.484375 0 0.875 0.109375q0.390625 0.09375 0.65625 0.328125q0.28125 0.21875 0.421875 0.546875q0.140625 0.328125 0.140625 0.78125l0 3.71875l-0.828125 0zm-0.109375 -2.453125l-1.1875 0q-0.34375 0 -0.59375 0.078125q-0.25 0.0625 -0.421875 0.1875q-0.15625 0.125 -0.234375 0.3125q-0.078125 0.171875 -0.078125 0.40625q0 0.15625 0.046875 0.296875q0.046875 0.140625 0.15625 0.25q0.109375 0.109375 0.28125 0.171875q0.171875 0.0625 0.421875 0.0625q0.3125 0 0.734375 -0.1875q0.421875 -0.203125 0.875 -0.625l0 -0.953125zm7.108856 -0.34375q0 0.71875 -0.203125 1.265625q-0.203125 0.53125 -0.5625 0.890625q-0.34375 0.34375 -0.828125 0.53125q-0.484375 0.171875 -1.046875 0.171875q-0.265625 0 -0.515625 -0.03125q-0.25 -0.015625 -0.515625 -0.078125l0 2.25l-0.9375 0l0 -7.59375l0.828125 0l0.0625 0.90625q0.40625 -0.5625 0.859375 -0.78125q0.453125 -0.21875 0.984375 -0.21875q0.46875 0 0.8125 0.1875q0.359375 0.1875 0.59375 0.546875q0.234375 0.34375 0.34375 0.84375q0.125 0.5 0.125 1.109375zm-0.953125 0.046875q0 -0.421875 -0.0625 -0.78125q-0.0625 -0.359375 -0.203125 -0.609375q-0.125 -0.25 -0.34375 -0.390625q-0.203125 -0.140625 -0.5 -0.140625q-0.171875 0 -0.359375 0.0625q-0.171875 0.046875 -0.375 0.1875q-0.203125 0.125 -0.421875 0.34375q-0.203125 0.21875 -0.453125 0.53125l0 2.625q0.25 0.109375 0.53125 0.171875q0.296875 0.0625 0.5625 0.0625q0.765625 0 1.1875 -0.515625q0.4375 -0.515625 0.4375 -1.546875zm6.811981 -0.046875q0 0.71875 -0.203125 1.265625q-0.203125 0.53125 -0.5625 0.890625q-0.34375 0.34375 -0.828125 0.53125q-0.484375 0.171875 -1.046875 0.171875q-0.265625 0 -0.515625 -0.03125q-0.25 -0.015625 -0.515625 -0.078125l0 2.25l-0.9375 0l0 -7.59375l0.828125 0l0.0625 0.90625q0.40625 -0.5625 0.859375 -0.78125q0.453125 -0.21875 0.984375 -0.21875q0.46875 0 0.8125 0.1875q0.359375 0.1875 0.59375 0.546875q0.234375 0.34375 0.34375 0.84375q0.125 0.5 0.125 1.109375zm-0.953125 0.046875q0 -0.421875 -0.0625 -0.78125q-0.0625 -0.359375 -0.203125 -0.609375q-0.125 -0.25 -0.34375 -0.390625q-0.203125 -0.140625 -0.5 -0.140625q-0.171875 0 -0.359375 0.0625q-0.171875 0.046875 -0.375 0.1875q-0.203125 0.125 -0.421875 0.34375q-0.203125 0.21875 -0.453125 0.53125l0 2.625q0.25 0.109375 0.53125 0.171875q0.296875 0.0625 0.5625 0.0625q0.765625 0 1.1875 -0.515625q0.4375 -0.515625 0.4375 -1.546875z" fill-rule="nonzero"></path><path fill="#000000" fill-opacity="0.0" d="m314.49344 234.2126l0 24.472427" fill-rule="nonzero"></path><path stroke="#666666" stroke-width="1.0" stroke-linejoin="round" stroke-linecap="butt" d="m314.49344 240.2126l0 12.472443" fill-rule="evenodd"></path><path fill="#666666" stroke="#666666" stroke-width="1.0" stroke-linecap="butt" d="m316.14517 240.2126l-1.6517334 -4.538101l-1.6517334 4.538101z" fill-rule="evenodd"></path><path fill="#666666" stroke="#666666" stroke-width="1.0" stroke-linecap="butt" d="m312.8417 252.68504l1.6517334 4.538101l1.6517334 -4.538101z" fill-rule="evenodd"></path><path fill="#000000" fill-opacity="0.0" d="m262.60367 213.51968l-133.19684 -44.72441" fill-rule="nonzero"></path><path stroke="#666666" stroke-width="2.0" stroke-linejoin="round" stroke-linecap="butt" d="m251.22783 209.69995l-110.445175 -37.08493" fill-rule="evenodd"></path><path fill="#666666" stroke="#666666" stroke-width="2.0" stroke-linecap="butt" d="m250.17632 212.83159l9.655624 -0.24258423l-7.5525665 -6.020706z" fill-rule="evenodd"></path><path fill="#666666" stroke="#666666" stroke-width="2.0" stroke-linecap="butt" d="m141.83418 169.48338l-9.65564 0.24256897l7.552582 6.020706z" fill-rule="evenodd"></path><path fill="#000000" fill-opacity="0.0" d="m262.60367 279.39172l-148.37794 -84.03151" fill-rule="nonzero"></path><path stroke="#666666" stroke-width="2.0" stroke-linejoin="round" stroke-linecap="butt" d="m252.16191 273.47818l-127.49444 -72.20444" fill-rule="evenodd"></path><path fill="#666666" stroke="#666666" stroke-width="2.0" stroke-linecap="butt" d="m250.534 276.3527l9.525543 1.598175l-6.269699 -7.347168z" fill-rule="evenodd"></path><path fill="#666666" stroke="#666666" stroke-width="2.0" stroke-linecap="butt" d="m126.2954 198.39925l-9.525543 -1.5982056l6.2696915 7.3471985z" fill-rule="evenodd"></path><path fill="#000000" fill-opacity="0.0" d="m142.54068 87.03923l77.921265 -48.598423l13.826767 22.141731l-77.921265 48.59843z" fill-rule="nonzero"></path><path fill="#666666" d="m163.95137 99.37811l-7.0273285 -6.5924225l1.073883 -0.66976166l4.442444 4.4295273q0.69044495 0.69268036 1.3411255 1.4101639q-0.48957825 -1.4624786 -0.55241394 -1.6810989l-1.8371582 -6.275383l1.259491 -0.7855301l3.6263123 3.299614q1.351181 1.2197571 2.3693848 2.4077835q-0.32591248 -0.84638214 -0.6914215 -1.9626999l-1.9235382 -5.853218l1.0473633 -0.65322876l2.771576 9.246681l-1.0075989 0.62841797l-5.4278564 -4.975067q-0.6838684 -0.6231308 -0.83122253 -0.77062225q0.22000122 0.61779785 0.35394287 1.0682907l2.0868988 7.058792l-1.073883 0.66976166zm11.936417 -10.00425l1.082077 -0.50914q0.31585693 1.0367966 -0.027557373 1.9323273q-0.33842468 0.8740158 -1.3327637 1.4941635q-1.259491 0.7855301 -2.4819489 0.47989655q-1.2174683 -0.32715607 -2.0864563 -1.7187424q-0.90211487 -1.4445877 -0.65623474 -2.7028275q0.25912476 -1.2665024 1.4390564 -2.0024185q1.1534424 -0.71938324 2.3576508 -0.3839569q1.2174683 0.3271637 2.0947418 1.7319946q0.057937622 0.09277344 0.16552734 0.26506042l-4.2690125 2.662529q0.64064026 0.90789795 1.4324036 1.1138458q0.79177856 0.20594025 1.5077057 -0.24057007q0.54356384 -0.33901215 0.74098206 -0.84885406q0.20240784 -0.53136444 0.033828735 -1.2733078zm-4.1584625 0.42061615l3.1951294 -1.9927521q-0.5214691 -0.6875839 -1.0498657 -0.85523987q-0.811615 -0.26722717 -1.540802 0.1875534q-0.67614746 0.42170715 -0.84552 1.15345q-0.17764282 0.7184906 0.24105835 1.5069885zm8.575546 -0.61582184l-0.90153503 0.5622711l-4.9325867 -7.89888l0.9810791 -0.6118851l1.7628174 2.8229218q0.1298523 -1.1490402 1.0844116 -1.7443848q0.53030396 -0.3307495 1.1267548 -0.40810394q0.60969543 -0.085624695 1.1546326 0.10853577q0.54493713 0.19416046 1.0566101 0.63005066q0.511673 0.43588257 0.90065 1.0587845q0.9186554 1.4710999 0.6943207 2.7343216q-0.23260498 1.2499619 -1.2534637 1.8866577q-1.0075836 0.62841797 -2.1206055 0.14404297l0.44691467 0.7156677zm-1.8257294 -2.8941727q0.64553833 1.0337448 1.2185974 1.3024445q0.9225006 0.47428894 1.7047119 -0.0135650635q0.6363678 -0.39689636 0.75279236 -1.2429352q0.11642456 -0.8460312 -0.5622101 -1.9327927q-0.70347595 -1.1265182 -1.4852905 -1.3755112q-0.7685547 -0.25725555 -1.4049225 0.13964081q-0.63638306 0.39689636 -0.7528076 1.2429352q-0.124694824 0.83278656 0.529129 1.8797836zm5.407547 -2.8570023l0.93640137 -0.71292114q0.4387207 0.5550461 0.9306183 0.78227997q0.4968872 0.205719 1.176178 0.11352539q0.68426514 -0.113716125 1.3604126 -0.53541565q0.5966034 -0.3720932 0.93977356 -0.8255234q0.35643005 -0.4616928 0.39146423 -0.9070816q0.026748657 -0.45864868 -0.20497131 -0.8297348q-0.23173523 -0.37108612 -0.6309204 -0.50883484q-0.3859253 -0.14601898 -0.9923248 -0.025619507q-0.39266968 0.07917023 -1.64534 0.49214172q-1.252655 0.4129715 -1.8308563 0.46053314q-0.75216675 0.06398773 -1.3036957 -0.19972229q-0.5597992 -0.2769699 -0.89912415 -0.82035065q-0.37242126 -0.5963898 -0.36375427 -1.3199768q0.021942139 -0.7318649 0.5060425 -1.402092q0.48908997 -0.6917496 1.2845612 -1.1878738q0.87501526 -0.5457306 1.719986 -0.66760254q0.84994507 -0.14338684 1.5554962 0.18999481q0.7105408 0.3118515 1.1674194 0.9844818l-0.9579315 0.70793915q-0.55130005 -0.7058182 -1.247055 -0.7874985q-0.70402527 -0.094940186 -1.6188049 0.4756012q-0.9413147 0.5870743 -1.1636353 1.2045288q-0.22233582 0.6174469 0.08389282 1.107811q0.26483154 0.42410278 0.7435608 0.51223755q0.47872925 0.088134766 1.933548 -0.4140854q1.4465485 -0.51548004 2.056244 -0.60110474q0.88804626 -0.11190033 1.5124512 0.1800232q0.63764954 0.28364563 1.0349121 0.9197998q0.38897705 0.6228943 0.37861633 1.4027863q-0.010360718 0.77988434 -0.48788452 1.519661q-0.48579407 0.726532 -1.3342896 1.2557297q-1.073883 0.66976166 -1.9934082 0.8197174q-0.9145508 0.12843323 -1.7145233 -0.23813629q-0.8082428 -0.37982178 -1.3230591 -1.1452179zm7.2167206 -4.961342q-0.99313354 -1.5903778 -0.589859 -2.8915405q0.34518433 -1.099205 1.4058075 -1.7606964q1.1799469 -0.73591614 2.4023895 -0.4302826q1.2357178 0.2973709 2.0881653 1.6624451q0.68692017 1.1000061 0.75271606 1.9428787q0.06581116 0.842865 -0.34710693 1.5976028q-0.42118835 0.74147797 -1.16362 1.2045288q-1.2064667 0.75244904 -2.4289246 0.4468155q-1.2091827 -0.3139038 -2.1195679 -1.7717514zm0.994339 -0.62015533q0.68692017 1.1000137 1.511795 1.3589706q0.8166046 0.24570465 1.5457916 -0.2090683q0.71591187 -0.44651031 0.8538666 -1.2875671q0.14294434 -0.8625717 -0.5605316 -1.98909q-0.6620941 -1.060257 -1.4919434 -1.2976913q-0.82489014 -0.2589569 -1.540802 0.1875534q-0.729187 0.45478058 -0.8671417 1.2958298q-0.13795471 0.8410492 0.54896545 1.9410629zm9.858566 -5.0805817l1.0290375 -0.47607422q0.47488403 1.0849457 0.17285156 2.0467453q-0.30204773 0.9617996 -1.2300873 1.5406036q-1.1799469 0.73591614 -2.375885 0.41374207q-1.1826782 -0.3304367 -2.0765076 -1.7617798q-0.57933044 -0.9277191 -0.7047577 -1.8070602q-0.13369751 -0.892601 0.27423096 -1.6258087q0.40794373 -0.73321533 1.1503754 -1.1962585q0.92803955 -0.57881165 1.822586 -0.47379303q0.886261 0.09177399 1.583313 0.8540039l-0.8502655 0.73285675q-0.4884491 -0.48719788 -1.0152283 -0.56378174q-0.5135193 -0.0848465 -1.0040588 0.22109222q-0.729187 0.45478058 -0.8621521 1.2743149q-0.12800598 0.79800415 0.58374023 1.9377747q0.72003174 1.1530228 1.4885864 1.410286q0.76026917 0.2440033 1.4761963 -0.20250702q0.5700836 -0.35555267 0.7393799 -0.93992615q0.161026 -0.59762573 -0.20135498 -1.3844299zm3.2366333 0.89089966l-4.9325867 -7.89888l0.9678192 -0.6036148l2.8138885 4.506073l0.8452759 -3.7497864l1.259491 -0.7855301l-0.86335754 3.4848404l4.6557617 2.0867004l-1.1932068 0.7441864l-3.724884 -1.7465286l-0.27560425 1.0926361l1.4152222 2.2662888l-0.9678192 0.6036148zm8.415115 -7.8080597l1.082077 -0.50914764q0.31585693 1.0368042 -0.027557373 1.9323349q-0.33842468 0.8740082 -1.3327637 1.4941635q-1.259491 0.7855301 -2.4819489 0.47988892q-1.2174683 -0.32715607 -2.0864563 -1.7187347q-0.9020996 -1.4445953 -0.65623474 -2.7028275q0.25912476 -1.26651 1.4390717 -2.0024223q1.1534271 -0.7193794 2.3576355 -0.3839531q1.2174683 0.32715607 2.0947418 1.7319946q0.057937622 0.09276581 0.16552734 0.26506042l-4.2690125 2.6625214q0.64064026 0.90789795 1.4324188 1.1138458q0.7917633 0.20594788 1.5076904 -0.24056244q0.54356384 -0.33901978 0.74098206 -0.84885406q0.20240784 -0.53136444 0.033828735 -1.2733078zm-4.1584625 0.42061615l3.1951294 -1.9927597q-0.5214691 -0.6875801 -1.0498505 -0.85523224q-0.81163025 -0.26722717 -1.540802 0.18754959q-0.67614746 0.42170334 -0.8455353 1.1534462q-0.17764282 0.7184906 0.24105835 1.5069962zm9.270569 -2.2462692l0.66226196 0.76551056q-0.35307312 0.34910583 -0.6712494 0.547554q-0.5303192 0.3307495 -0.9295807 0.34037018q-0.39926147 0.0096206665 -0.6840973 -0.18102264q-0.29312134 -0.2039032 -0.83106995 -1.0653534l-2.0607605 -3.3000374l-0.70266724 0.43824005l-0.46347046 -0.74217606l0.70266724 -0.43824005l-0.8855438 -1.418087l0.6036682 -1.1867561l1.2496948 2.0012283l0.9810791 -0.6118851l0.46347046 0.74217606l-0.9810791 0.6118851l2.0938568 3.3530464q0.25656128 0.41085052 0.38407898 0.49705505q0.1275177 0.0861969 0.27496338 0.08631897q0.16070557 -0.008155823 0.37283325 -0.14045715q0.17234802 -0.10749054 0.4209442 -0.2993698z" fill-rule="nonzero"></path></g></svg>

