<?xml version="1.0" standalone="yes"?>

<svg version="1.1" viewBox="0.0 0.0 559.5433070866142 214.13648293963254" fill="none" stroke="none" stroke-linecap="square" stroke-miterlimit="10" xmlns="http://www.w3.org/2000/svg" xmlns:xlink="http://www.w3.org/1999/xlink"><clipPath id="p.0"><path d="m0 0l559.54333 0l0 214.13649l-559.54333 0l0 -214.13649z" clip-rule="nonzero"></path></clipPath><g clip-path="url(#p.0)"><path fill="#000000" fill-opacity="0.0" d="m0 0l559.54333 0l0 214.13649l-559.54333 0z" fill-rule="nonzero"></path><path fill="#000000" fill-opacity="0.0" d="m208.86876 111.93438l130.26772 0l0 36.72442l-130.26772 0z" fill-rule="nonzero"></path><path stroke="#000000" stroke-width="1.0" stroke-linejoin="round" stroke-linecap="butt" d="m208.86876 111.93438l130.26772 0l0 36.72442l-130.26772 0z" fill-rule="nonzero"></path><path fill="#000000" d="m232.46356 136.15659l0 -5.640625q0 -0.359375 -0.03125 -0.59375q-0.015625 -0.234375 -0.078125 -0.375q-0.0625 -0.140625 -0.15625 -0.1875q-0.078125 -0.0625 -0.21875 -0.0625q-0.15625 0 -0.296875 0.09375q-0.125 0.09375 -0.28125 0.3125q-0.140625 0.203125 -0.328125 0.5625q-0.1875 0.34375 -0.4375 0.84375l0 5.046875l-1.234375 0l0 -5.484375q0 -0.4375 -0.03125 -0.703125q-0.03125 -0.265625 -0.09375 -0.40625q-0.046875 -0.15625 -0.140625 -0.203125q-0.09375 -0.0625 -0.234375 -0.0625q-0.140625 0 -0.265625 0.078125q-0.125 0.078125 -0.28125 0.28125q-0.140625 0.203125 -0.328125 0.5625q-0.1875 0.34375 -0.453125 0.890625l0 5.046875l-1.25 0l0 -7.84375l1.046875 0l0.0625 1.484375q0.203125 -0.4375 0.390625 -0.75q0.1875 -0.3125 0.390625 -0.5q0.203125 -0.203125 0.4375 -0.28125q0.234375 -0.09375 0.515625 -0.09375q0.625 0 0.953125 0.421875q0.328125 0.40625 0.328125 1.265625q0.1875 -0.40625 0.359375 -0.71875q0.1875 -0.3125 0.390625 -0.53125q0.21875 -0.21875 0.46875 -0.328125q0.25 -0.109375 0.578125 -0.109375q1.46875 0 1.46875 2.265625l0 5.71875l-1.25 0zm8.25 0l-0.03125 -1.0625q-0.640625 0.640625 -1.3125 0.921875q-0.65625 0.28125 -1.375 0.28125q-0.671875 0 -1.15625 -0.171875q-0.46875 -0.171875 -0.78125 -0.46875q-0.3125 -0.3125 -0.453125 -0.71875q-0.140625 -0.40625 -0.140625 -0.875q0 -1.1875 0.875 -1.84375q0.875 -0.671875 2.59375 -0.671875l1.625 0l0 -0.6875q0 -0.703125 -0.453125 -1.109375q-0.4375 -0.421875 -1.34375 -0.421875q-0.671875 0 -1.3125 0.15625q-0.640625 0.140625 -1.328125 0.40625l0 -1.21875q0.25 -0.09375 0.5625 -0.1875q0.328125 -0.09375 0.671875 -0.15625q0.359375 -0.078125 0.734375 -0.109375q0.390625 -0.046875 0.78125 -0.046875q0.703125 0 1.265625 0.15625q0.578125 0.15625 0.96875 0.484375q0.40625 0.3125 0.609375 0.796875q0.21875 0.484375 0.21875 1.140625l0 5.40625l-1.21875 0zm-0.15625 -3.578125l-1.71875 0q-0.515625 0 -0.890625 0.109375q-0.359375 0.09375 -0.59375 0.28125q-0.234375 0.1875 -0.34375 0.453125q-0.109375 0.265625 -0.109375 0.59375q0 0.21875 0.0625 0.4375q0.078125 0.203125 0.234375 0.359375q0.15625 0.15625 0.40625 0.25q0.25 0.09375 0.609375 0.09375q0.46875 0 1.0625 -0.28125q0.609375 -0.28125 1.28125 -0.90625l0 -1.390625zm6.578125 -3.140625l-2.3125 0l0 -1.125l3.6875 0l0 6.703125l2.34375 0l0 1.140625l-6.296875 0l0 -1.140625l2.578125 0l0 -5.578125zm0.484375 -4.421875q0.21875 0 0.40625 0.09375q0.203125 0.078125 0.34375 0.234375q0.15625 0.140625 0.234375 0.328125q0.078125 0.1875 0.078125 0.421875q0 0.21875 -0.078125 0.421875q-0.078125 0.1875 -0.234375 0.34375q-0.140625 0.140625 -0.34375 0.21875q-0.1875 0.078125 -0.40625 0.078125q-0.234375 0 -0.4375 -0.078125q-0.1875 -0.078125 -0.328125 -0.21875q-0.140625 -0.15625 -0.234375 -0.34375q-0.078125 -0.203125 -0.078125 -0.421875q0 -0.234375 0.078125 -0.421875q0.09375 -0.1875 0.234375 -0.328125q0.140625 -0.15625 0.328125 -0.234375q0.203125 -0.09375 0.4375 -0.09375zm5.640625 3.296875l1.21875 0l0.046875 1.265625q0.34375 -0.40625 0.65625 -0.671875q0.328125 -0.28125 0.640625 -0.4375q0.3125 -0.171875 0.625 -0.234375q0.328125 -0.0625 0.671875 -0.0625q1.203125 0 1.828125 0.71875q0.625 0.703125 0.625 2.140625l0 5.125l-1.359375 0l0 -5.015625q0 -0.921875 -0.34375 -1.359375q-0.34375 -0.4375 -1.03125 -0.4375q-0.25 0 -0.484375 0.078125q-0.234375 0.0625 -0.5 0.25q-0.25 0.1875 -0.5625 0.5q-0.296875 0.3125 -0.671875 0.78125l0 5.203125l-1.359375 0l0 -7.84375zm14.28125 4.21875l-4.671875 0l0 -1.28125l4.671875 0l0 1.28125zm2.921875 -0.140625q0 -1.0 0.265625 -1.765625q0.28125 -0.78125 0.78125 -1.3125q0.5 -0.546875 1.203125 -0.8125q0.71875 -0.28125 1.578125 -0.28125q0.375 0 0.734375 0.046875q0.375 0.046875 0.71875 0.140625l0 -3.296875l1.375 0l0 11.046875l-1.21875 0l-0.046875 -1.484375q-0.578125 0.828125 -1.25 1.234375q-0.65625 0.390625 -1.421875 0.390625q-0.671875 0 -1.1875 -0.28125q-0.515625 -0.28125 -0.859375 -0.796875q-0.328125 -0.515625 -0.5 -1.234375q-0.171875 -0.71875 -0.171875 -1.59375zm1.390625 -0.078125q0 1.421875 0.40625 2.125q0.421875 0.6875 1.1875 0.6875q0.515625 0 1.09375 -0.453125q0.578125 -0.46875 1.203125 -1.375l0 -3.640625q-0.328125 -0.15625 -0.734375 -0.234375q-0.40625 -0.078125 -0.8125 -0.078125q-1.109375 0 -1.734375 0.71875q-0.609375 0.71875 -0.609375 2.25zm12.84375 3.84375l-0.03125 -1.0625q-0.640625 0.640625 -1.3125 0.921875q-0.65625 0.28125 -1.375 0.28125q-0.671875 0 -1.15625 -0.171875q-0.46875 -0.171875 -0.78125 -0.46875q-0.3125 -0.3125 -0.453125 -0.71875q-0.140625 -0.40625 -0.140625 -0.875q0 -1.1875 0.875 -1.84375q0.875 -0.671875 2.59375 -0.671875l1.625 0l0 -0.6875q0 -0.703125 -0.453125 -1.109375q-0.4375 -0.421875 -1.34375 -0.421875q-0.671875 0 -1.3125 0.15625q-0.640625 0.140625 -1.328125 0.40625l0 -1.21875q0.25 -0.09375 0.5625 -0.1875q0.328125 -0.09375 0.671875 -0.15625q0.359375 -0.078125 0.734375 -0.109375q0.390625 -0.046875 0.78125 -0.046875q0.703125 0 1.265625 0.15625q0.578125 0.15625 0.96875 0.484375q0.40625 0.3125 0.609375 0.796875q0.21875 0.484375 0.21875 1.140625l0 5.40625l-1.21875 0zm-0.15625 -3.578125l-1.71875 0q-0.515625 0 -0.890625 0.109375q-0.359375 0.09375 -0.59375 0.28125q-0.234375 0.1875 -0.34375 0.453125q-0.109375 0.265625 -0.109375 0.59375q0 0.21875 0.0625 0.4375q0.078125 0.203125 0.234375 0.359375q0.15625 0.15625 0.40625 0.25q0.25 0.09375 0.609375 0.09375q0.46875 0 1.0625 -0.28125q0.609375 -0.28125 1.28125 -0.90625l0 -1.390625zm10.53125 -0.765625q0 0.296875 -0.015625 0.5q0 0.1875 -0.015625 0.359375l-5.5 0q0 1.203125 0.671875 1.84375q0.671875 0.640625 1.9375 0.640625q0.34375 0 0.6875 -0.015625q0.34375 -0.03125 0.65625 -0.078125q0.328125 -0.046875 0.609375 -0.109375q0.296875 -0.0625 0.546875 -0.125l0 1.109375q-0.546875 0.15625 -1.25 0.25q-0.703125 0.109375 -1.453125 0.109375q-1.0 0 -1.734375 -0.265625q-0.71875 -0.28125 -1.1875 -0.796875q-0.46875 -0.53125 -0.6875 -1.28125q-0.21875 -0.75 -0.21875 -1.703125q0 -0.828125 0.234375 -1.5625q0.234375 -0.75 0.6875 -1.296875q0.46875 -0.5625 1.125 -0.890625q0.671875 -0.328125 1.515625 -0.328125q0.8125 0 1.4375 0.265625q0.640625 0.25 1.078125 0.71875q0.4375 0.46875 0.65625 1.15625q0.21875 0.671875 0.21875 1.5zm-1.40625 -0.1875q0.015625 -0.53125 -0.109375 -0.953125q-0.125 -0.4375 -0.390625 -0.75q-0.25 -0.3125 -0.640625 -0.484375q-0.390625 -0.1875 -0.90625 -0.1875q-0.453125 0 -0.828125 0.171875q-0.359375 0.171875 -0.625 0.484375q-0.265625 0.3125 -0.4375 0.75q-0.15625 0.4375 -0.1875 0.96875l4.125 0zm9.171875 4.53125l0 -5.640625q0 -0.359375 -0.03125 -0.59375q-0.015625 -0.234375 -0.078125 -0.375q-0.0625 -0.140625 -0.15625 -0.1875q-0.078125 -0.0625 -0.21875 -0.0625q-0.15625 0 -0.296875 0.09375q-0.125 0.09375 -0.28125 0.3125q-0.140625 0.203125 -0.328125 0.5625q-0.1875 0.34375 -0.4375 0.84375l0 5.046875l-1.234375 0l0 -5.484375q0 -0.4375 -0.03125 -0.703125q-0.03125 -0.265625 -0.09375 -0.40625q-0.046875 -0.15625 -0.140625 -0.203125q-0.09375 -0.0625 -0.234375 -0.0625q-0.140625 0 -0.265625 0.078125q-0.125 0.078125 -0.28125 0.28125q-0.140625 0.203125 -0.328125 0.5625q-0.1875 0.34375 -0.453125 0.890625l0 5.046875l-1.25 0l0 -7.84375l1.046875 0l0.0625 1.484375q0.203125 -0.4375 0.390625 -0.75q0.1875 -0.3125 0.390625 -0.5q0.203125 -0.203125 0.4375 -0.28125q0.234375 -0.09375 0.515625 -0.09375q0.625 0 0.953125 0.421875q0.328125 0.40625 0.328125 1.265625q0.1875 -0.40625 0.359375 -0.71875q0.1875 -0.3125 0.390625 -0.53125q0.21875 -0.21875 0.46875 -0.328125q0.25 -0.109375 0.578125 -0.109375q1.46875 0 1.46875 2.265625l0 5.71875l-1.25 0zm10.03125 -3.984375q0 0.90625 -0.265625 1.671875q-0.25 0.765625 -0.734375 1.3125q-0.484375 0.53125 -1.1875 0.84375q-0.6875 0.296875 -1.5625 0.296875q-0.84375 0 -1.515625 -0.265625q-0.671875 -0.265625 -1.140625 -0.765625q-0.453125 -0.515625 -0.703125 -1.265625q-0.25 -0.75 -0.25 -1.71875q0 -0.921875 0.25 -1.671875q0.265625 -0.75 0.75 -1.296875q0.484375 -0.546875 1.171875 -0.84375q0.703125 -0.296875 1.59375 -0.296875q0.84375 0 1.5 0.265625q0.671875 0.25 1.140625 0.765625q0.46875 0.5 0.703125 1.25q0.25 0.75 0.25 1.71875zm-1.390625 0.0625q0 -0.734375 -0.15625 -1.265625q-0.15625 -0.546875 -0.453125 -0.90625q-0.296875 -0.375 -0.734375 -0.546875q-0.421875 -0.1875 -0.9375 -0.1875q-0.609375 0 -1.046875 0.234375q-0.4375 0.234375 -0.71875 0.640625q-0.265625 0.390625 -0.40625 0.921875q-0.125 0.53125 -0.125 1.109375q0 0.71875 0.15625 1.265625q0.171875 0.546875 0.46875 0.921875q0.296875 0.359375 0.71875 0.546875q0.421875 0.171875 0.953125 0.171875q0.609375 0 1.03125 -0.234375q0.4375 -0.234375 0.71875 -0.625q0.28125 -0.40625 0.40625 -0.9375q0.125 -0.53125 0.125 -1.109375zm3.359375 -3.921875l1.21875 0l0.046875 1.265625q0.34375 -0.40625 0.65625 -0.671875q0.328125 -0.28125 0.640625 -0.4375q0.3125 -0.171875 0.625 -0.234375q0.328125 -0.0625 0.671875 -0.0625q1.203125 0 1.828125 0.71875q0.625 0.703125 0.625 2.140625l0 5.125l-1.359375 0l0 -5.015625q0 -0.921875 -0.34375 -1.359375q-0.34375 -0.4375 -1.03125 -0.4375q-0.25 0 -0.484375 0.078125q-0.234375 0.0625 -0.5 0.25q-0.25 0.1875 -0.5625 0.5q-0.296875 0.3125 -0.671875 0.78125l0 5.203125l-1.359375 0l0 -7.84375z" fill-rule="nonzero"></path><path fill="#000000" fill-opacity="0.0" d="m148.08136 10.488189l251.84253 0l0 64.72441l-251.84253 0z" fill-rule="nonzero"></path><path stroke="#000000" stroke-width="1.0" stroke-linejoin="round" stroke-linecap="butt" d="m148.08136 10.488189l251.84253 0l0 64.72441l-251.84253 0z" fill-rule="nonzero"></path><path fill="#000000" fill-opacity="0.0" d="m274.00262 111.93438l0 -36.724403" fill-rule="nonzero"></path><path stroke="#666666" stroke-width="1.0" stroke-linejoin="round" stroke-linecap="butt" d="m274.00262 105.93438l0 -24.724403" fill-rule="evenodd"></path><path fill="#666666" stroke="#666666" stroke-width="1.0" stroke-linecap="butt" d="m272.3509 105.93439l1.6517334 4.5380936l1.6517334 -4.5380936z" fill-rule="evenodd"></path><path fill="#666666" stroke="#666666" stroke-width="1.0" stroke-linecap="butt" d="m275.65436 81.20998l-1.6517334 -4.538101l-1.6517334 4.538101z" fill-rule="evenodd"></path><path fill="#000000" fill-opacity="0.0" d="m237.65355 43.7248l76.94487 0l0 22.740158l-76.94487 0z" fill-rule="nonzero"></path><path fill="#000000" d="m267.25098 68.0848l-1.515625 0l-0.703125 -2.234375l-4.25 0l-0.71875 2.234375l-1.453125 0l3.390625 -10.21875l1.90625 0l3.34375 10.21875zm-2.625 -3.46875l-1.71875 -5.46875l-1.734375 5.46875l3.453125 0zm10.40625 3.46875l-5.875 0l0 -10.21875l1.40625 0l0 9.03125l4.46875 0l0 1.1875zm8.890625 -2.765625q0 0.71875 -0.296875 1.265625q-0.296875 0.546875 -0.828125 0.921875q-0.53125 0.359375 -1.28125 0.546875q-0.75 0.171875 -1.640625 0.171875q-0.40625 0 -0.8125 -0.03125q-0.40625 -0.03125 -0.78125 -0.078125q-0.359375 -0.046875 -0.6875 -0.109375q-0.328125 -0.0625 -0.59375 -0.140625l0 -1.34375q0.578125 0.21875 1.3125 0.34375q0.734375 0.125 1.65625 0.125q0.671875 0 1.140625 -0.09375q0.484375 -0.109375 0.78125 -0.3125q0.296875 -0.21875 0.4375 -0.515625q0.140625 -0.296875 0.140625 -0.671875q0 -0.421875 -0.234375 -0.703125q-0.234375 -0.296875 -0.609375 -0.53125q-0.375 -0.234375 -0.859375 -0.421875q-0.46875 -0.1875 -0.96875 -0.390625q-0.5 -0.203125 -0.984375 -0.4375q-0.484375 -0.25 -0.859375 -0.5625q-0.375 -0.328125 -0.609375 -0.765625q-0.21875 -0.4375 -0.21875 -1.046875q0 -0.515625 0.21875 -1.015625q0.21875 -0.515625 0.671875 -0.90625q0.46875 -0.40625 1.1875 -0.640625q0.71875 -0.25 1.71875 -0.25q0.265625 0 0.5625 0.03125q0.296875 0.015625 0.609375 0.0625q0.3125 0.046875 0.609375 0.109375q0.296875 0.046875 0.5625 0.109375l0 1.25q-0.609375 -0.171875 -1.21875 -0.265625q-0.59375 -0.09375 -1.15625 -0.09375q-1.1875 0 -1.75 0.40625q-0.5625 0.390625 -0.5625 1.0625q0 0.421875 0.21875 0.71875q0.234375 0.296875 0.609375 0.53125q0.375 0.234375 0.859375 0.421875q0.484375 0.1875 0.984375 0.390625q0.5 0.203125 0.96875 0.453125q0.484375 0.234375 0.859375 0.578125q0.375 0.328125 0.609375 0.78125q0.234375 0.4375 0.234375 1.046875zm9.71875 2.765625l-1.515625 0l-0.703125 -2.234375l-4.25 0l-0.71875 2.234375l-1.453125 0l3.390625 -10.21875l1.90625 0l3.34375 10.21875zm-2.625 -3.46875l-1.71875 -5.46875l-1.734375 5.46875l3.453125 0z" fill-rule="nonzero"></path><path fill="#666666" d="m157.99213 35.569553l0 0c0 -9.019201 7.311508 -16.330708 16.330704 -16.330708l0 0c4.3311768 0 8.484955 1.7205505 11.547562 4.7831535c3.0626068 3.062601 4.7831573 7.216381 4.7831573 11.547554l0 0c0 9.019203 -7.311508 16.330708 -16.330719 16.330708l0 0c-9.019196 0 -16.330704 -7.3115044 -16.330704 -16.330708z" fill-rule="nonzero"></path><path stroke="#000000" stroke-width="1.0" stroke-linejoin="round" stroke-linecap="butt" d="m157.99213 35.569553l0 0c0 -9.019201 7.311508 -16.330708 16.330704 -16.330708l0 0c4.3311768 0 8.484955 1.7205505 11.547562 4.7831535c3.0626068 3.062601 4.7831573 7.216381 4.7831573 11.547554l0 0c0 9.019203 -7.311508 16.330708 -16.330719 16.330708l0 0c-9.019196 0 -16.330704 -7.3115044 -16.330704 -16.330708z" fill-rule="nonzero"></path><path fill="#000000" fill-opacity="0.0" d="m159.74112 19.238846l32.661407 0l0 32.661415l-32.661407 0z" fill-rule="nonzero"></path><path fill="#ffffff" d="m174.52237 38.478844l-0.9375 0l-0.140625 -4.375l-0.046875 -1.6875l-0.328125 0.984375l-1.046875 2.796875l-0.65625 0l-0.984375 -2.6875l-0.328125 -1.09375l-0.015625 1.765625l-0.125 4.296875l-0.90625 0l0.34375 -7.015623l1.125 0l0.953125 2.640623l0.296875 0.890625l0.296875 -0.890625l1.0 -2.640623l1.171875 0l0.328125 7.015623zm5.436981 0l-4.40625 0l0 -0.875l1.796875 0l0 -5.125l-1.6875 0.921875l-0.34375 -0.796875l2.234375 -1.1718731l0.828125 0l0 6.171873l1.578125 0l0 0.875z" fill-rule="nonzero"></path><path fill="#666666" d="m200.81102 35.569553l0 0c0 -9.019201 7.311508 -16.330708 16.330719 -16.330708l0 0c4.3311615 0 8.48494 1.7205505 11.547546 4.7831535c3.0626068 3.062601 4.7831573 7.216381 4.7831573 11.547554l0 0c0 9.019203 -7.311508 16.330708 -16.330704 16.330708l0 0c-9.019211 0 -16.330719 -7.3115044 -16.330719 -16.330708z" fill-rule="nonzero"></path><path stroke="#000000" stroke-width="1.0" stroke-linejoin="round" stroke-linecap="butt" d="m200.81102 35.569553l0 0c0 -9.019201 7.311508 -16.330708 16.330719 -16.330708l0 0c4.3311615 0 8.48494 1.7205505 11.547546 4.7831535c3.0626068 3.062601 4.7831573 7.216381 4.7831573 11.547554l0 0c0 9.019203 -7.311508 16.330708 -16.330704 16.330708l0 0c-9.019211 0 -16.330719 -7.3115044 -16.330719 -16.330708z" fill-rule="nonzero"></path><path fill="#000000" fill-opacity="0.0" d="m202.56001 19.238846l32.661423 0l0 32.661415l-32.661423 0z" fill-rule="nonzero"></path><path fill="#ffffff" d="m217.34126 38.478844l-0.9375 0l-0.140625 -4.375l-0.046875 -1.6875l-0.328125 0.984375l-1.046875 2.796875l-0.65625 0l-0.984375 -2.6875l-0.328125 -1.09375l-0.015625 1.765625l-0.125 4.296875l-0.90625 0l0.34375 -7.015623l1.125 0l0.953125 2.640623l0.296875 0.890625l0.296875 -0.890625l1.0 -2.640623l1.171875 0l0.328125 7.015623zm5.499481 0l-4.625 0l0 -0.84375l1.8125 -1.796875q0.4375 -0.4375 0.71875 -0.765625q0.28125 -0.328125 0.4375 -0.59375q0.15625 -0.265625 0.203125 -0.5q0.0625 -0.234375 0.0625 -0.5q0 -0.265625 -0.078125 -0.5q-0.0625 -0.234375 -0.21875 -0.40625q-0.140625 -0.171875 -0.375 -0.28125q-0.21875 -0.109375 -0.546875 -0.109375q-0.4375 0 -0.8125 0.203125q-0.359375 0.203125 -0.671875 0.515625l-0.515625 -0.609375q0.40625 -0.4218731 0.921875 -0.6718731q0.515625 -0.25 1.203125 -0.25q0.46875 0 0.84375 0.140625q0.390625 0.125 0.671875 0.390625q0.28125 0.2656231 0.421875 0.6562481q0.15625 0.375 0.15625 0.84375q0 0.40625 -0.109375 0.75q-0.09375 0.34375 -0.3125 0.6875q-0.21875 0.34375 -0.546875 0.71875q-0.328125 0.359375 -0.78125 0.796875l-1.28125 1.234375l3.421875 0l0 0.890625z" fill-rule="nonzero"></path><path fill="#666666" d="m241.8819 35.569553l0 0c0 -9.019201 7.311493 -16.330708 16.330688 -16.330708l0 0c4.3311768 0 8.484955 1.7205505 11.547577 4.7831535c3.0625916 3.062601 4.783142 7.216381 4.783142 11.547554l0 0c0 9.019203 -7.311493 16.330708 -16.330719 16.330708l0 0c-9.019196 0 -16.330688 -7.3115044 -16.330688 -16.330708z" fill-rule="nonzero"></path><path stroke="#000000" stroke-width="1.0" stroke-linejoin="round" stroke-linecap="butt" d="m241.8819 35.569553l0 0c0 -9.019201 7.311493 -16.330708 16.330688 -16.330708l0 0c4.3311768 0 8.484955 1.7205505 11.547577 4.7831535c3.0625916 3.062601 4.783142 7.216381 4.783142 11.547554l0 0c0 9.019203 -7.311493 16.330708 -16.330719 16.330708l0 0c-9.019196 0 -16.330688 -7.3115044 -16.330688 -16.330708z" fill-rule="nonzero"></path><path fill="#000000" fill-opacity="0.0" d="m243.63087 19.238846l32.661423 0l0 32.661415l-32.661423 0z" fill-rule="nonzero"></path><path fill="#ffffff" d="m258.41214 38.478844l-0.9375 0l-0.140625 -4.375l-0.046875 -1.6875l-0.328125 0.984375l-1.0468903 2.796875l-0.65625 0l-0.984375 -2.6875l-0.328125 -1.09375l-0.015625 1.765625l-0.125 4.296875l-0.90625 0l0.34375 -7.015623l1.125 0l0.953125 2.640623l0.296875 0.890625l0.296875 -0.890625l1.0000153 -2.640623l1.171875 0l0.328125 7.015623zm5.358856 -2.125q0 0.453125 -0.1875 0.859375q-0.1875 0.40625 -0.5625 0.71875q-0.375 0.296875 -0.953125 0.46875q-0.5625 0.171875 -1.328125 0.171875q-0.40625 0 -0.75 -0.03125q-0.328125 -0.015625 -0.625 -0.0625l0 -0.84375q0.34375 0.0625 0.703125 0.09375q0.375 0.03125 0.765625 0.03125q0.53125 0 0.890625 -0.09375q0.375 -0.09375 0.609375 -0.265625q0.25 -0.171875 0.34375 -0.421875q0.109375 -0.265625 0.109375 -0.578125q0 -0.296875 -0.125 -0.5q-0.125 -0.21875 -0.359375 -0.359375q-0.234375 -0.15625 -0.5625 -0.21875q-0.328125 -0.078125 -0.703125 -0.078125l-0.8125 0l0 -0.765625l0.8125 0q0.328125 0 0.578125 -0.078125q0.265625 -0.09375 0.453125 -0.25q0.1875 -0.15625 0.28125 -0.375q0.09375 -0.234375 0.09375 -0.515625q0 -0.578125 -0.34375 -0.828125q-0.34375 -0.265625 -1.0 -0.265625q-0.359375 0 -0.734375 0.078125q-0.375 0.0625 -0.8125 0.203125l0 -0.8124981q0.1875 -0.0625 0.390625 -0.109375q0.21875 -0.0625 0.421875 -0.09375q0.203125 -0.03125 0.40625 -0.046875q0.203125 -0.015625 0.390625 -0.015625q0.5625 0 0.984375 0.125q0.421875 0.109375 0.703125 0.34375q0.296875 0.2187481 0.4375 0.5468731q0.140625 0.3125 0.140625 0.71875q0 0.59375 -0.3125 1.015625q-0.296875 0.40625 -0.84375 0.640625q0.28125 0.046875 0.546875 0.171875q0.265625 0.125 0.46875 0.328125q0.21875 0.203125 0.34375 0.484375q0.140625 0.265625 0.140625 0.609375z" fill-rule="nonzero"></path><path fill="#666666" d="m281.2047 35.569553l0 0c0 -9.019201 7.3115234 -16.330708 16.330719 -16.330708l0 0c4.3311768 0 8.484955 1.7205505 11.547546 4.7831535c3.062622 3.062601 4.7831726 7.216381 4.7831726 11.547554l0 0c0 9.019203 -7.3115234 16.330708 -16.330719 16.330708l0 0c-9.019196 0 -16.330719 -7.3115044 -16.330719 -16.330708z" fill-rule="nonzero"></path><path stroke="#000000" stroke-width="1.0" stroke-linejoin="round" stroke-linecap="butt" d="m281.2047 35.569553l0 0c0 -9.019201 7.3115234 -16.330708 16.330719 -16.330708l0 0c4.3311768 0 8.484955 1.7205505 11.547546 4.7831535c3.062622 3.062601 4.7831726 7.216381 4.7831726 11.547554l0 0c0 9.019203 -7.3115234 16.330708 -16.330719 16.330708l0 0c-9.019196 0 -16.330719 -7.3115044 -16.330719 -16.330708z" fill-rule="nonzero"></path><path fill="#000000" fill-opacity="0.0" d="m282.9537 19.238846l32.661438 0l0 32.661415l-32.661438 0z" fill-rule="nonzero"></path><path fill="#ffffff" d="m297.73495 38.478844l-0.9375 0l-0.140625 -4.375l-0.046875 -1.6875l-0.328125 0.984375l-1.046875 2.796875l-0.65625 0l-0.984375 -2.6875l-0.328125 -1.09375l-0.015625 1.765625l-0.125 4.296875l-0.90625 0l0.34375 -7.015623l1.125 0l0.953125 2.640623l0.296875 0.890625l0.296875 -0.890625l1.0 -2.640623l1.171875 0l0.328125 7.015623zm5.843231 -1.546875l-1.203125 0l0 1.546875l-0.953125 0l0 -1.546875l-3.375 0l0 -0.828125l2.984375 -4.640623l1.34375 0l0 4.640623l1.203125 0l0 0.828125zm-2.15625 -4.578125l-2.4375 3.75l2.4375 0l0 -3.75z" fill-rule="nonzero"></path><path fill="#666666" d="m318.77954 35.569553l0 0c0 -9.019201 7.311493 -16.330708 16.330688 -16.330708l0 0c4.3311768 0 8.484955 1.7205505 11.547546 4.7831535c3.062622 3.062601 4.7831726 7.216381 4.7831726 11.547554l0 0c0 9.019203 -7.3115234 16.330708 -16.330719 16.330708l0 0c-9.019196 0 -16.330688 -7.3115044 -16.330688 -16.330708z" fill-rule="nonzero"></path><path stroke="#000000" stroke-width="1.0" stroke-linejoin="round" stroke-linecap="butt" d="m318.77954 35.569553l0 0c0 -9.019201 7.311493 -16.330708 16.330688 -16.330708l0 0c4.3311768 0 8.484955 1.7205505 11.547546 4.7831535c3.062622 3.062601 4.7831726 7.216381 4.7831726 11.547554l0 0c0 9.019203 -7.3115234 16.330708 -16.330719 16.330708l0 0c-9.019196 0 -16.330688 -7.3115044 -16.330688 -16.330708z" fill-rule="nonzero"></path><path fill="#000000" fill-opacity="0.0" d="m320.5285 19.238846l32.661438 0l0 32.661415l-32.661438 0z" fill-rule="nonzero"></path><path fill="#ffffff" d="m335.30975 38.478844l-0.9375 0l-0.140625 -4.375l-0.046875 -1.6875l-0.328125 0.984375l-1.046875 2.796875l-0.65625 0l-0.984375 -2.6875l-0.328125 -1.09375l-0.015625 1.765625l-0.125 4.296875l-0.90625 0l0.34375 -7.015623l1.125 0l0.953125 2.640623l0.296875 0.890625l0.296875 -0.890625l1.0 -2.640623l1.171875 0l0.328125 7.015623zm5.311981 -2.25q0 0.53125 -0.234375 0.96875q-0.21875 0.421875 -0.609375 0.734375q-0.390625 0.296875 -0.9375 0.46875q-0.53125 0.171875 -1.15625 0.171875q-0.15625 0 -0.34375 -0.015625q-0.171875 0 -0.359375 -0.015625q-0.171875 -0.015625 -0.34375 -0.03125q-0.15625 -0.015625 -0.296875 -0.03125l0 -0.84375q0.296875 0.0625 0.671875 0.09375q0.375 0.03125 0.75 0.03125q0.421875 0 0.765625 -0.09375q0.34375 -0.109375 0.578125 -0.296875q0.25 -0.1875 0.375 -0.453125q0.140625 -0.28125 0.140625 -0.625q0 -0.65625 -0.46875 -0.953125q-0.46875 -0.296875 -1.359375 -0.296875l-1.328125 0l0 -3.578123l3.78125 0l0 0.8124981l-2.90625 0l0 1.96875l0.625 0q0.5 0 0.96875 0.09375q0.484375 0.09375 0.859375 0.328125q0.375 0.21875 0.59375 0.609375q0.234375 0.375 0.234375 0.953125z" fill-rule="nonzero"></path><path fill="#666666" d="m358.10236 35.569553l0 0c0 -9.019201 7.3115234 -16.330708 16.330719 -16.330708l0 0c4.3311768 0 8.484955 1.7205505 11.547546 4.7831535c3.0625916 3.062601 4.7831726 7.216381 4.7831726 11.547554l0 0c0 9.019203 -7.3115234 16.330708 -16.330719 16.330708l0 0c-9.019196 0 -16.330719 -7.3115044 -16.330719 -16.330708z" fill-rule="nonzero"></path><path stroke="#000000" stroke-width="1.0" stroke-linejoin="round" stroke-linecap="butt" d="m358.10236 35.569553l0 0c0 -9.019201 7.3115234 -16.330708 16.330719 -16.330708l0 0c4.3311768 0 8.484955 1.7205505 11.547546 4.7831535c3.0625916 3.062601 4.7831726 7.216381 4.7831726 11.547554l0 0c0 9.019203 -7.3115234 16.330708 -16.330719 16.330708l0 0c-9.019196 0 -16.330719 -7.3115044 -16.330719 -16.330708z" fill-rule="nonzero"></path><path fill="#000000" fill-opacity="0.0" d="m359.85135 19.238846l32.661407 0l0 32.661415l-32.661407 0z" fill-rule="nonzero"></path><path fill="#ffffff" d="m374.6326 38.478844l-0.9375 0l-0.140625 -4.375l-0.046875 -1.6875l-0.328125 0.984375l-1.046875 2.796875l-0.65625 0l-0.984375 -2.6875l-0.328125 -1.09375l-0.015625 1.765625l-0.125 4.296875l-0.90625 0l0.34375 -7.015623l1.125 0l0.953125 2.640623l0.296875 0.890625l0.296875 -0.890625l1.0 -2.640623l1.171875 0l0.328125 7.015623zm5.577606 -2.21875q0 0.484375 -0.171875 0.90625q-0.171875 0.421875 -0.5 0.734375q-0.328125 0.3125 -0.78125 0.5q-0.453125 0.171875 -1.0 0.171875q-0.578125 0 -1.03125 -0.1875q-0.4375 -0.1875 -0.75 -0.5625q-0.296875 -0.390625 -0.453125 -0.96875q-0.15625 -0.59375 -0.15625 -1.390625q0 -0.53125 0.0625 -1.03125q0.078125 -0.515625 0.234375 -0.953125q0.171875 -0.453125 0.4375 -0.8125q0.265625 -0.375 0.65625 -0.640625q0.40625 -0.2656231 0.953125 -0.4062481q0.546875 -0.15625 1.265625 -0.15625l0.6875 0l0 0.8124981l-0.75 0q-0.625 0 -1.09375 0.15625q-0.46875 0.140625 -0.78125 0.421875q-0.296875 0.265625 -0.46875 0.65625q-0.171875 0.390625 -0.203125 0.859375l-0.03125 0.21875q0.34375 -0.1875 0.78125 -0.3125q0.453125 -0.125 0.96875 -0.125q0.53125 0 0.921875 0.15625q0.40625 0.15625 0.671875 0.4375q0.265625 0.28125 0.390625 0.671875q0.140625 0.375 0.140625 0.84375zm-0.984375 0.046875q0 -0.3125 -0.078125 -0.578125q-0.078125 -0.265625 -0.25 -0.4375q-0.15625 -0.1875 -0.40625 -0.28125q-0.25 -0.09375 -0.609375 -0.09375q-0.203125 0 -0.421875 0.046875q-0.203125 0.03125 -0.40625 0.09375q-0.203125 0.0625 -0.390625 0.15625q-0.171875 0.078125 -0.328125 0.171875q0 0.703125 0.09375 1.171875q0.109375 0.453125 0.296875 0.734375q0.1875 0.28125 0.46875 0.40625q0.28125 0.109375 0.640625 0.109375q0.3125 0 0.5625 -0.09375q0.25 -0.109375 0.4375 -0.296875q0.1875 -0.1875 0.28125 -0.46875q0.109375 -0.28125 0.109375 -0.640625z" fill-rule="nonzero"></path><path fill="#000000" fill-opacity="0.0" d="m271.8768 78.70544l64.724396 0l0 22.740158l-64.724396 0z" fill-rule="nonzero"></path><path fill="#666666" d="m285.23618 95.38544l-0.75 0l-0.359375 -1.109375l-2.125 0l-0.359375 1.109375l-0.71875 0l1.6875 -5.109375l0.953125 0l1.671875 5.109375zm-1.3125 -1.734375l-0.859375 -2.734375l-0.859375 2.734375l1.71875 0zm5.1953125 1.734375l-2.9375 0l0 -5.109375l0.71875 0l0 4.515625l2.21875 0l0 0.59375zm4.4453125 -1.390625q0 0.375 -0.15625 0.65625q-0.140625 0.265625 -0.40625 0.453125q-0.265625 0.171875 -0.640625 0.265625q-0.359375 0.09375 -0.8125 0.09375q-0.203125 0 -0.40625 -0.015625q-0.203125 -0.015625 -0.390625 -0.046875q-0.1875 -0.03125 -0.359375 -0.0625q-0.15625 -0.03125 -0.28125 -0.0625l0 -0.671875q0.296875 0.109375 0.65625 0.171875q0.359375 0.0625 0.828125 0.0625q0.34375 0 0.578125 -0.046875q0.234375 -0.0625 0.375 -0.15625q0.15625 -0.109375 0.21875 -0.25q0.078125 -0.15625 0.078125 -0.34375q0 -0.203125 -0.125 -0.34375q-0.109375 -0.15625 -0.296875 -0.265625q-0.1875 -0.125 -0.4375 -0.21875q-0.234375 -0.09375 -0.484375 -0.1875q-0.25 -0.109375 -0.484375 -0.21875q-0.234375 -0.125 -0.421875 -0.28125q-0.1875 -0.171875 -0.3125 -0.390625q-0.109375 -0.21875 -0.109375 -0.515625q0 -0.265625 0.109375 -0.515625q0.109375 -0.265625 0.328125 -0.453125q0.234375 -0.203125 0.59375 -0.3125q0.375 -0.125 0.875 -0.125q0.125 0 0.265625 0.015625q0.15625 0 0.3125 0.03125q0.15625 0.015625 0.296875 0.046875q0.15625 0.015625 0.28125 0.046875l0 0.625q-0.296875 -0.078125 -0.59375 -0.125q-0.296875 -0.046875 -0.578125 -0.046875q-0.609375 0 -0.890625 0.203125q-0.28125 0.203125 -0.28125 0.53125q0 0.203125 0.109375 0.359375q0.125 0.140625 0.3125 0.265625q0.1875 0.109375 0.421875 0.21875q0.25 0.09375 0.5 0.203125q0.25 0.09375 0.484375 0.21875q0.25 0.109375 0.4375 0.28125q0.1875 0.15625 0.296875 0.390625q0.109375 0.21875 0.109375 0.515625zm4.8671875 1.390625l-0.75 0l-0.359375 -1.109375l-2.125 0l-0.359375 1.109375l-0.71875 0l1.6875 -5.109375l0.953125 0l1.671875 5.109375zm-1.3125 -1.734375l-0.859375 -2.734375l-0.859375 2.734375l1.71875 0zm9.640625 1.546875q-0.609375 0.25 -1.28125 0.25q-1.09375 0 -1.671875 -0.640625q-0.578125 -0.65625 -0.578125 -1.921875q0 -0.609375 0.15625 -1.109375q0.171875 -0.5 0.46875 -0.84375q0.296875 -0.34375 0.71875 -0.53125q0.421875 -0.1875 0.9375 -0.1875q0.359375 0 0.65625 0.0625q0.3125 0.0625 0.59375 0.1875l0 0.6875q-0.28125 -0.15625 -0.578125 -0.234375q-0.296875 -0.078125 -0.640625 -0.078125q-0.359375 0 -0.65625 0.140625q-0.296875 0.125 -0.5 0.390625q-0.203125 0.25 -0.3125 0.625q-0.109375 0.359375 -0.109375 0.828125q0 1.0 0.40625 1.5q0.40625 0.5 1.1875 0.5q0.328125 0 0.625 -0.078125q0.296875 -0.078125 0.578125 -0.203125l0 0.65625zm9.265625 0.1875l-0.75 0l-0.359375 -1.109375l-2.125 0l-0.359375 1.109375l-0.71875 0l1.6875 -5.109375l0.953125 0l1.671875 5.109375zm-1.3125 -1.734375l-0.859375 -2.734375l-0.859375 2.734375l1.71875 0zm5.3203125 -1.8125q0 0.3125 -0.125 0.625q-0.109375 0.296875 -0.359375 0.546875q-0.234375 0.234375 -0.625 0.390625q-0.375 0.15625 -0.90625 0.15625l-0.640625 0l0 1.828125l-0.6875 0l0 -5.109375l1.4375 0q0.375 0 0.71875 0.09375q0.34375 0.078125 0.609375 0.265625q0.265625 0.1875 0.421875 0.484375q0.15625 0.296875 0.15625 0.71875zm-0.71875 0.03125q0 -0.484375 -0.328125 -0.75q-0.3125 -0.265625 -0.890625 -0.265625l-0.71875 0l0 2.109375l0.65625 0q0.609375 0 0.9375 -0.265625q0.34375 -0.28125 0.34375 -0.828125zm2.9921875 -1.0l-1.171875 0l0 -0.59375l3.0625 0l0 0.59375l-1.1875 0l0 3.921875l1.1875 0l0 0.59375l-3.0625 0l0 -0.59375l1.171875 0l0 -3.921875z" fill-rule="nonzero"></path><path fill="#000000" fill-opacity="0.0" d="m187.72441 111.63517l0 37.322838" fill-rule="nonzero"></path><path stroke="#000000" stroke-width="1.0" stroke-linejoin="round" stroke-linecap="butt" d="m187.72441 111.63517l0 37.322838" fill-rule="nonzero"></path><path fill="#000000" fill-opacity="0.0" d="m208.86876 130.29659l-20.566925 0" fill-rule="nonzero"></path><path stroke="#000000" stroke-width="1.0" stroke-linejoin="round" stroke-linecap="butt" d="m208.86876 130.29659l-20.566925 0" fill-rule="nonzero"></path><path fill="#000000" fill-opacity="0.0" d="m360.28085 111.63517l0 37.322838" fill-rule="nonzero"></path><path stroke="#000000" stroke-width="1.0" stroke-linejoin="round" stroke-linecap="butt" d="m360.28085 111.63517l0 37.322838" fill-rule="nonzero"></path><path fill="#000000" fill-opacity="0.0" d="m360.86877 130.29659l-21.7323 0" fill-rule="nonzero"></path><path stroke="#000000" stroke-width="1.0" stroke-linejoin="round" stroke-linecap="butt" d="m360.86877 130.29659l-21.7323 0" fill-rule="nonzero"></path><path fill="#000000" fill-opacity="0.0" d="m166.56955 111.63517l0 37.322838" fill-rule="nonzero"></path><path stroke="#000000" stroke-width="1.0" stroke-linejoin="round" stroke-linecap="butt" d="m166.56955 111.63517l0 37.322838" fill-rule="nonzero"></path><path fill="#000000" fill-opacity="0.0" d="m166.57973 130.29659l-77.13385 0" fill-rule="nonzero"></path><path stroke="#000000" stroke-width="1.0" stroke-linejoin="round" stroke-linecap="butt" d="m166.57973 130.29659l-77.13385 0" fill-rule="nonzero"></path><path fill="#000000" fill-opacity="0.0" d="m157.4096 198.48103l0 -130.26773l42.708664 0l0 130.26773z" fill-rule="nonzero"></path><path fill="#666666" d="m172.30836 162.35107q0.421875 0 0.765625 0.125q0.34375 0.125 0.59375 0.359375q0.234375 0.21875 0.375 0.5625q0.125 0.328125 0.125 0.765625q0 0.46875 -0.125 0.8125q-0.140625 0.328125 -0.359375 0.53125q-0.234375 0.203125 -0.546875 0.3125q-0.328125 0.09375 -0.71875 0.09375l-3.4375 0l0 -0.703125l3.375 0q0.3125 0 0.546875 -0.046875q0.21875 -0.0625 0.375 -0.1875q0.140625 -0.140625 0.21875 -0.34375q0.078125 -0.203125 0.078125 -0.5q0 -0.546875 -0.3125 -0.8125q-0.328125 -0.265625 -0.90625 -0.265625l-3.375 0l0 -0.703125l3.328125 0zm1.78125 -4.3515625l0 0.90625l-3.1875 1.484375l-1.015625 0.4375l2.5625 0l1.640625 0l0 0.640625l-5.109375 0l0 -0.890625l3.015625 -1.421875l1.171875 -0.515625l-2.734375 0l-1.453125 0l0 -0.640625l5.109375 0zm-4.515625 -2.3046875l0 1.171875l-0.59375 0l0 -3.0625l0.59375 0l0 1.1875l3.921875 0l0 -1.1875l0.59375 0l0 3.0625l-0.59375 0l0 -1.171875l-3.921875 0zm4.515625 -6.8671875l0 0.890625l-2.0625 1.234375l2.0625 1.25l0 0.859375l-2.609375 -1.6875l-2.5 1.5625l0 -0.828125l1.921875 -1.171875l-1.921875 -1.171875l0 -0.796875l2.46875 1.5625l2.640625 -1.703125zm-4.515625 -8.546875l0 1.515625l4.515625 0l0 0.703125l-4.515625 0l0 1.5l-0.59375 0l0 -3.71875l0.59375 0zm4.328125 -4.2265625q0.25 0.609375 0.25 1.28125q0 1.09375 -0.640625 1.671875q-0.65625 0.578125 -1.921875 0.578125q-0.609375 0 -1.109375 -0.15625q-0.5 -0.171875 -0.84375 -0.46875q-0.34375 -0.296875 -0.53125 -0.71875q-0.1875 -0.421875 -0.1875 -0.9375q0 -0.359375 0.0625 -0.65625q0.0625 -0.3125 0.1875 -0.59375l0.6875 0q-0.15625 0.28125 -0.234375 0.578125q-0.078125 0.296875 -0.078125 0.640625q0 0.359375 0.140625 0.65625q0.125 0.296875 0.390625 0.5q0.25 0.203125 0.625 0.3125q0.359375 0.109375 0.828125 0.109375q1.0 0 1.5 -0.40625q0.5 -0.40625 0.5 -1.1875q0 -0.328125 -0.078125 -0.625q-0.078125 -0.296875 -0.203125 -0.578125l0.65625 0zm-3.359375 -4.4765625q0.3125 0 0.625 0.125q0.296875 0.109375 0.546875 0.359375q0.234375 0.234375 0.390625 0.625q0.15625 0.375 0.15625 0.90625l0 0.640625l1.828125 0l0 0.6875l-5.109375 0l0 -1.4375q0 -0.375 0.09375 -0.71875q0.078125 -0.34375 0.265625 -0.609375q0.1875 -0.265625 0.484375 -0.421875q0.296875 -0.15625 0.71875 -0.15625zm0.03125 0.71875q-0.484375 0 -0.75 0.328125q-0.265625 0.3125 -0.265625 0.890625l0 0.71875l2.109375 0l0 -0.65625q0 -0.609375 -0.265625 -0.9375q-0.28125 -0.34375 -0.828125 -0.34375zm2.125 -9.4375q0.375 0 0.65625 0.15625q0.265625 0.140625 0.453125 0.40625q0.171875 0.265625 0.265625 0.640625q0.09375 0.359375 0.09375 0.8125q0 0.203125 -0.015625 0.40625q-0.015625 0.203125 -0.046875 0.390625q-0.03125 0.1875 -0.0625 0.359375q-0.03125 0.15625 -0.0625 0.28125l-0.671875 0q0.109375 -0.296875 0.171875 -0.65625q0.0625 -0.359375 0.0625 -0.828125q0 -0.34375 -0.046875 -0.578125q-0.0625 -0.234375 -0.15625 -0.375q-0.109375 -0.15625 -0.25 -0.21875q-0.15625 -0.078125 -0.34375 -0.078125q-0.203125 0 -0.34375 0.125q-0.15625 0.109375 -0.265625 0.296875q-0.125 0.1875 -0.21875 0.4375q-0.09375 0.234375 -0.1875 0.484375q-0.109375 0.25 -0.21875 0.484375q-0.125 0.234375 -0.28125 0.421875q-0.171875 0.1875 -0.390625 0.3125q-0.21875 0.109375 -0.515625 0.109375q-0.265625 0 -0.515625 -0.109375q-0.265625 -0.109375 -0.453125 -0.328125q-0.203125 -0.234375 -0.3125 -0.59375q-0.125 -0.375 -0.125 -0.875q0 -0.125 0.015625 -0.265625q0 -0.15625 0.03125 -0.3125q0.015625 -0.15625 0.046875 -0.296875q0.015625 -0.15625 0.046875 -0.28125l0.625 0q-0.078125 0.296875 -0.125 0.59375q-0.046875 0.296875 -0.046875 0.578125q0 0.609375 0.203125 0.890625q0.203125 0.28125 0.53125 0.28125q0.203125 0 0.359375 -0.109375q0.140625 -0.125 0.265625 -0.3125q0.109375 -0.1875 0.21875 -0.421875q0.09375 -0.25 0.203125 -0.5q0.09375 -0.25 0.21875 -0.484375q0.109375 -0.25 0.28125 -0.4375q0.15625 -0.1875 0.390625 -0.296875q0.21875 -0.109375 0.515625 -0.109375zm-0.609375 -4.5546875q0.46875 0 0.84375 0.140625q0.375 0.125 0.65625 0.375q0.265625 0.234375 0.421875 0.578125q0.15625 0.34375 0.15625 0.796875q0 0.421875 -0.125 0.75q-0.140625 0.328125 -0.390625 0.5625q-0.265625 0.234375 -0.640625 0.359375q-0.375 0.125 -0.859375 0.125q-0.453125 0 -0.828125 -0.125q-0.390625 -0.140625 -0.65625 -0.375q-0.265625 -0.25 -0.421875 -0.59375q-0.15625 -0.34375 -0.15625 -0.78125q0 -0.421875 0.140625 -0.75q0.125 -0.34375 0.375 -0.578125q0.25 -0.234375 0.625 -0.359375q0.375 -0.125 0.859375 -0.125zm0.03125 0.703125q-0.359375 0 -0.625 0.078125q-0.28125 0.078125 -0.453125 0.234375q-0.1875 0.140625 -0.28125 0.359375q-0.09375 0.203125 -0.09375 0.46875q0 0.3125 0.125 0.53125q0.125 0.203125 0.328125 0.34375q0.1875 0.140625 0.453125 0.203125q0.265625 0.0625 0.546875 0.0625q0.375 0 0.65625 -0.078125q0.265625 -0.078125 0.453125 -0.21875q0.171875 -0.15625 0.265625 -0.359375q0.09375 -0.21875 0.09375 -0.484375q0 -0.296875 -0.125 -0.515625q-0.125 -0.21875 -0.3125 -0.359375q-0.203125 -0.140625 -0.46875 -0.203125q-0.265625 -0.0625 -0.5625 -0.0625zm1.828125 -4.7265625q0.09375 0.265625 0.140625 0.546875q0.0625 0.28125 0.0625 0.578125q0 0.921875 -0.5 1.421875q-0.515625 0.5 -1.484375 0.5q-0.46875 0 -0.84375 -0.140625q-0.375 -0.140625 -0.640625 -0.40625q-0.28125 -0.265625 -0.421875 -0.625q-0.15625 -0.359375 -0.15625 -0.796875q0 -0.3125 0.046875 -0.578125q0.046875 -0.265625 0.140625 -0.5l0.65625 0q-0.140625 0.25 -0.203125 0.515625q-0.0625 0.265625 -0.0625 0.546875q0 0.265625 0.109375 0.5q0.09375 0.21875 0.28125 0.40625q0.1875 0.171875 0.46875 0.28125q0.265625 0.09375 0.59375 0.09375q0.71875 0 1.078125 -0.34375q0.34375 -0.34375 0.34375 -0.96875q0 -0.265625 -0.0625 -0.53125q-0.0625 -0.265625 -0.1875 -0.5l0.640625 0zm0.140625 -4.8828125l0 0.9375l-2.109375 1.828125l2.109375 0l0 0.671875l-5.515625 0l0 -0.671875l3.390625 0l-1.796875 -1.765625l0 -0.890625l1.8125 1.828125l2.109375 -1.9375zm-2.171875 -4.1796875q0.140625 0 0.25 0q0.09375 0 0.171875 0.015625l0 2.75q0.609375 0 0.9375 -0.328125q0.3125 -0.34375 0.3125 -0.96875q0 -0.171875 -0.015625 -0.34375q-0.015625 -0.171875 -0.03125 -0.328125q-0.03125 -0.171875 -0.046875 -0.3125q-0.03125 -0.15625 -0.078125 -0.28125l0.5625 0q0.078125 0.28125 0.125 0.640625q0.0625 0.34375 0.0625 0.71875q0 0.5 -0.140625 0.875q-0.140625 0.359375 -0.390625 0.59375q-0.265625 0.21875 -0.640625 0.34375q-0.390625 0.109375 -0.859375 0.109375q-0.421875 0 -0.78125 -0.125q-0.375 -0.125 -0.65625 -0.34375q-0.28125 -0.234375 -0.4375 -0.5625q-0.171875 -0.328125 -0.171875 -0.75q0 -0.421875 0.140625 -0.734375q0.125 -0.3125 0.359375 -0.53125q0.234375 -0.21875 0.578125 -0.328125q0.328125 -0.109375 0.75 -0.109375zm-0.09375 0.703125q-0.265625 -0.015625 -0.484375 0.046875q-0.21875 0.0625 -0.375 0.203125q-0.15625 0.125 -0.234375 0.328125q-0.09375 0.1875 -0.09375 0.453125q0 0.21875 0.09375 0.40625q0.078125 0.171875 0.234375 0.3125q0.15625 0.125 0.375 0.21875q0.21875 0.078125 0.484375 0.09375l0 -2.0625zm2.203125 -4.9453125q0.0625 0.21875 0.09375 0.46875q0.03125 0.25 0.03125 0.5q0 0.734375 -0.328125 1.109375q-0.34375 0.359375 -1.046875 0.359375l-2.046875 0l0 1.09375l-0.5625 0l0 -1.09375l-1.078125 0l-0.171875 -0.6875l1.25 0l0 -1.75l0.5625 0l0 1.75l2.0 0q0.421875 0 0.640625 -0.21875q0.203125 -0.21875 0.203125 -0.65625q0 -0.1875 -0.03125 -0.40625q-0.03125 -0.234375 -0.09375 -0.46875l0.578125 0z" fill-rule="nonzero"></path><path fill="#666666" d="m178.57399 182.34717l6.359375 2.6875l0 0.640625l-6.359375 -2.671875l0 -0.65625zm5.453125 -4.3984375q0.0625 0.21875 0.09375 0.46875q0.03125 0.25 0.03125 0.5q0 0.734375 -0.328125 1.109375q-0.34375 0.359375 -1.046875 0.359375l-2.046875 0l0 1.09375l-0.5625 0l0 -1.09375l-1.078125 0l-0.171875 -0.6875l1.25 0l0 -1.75l0.5625 0l0 1.75l2.0 0q0.421875 0 0.640625 -0.21875q0.203125 -0.21875 0.203125 -0.65625q0 -0.1875 -0.03125 -0.40625q-0.03125 -0.234375 -0.09375 -0.46875l0.578125 0zm0.0625 -4.0390625l-2.8125 0q-0.1875 0 -0.296875 0.015625q-0.125 0.015625 -0.1875 0.046875q-0.078125 0.015625 -0.09375 0.0625q-0.03125 0.046875 -0.03125 0.109375q0 0.078125 0.046875 0.15625q0.046875 0.0625 0.15625 0.140625q0.09375 0.078125 0.265625 0.171875q0.171875 0.078125 0.4375 0.203125l2.515625 0l0 0.625l-2.75 0q-0.203125 0 -0.328125 0.015625q-0.140625 0.015625 -0.21875 0.046875q-0.078125 0.03125 -0.09375 0.078125q-0.03125 0.046875 -0.03125 0.109375q0 0.0625 0.046875 0.125q0.03125 0.0625 0.140625 0.140625q0.09375 0.078125 0.265625 0.171875q0.171875 0.09375 0.453125 0.21875l2.515625 0l0 0.625l-3.921875 0l0 -0.515625l0.75 -0.03125q-0.234375 -0.09375 -0.390625 -0.1875q-0.15625 -0.109375 -0.25 -0.203125q-0.09375 -0.109375 -0.140625 -0.21875q-0.046875 -0.109375 -0.046875 -0.25q0 -0.328125 0.21875 -0.484375q0.203125 -0.171875 0.640625 -0.171875q-0.203125 -0.09375 -0.359375 -0.171875q-0.171875 -0.09375 -0.265625 -0.1875q-0.109375 -0.109375 -0.171875 -0.234375q-0.0625 -0.125 -0.0625 -0.296875q0 -0.734375 1.140625 -0.734375l2.859375 0l0 0.625zm-2.03125 -4.9609375q0.515625 0 0.90625 0.15625q0.390625 0.140625 0.65625 0.40625q0.25 0.25 0.390625 0.609375q0.125 0.34375 0.125 0.75q0 0.1875 -0.015625 0.375q-0.015625 0.1875 -0.078125 0.375l1.65625 0l0 0.6875l-5.53125 0l0 -0.609375l0.65625 -0.046875q-0.40625 -0.28125 -0.5625 -0.609375q-0.171875 -0.34375 -0.171875 -0.734375q0 -0.328125 0.140625 -0.578125q0.140625 -0.265625 0.40625 -0.4375q0.25 -0.171875 0.609375 -0.25q0.359375 -0.09375 0.8125 -0.09375zm0.03125 0.703125q-0.3125 0 -0.5625 0.046875q-0.265625 0.046875 -0.4375 0.140625q-0.1875 0.09375 -0.296875 0.25q-0.109375 0.15625 -0.109375 0.359375q0 0.125 0.046875 0.265625q0.046875 0.125 0.140625 0.28125q0.09375 0.140625 0.25 0.296875q0.15625 0.15625 0.390625 0.328125l1.90625 0q0.078125 -0.1875 0.125 -0.390625q0.046875 -0.203125 0.046875 -0.40625q0 -0.546875 -0.375 -0.859375q-0.375 -0.3125 -1.125 -0.3125zm-3.515625 -4.8984375l6.359375 2.6875l0 0.640625l-6.359375 -2.671875l0 -0.65625zm5.515625 -4.0390625l-2.8125 0q-0.1875 0 -0.296875 0.015625q-0.125 0.015625 -0.1875 0.046875q-0.078125 0.015625 -0.09375 0.0625q-0.03125 0.046875 -0.03125 0.109375q0 0.078125 0.046875 0.15625q0.046875 0.0625 0.15625 0.140625q0.09375 0.078125 0.265625 0.171875q0.171875 0.078125 0.4375 0.203125l2.515625 0l0 0.625l-2.75 0q-0.203125 0 -0.328125 0.015625q-0.140625 0.015625 -0.21875 0.046875q-0.078125 0.03125 -0.09375 0.078125q-0.03125 0.046875 -0.03125 0.109375q0 0.0625 0.046875 0.125q0.03125 0.0625 0.140625 0.140625q0.09375 0.078125 0.265625 0.171875q0.171875 0.09375 0.453125 0.21875l2.515625 0l0 0.625l-3.921875 0l0 -0.515625l0.75 -0.03125q-0.234375 -0.09375 -0.390625 -0.1875q-0.15625 -0.109375 -0.25 -0.203125q-0.09375 -0.109375 -0.140625 -0.21875q-0.046875 -0.109375 -0.046875 -0.25q0 -0.328125 0.21875 -0.484375q0.203125 -0.171875 0.640625 -0.171875q-0.203125 -0.09375 -0.359375 -0.171875q-0.171875 -0.09375 -0.265625 -0.1875q-0.109375 -0.109375 -0.171875 -0.234375q-0.0625 -0.125 -0.0625 -0.296875q0 -0.734375 1.140625 -0.734375l2.859375 0l0 0.625zm-3.359375 -2.9453125l0 1.171875l-0.5625 0l0 -1.859375l3.359375 0l0 -1.15625l0.5625 0l0 3.140625l-0.5625 0l0 -1.296875l-2.796875 0zm-2.203125 -0.234375q0 -0.109375 0.046875 -0.203125q0.03125 -0.109375 0.109375 -0.171875q0.0625 -0.078125 0.171875 -0.109375q0.09375 -0.046875 0.203125 -0.046875q0.109375 0 0.203125 0.046875q0.09375 0.03125 0.171875 0.109375q0.078125 0.0625 0.125 0.171875q0.03125 0.09375 0.03125 0.203125q0 0.109375 -0.03125 0.21875q-0.046875 0.09375 -0.125 0.171875q-0.078125 0.0625 -0.171875 0.109375q-0.09375 0.03125 -0.203125 0.03125q-0.109375 0 -0.203125 -0.03125q-0.109375 -0.046875 -0.171875 -0.109375q-0.078125 -0.078125 -0.109375 -0.171875q-0.046875 -0.109375 -0.046875 -0.21875zm5.421875 -5.8671875q0.09375 0.265625 0.140625 0.546875q0.0625 0.28125 0.0625 0.578125q0 0.921875 -0.5 1.421875q-0.515625 0.5 -1.484375 0.5q-0.46875 0 -0.84375 -0.140625q-0.375 -0.140625 -0.640625 -0.40625q-0.28125 -0.265625 -0.421875 -0.625q-0.15625 -0.359375 -0.15625 -0.796875q0 -0.3125 0.046875 -0.578125q0.046875 -0.265625 0.140625 -0.5l0.65625 0q-0.140625 0.25 -0.203125 0.515625q-0.0625 0.265625 -0.0625 0.546875q0 0.265625 0.109375 0.5q0.09375 0.21875 0.28125 0.40625q0.1875 0.171875 0.46875 0.28125q0.265625 0.09375 0.59375 0.09375q0.71875 0 1.078125 -0.34375q0.34375 -0.34375 0.34375 -0.96875q0 -0.265625 -0.0625 -0.53125q-0.0625 -0.265625 -0.1875 -0.5l0.640625 0zm-3.78125 -1.5078125l0 -0.625l0.71875 -0.015625q-0.421875 -0.359375 -0.609375 -0.6875q-0.1875 -0.34375 -0.1875 -0.6875q0 -0.609375 0.40625 -0.921875q0.390625 -0.3125 1.171875 -0.296875l0 0.6875q-0.515625 0 -0.75 0.15625q-0.234375 0.15625 -0.234375 0.46875q0 0.140625 0.046875 0.28125q0.046875 0.140625 0.15625 0.296875q0.109375 0.140625 0.28125 0.3125q0.15625 0.15625 0.40625 0.34375l2.515625 0l0 0.6875l-3.921875 0zm1.921875 -7.6640625q0.46875 0 0.84375 0.140625q0.375 0.125 0.65625 0.375q0.265625 0.234375 0.421875 0.578125q0.15625 0.34375 0.15625 0.796875q0 0.421875 -0.125 0.75q-0.140625 0.328125 -0.390625 0.5625q-0.265625 0.234375 -0.640625 0.359375q-0.375 0.125 -0.859375 0.125q-0.453125 0 -0.828125 -0.125q-0.390625 -0.140625 -0.65625 -0.375q-0.265625 -0.25 -0.421875 -0.59375q-0.15625 -0.34375 -0.15625 -0.78125q0 -0.421875 0.140625 -0.75q0.125 -0.34375 0.375 -0.578125q0.25 -0.234375 0.625 -0.359375q0.375 -0.125 0.859375 -0.125zm0.03125 0.703125q-0.359375 0 -0.625 0.078125q-0.28125 0.078125 -0.453125 0.234375q-0.1875 0.140625 -0.28125 0.359375q-0.09375 0.203125 -0.09375 0.46875q0 0.3125 0.125 0.53125q0.125 0.203125 0.328125 0.34375q0.1875 0.140625 0.453125 0.203125q0.265625 0.0625 0.546875 0.0625q0.375 0 0.65625 -0.078125q0.265625 -0.078125 0.453125 -0.21875q0.171875 -0.15625 0.265625 -0.359375q0.09375 -0.21875 0.09375 -0.484375q0 -0.296875 -0.125 -0.515625q-0.125 -0.21875 -0.3125 -0.359375q-0.203125 -0.140625 -0.46875 -0.203125q-0.265625 -0.0625 -0.5625 -0.0625zm0.890625 -4.7890625q0.21875 0 0.390625 0.078125q0.15625 0.0625 0.28125 0.1875q0.125 0.125 0.21875 0.28125q0.078125 0.15625 0.140625 0.34375q0.0625 0.171875 0.09375 0.375q0.03125 0.1875 0.03125 0.375q0 0.390625 -0.046875 0.734375q-0.03125 0.328125 -0.109375 0.640625l-0.625 0q0.09375 -0.34375 0.15625 -0.671875q0.046875 -0.34375 0.046875 -0.6875q0 -0.484375 -0.125 -0.71875q-0.140625 -0.234375 -0.390625 -0.234375q-0.109375 0 -0.1875 0.046875q-0.09375 0.03125 -0.15625 0.125q-0.078125 0.09375 -0.15625 0.3125q-0.09375 0.203125 -0.203125 0.546875q-0.078125 0.265625 -0.171875 0.5q-0.09375 0.21875 -0.234375 0.390625q-0.140625 0.15625 -0.3125 0.25q-0.1875 0.09375 -0.4375 0.09375q-0.171875 0 -0.359375 -0.078125q-0.203125 -0.078125 -0.359375 -0.25q-0.171875 -0.1875 -0.28125 -0.5q-0.125 -0.3125 -0.125 -0.78125q0 -0.234375 0.03125 -0.515625q0.03125 -0.28125 0.09375 -0.578125l0.59375 0q-0.078125 0.3125 -0.109375 0.609375q-0.03125 0.28125 -0.03125 0.484375q0 0.265625 0.046875 0.4375q0.03125 0.171875 0.09375 0.28125q0.0625 0.109375 0.15625 0.15625q0.09375 0.046875 0.203125 0.046875q0.109375 0 0.203125 -0.046875q0.078125 -0.046875 0.15625 -0.15625q0.078125 -0.109375 0.15625 -0.296875q0.078125 -0.203125 0.171875 -0.53125q0.109375 -0.34375 0.21875 -0.578125q0.109375 -0.25 0.25 -0.390625q0.125 -0.15625 0.296875 -0.21875q0.171875 -0.0625 0.390625 -0.0625zm-0.734375 -4.0390625l0 2.34375l-0.640625 0l0 -2.34375l0.640625 0zm1.8125 -4.1640625l-0.53125 0.015625q0.3125 0.3125 0.46875 0.640625q0.140625 0.328125 0.140625 0.703125q0 0.328125 -0.09375 0.578125q-0.09375 0.234375 -0.234375 0.390625q-0.15625 0.140625 -0.359375 0.21875q-0.203125 0.078125 -0.4375 0.078125q-0.59375 0 -0.921875 -0.4375q-0.34375 -0.453125 -0.34375 -1.3125l0 -0.8125l-0.34375 0q-0.34375 0 -0.546875 0.234375q-0.21875 0.21875 -0.21875 0.671875q0 0.328125 0.078125 0.65625q0.078125 0.328125 0.21875 0.671875l-0.625 0q-0.046875 -0.140625 -0.078125 -0.296875q-0.046875 -0.15625 -0.078125 -0.328125q-0.046875 -0.171875 -0.0625 -0.359375q-0.03125 -0.203125 -0.03125 -0.390625q0 -0.359375 0.078125 -0.640625q0.078125 -0.296875 0.25 -0.484375q0.15625 -0.203125 0.40625 -0.296875q0.234375 -0.109375 0.5625 -0.109375l2.703125 0l0 0.609375zm-1.78125 0.0625l0 0.875q0 0.25 0.046875 0.4375q0.046875 0.171875 0.140625 0.296875q0.09375 0.109375 0.234375 0.171875q0.125 0.0625 0.28125 0.0625q0.125 0 0.234375 -0.03125q0.09375 -0.046875 0.171875 -0.125q0.078125 -0.078125 0.125 -0.203125q0.046875 -0.125 0.046875 -0.296875q0 -0.234375 -0.140625 -0.53125q-0.140625 -0.3125 -0.453125 -0.65625l-0.6875 0zm1.78125 -5.1015625l0 0.609375l-0.640625 0.03125q0.203125 0.171875 0.34375 0.328125q0.140625 0.15625 0.21875 0.3125q0.078125 0.15625 0.109375 0.3125q0.046875 0.15625 0.046875 0.34375q0 0.59375 -0.359375 0.90625q-0.359375 0.3125 -1.078125 0.3125l-2.5625 0l0 -0.6875l2.5 0q0.90625 0 0.90625 -0.671875q0 -0.125 -0.03125 -0.234375q-0.046875 -0.125 -0.125 -0.25q-0.09375 -0.140625 -0.25 -0.28125q-0.15625 -0.15625 -0.40625 -0.34375l-2.59375 0l0 -0.6875l3.921875 0zm-1.875 -1.0390625q-0.5 0 -0.890625 -0.140625q-0.390625 -0.140625 -0.65625 -0.390625q-0.265625 -0.25 -0.40625 -0.59375q-0.140625 -0.359375 -0.140625 -0.796875q0 -0.1875 0.03125 -0.359375q0.015625 -0.1875 0.0625 -0.375l-1.640625 0l0 -0.671875l5.515625 0l0 0.609375l-0.75 0.015625q0.421875 0.28125 0.625 0.625q0.203125 0.328125 0.203125 0.71875q0 0.328125 -0.140625 0.59375q-0.15625 0.25 -0.40625 0.421875q-0.25 0.171875 -0.609375 0.265625q-0.359375 0.078125 -0.796875 0.078125zm-0.046875 -0.703125q0.703125 0 1.0625 -0.203125q0.34375 -0.21875 0.34375 -0.59375q0 -0.265625 -0.21875 -0.546875q-0.234375 -0.28125 -0.6875 -0.609375l-1.828125 0q-0.078125 0.171875 -0.109375 0.375q-0.046875 0.203125 -0.046875 0.40625q0 0.546875 0.359375 0.859375q0.359375 0.3125 1.125 0.3125zm-1.4375 -5.2421875l0 1.171875l-0.5625 0l0 -1.859375l3.359375 0l0 -1.15625l0.5625 0l0 3.140625l-0.5625 0l0 -1.296875l-2.796875 0zm-2.203125 -0.234375q0 -0.109375 0.046875 -0.203125q0.03125 -0.109375 0.109375 -0.171875q0.0625 -0.078125 0.171875 -0.109375q0.09375 -0.046875 0.203125 -0.046875q0.109375 0 0.203125 0.046875q0.09375 0.03125 0.171875 0.109375q0.078125 0.0625 0.125 0.171875q0.03125 0.09375 0.03125 0.203125q0 0.109375 -0.03125 0.21875q-0.046875 0.09375 -0.125 0.171875q-0.078125 0.0625 -0.171875 0.109375q-0.09375 0.03125 -0.203125 0.03125q-0.109375 0 -0.203125 -0.03125q-0.109375 -0.046875 -0.171875 -0.109375q-0.078125 -0.078125 -0.109375 -0.171875q-0.046875 -0.109375 -0.046875 -0.21875zm3.5625 -6.2421875q0.46875 0 0.84375 0.140625q0.375 0.125 0.65625 0.375q0.265625 0.234375 0.421875 0.578125q0.15625 0.34375 0.15625 0.796875q0 0.421875 -0.125 0.75q-0.140625 0.328125 -0.390625 0.5625q-0.265625 0.234375 -0.640625 0.359375q-0.375 0.125 -0.859375 0.125q-0.453125 0 -0.828125 -0.125q-0.390625 -0.140625 -0.65625 -0.375q-0.265625 -0.25 -0.421875 -0.59375q-0.15625 -0.34375 -0.15625 -0.78125q0 -0.421875 0.140625 -0.75q0.125 -0.34375 0.375 -0.578125q0.25 -0.234375 0.625 -0.359375q0.375 -0.125 0.859375 -0.125zm0.03125 0.703125q-0.359375 0 -0.625 0.078125q-0.28125 0.078125 -0.453125 0.234375q-0.1875 0.140625 -0.28125 0.359375q-0.09375 0.203125 -0.09375 0.46875q0 0.3125 0.125 0.53125q0.125 0.203125 0.328125 0.34375q0.1875 0.140625 0.453125 0.203125q0.265625 0.0625 0.546875 0.0625q0.375 0 0.65625 -0.078125q0.265625 -0.078125 0.453125 -0.21875q0.171875 -0.15625 0.265625 -0.359375q0.09375 -0.21875 0.09375 -0.484375q0 -0.296875 -0.125 -0.515625q-0.125 -0.21875 -0.3125 -0.359375q-0.203125 -0.140625 -0.46875 -0.203125q-0.265625 -0.0625 -0.5625 -0.0625zm0.734375 -3.2265625q0 -0.125 0.0625 -0.25q0.046875 -0.125 0.140625 -0.203125q0.078125 -0.09375 0.203125 -0.140625q0.109375 -0.046875 0.25 -0.046875q0.140625 0 0.265625 0.046875q0.109375 0.046875 0.203125 0.140625q0.078125 0.078125 0.125 0.203125q0.0625 0.125 0.0625 0.25q0 0.140625 -0.0625 0.265625q-0.046875 0.109375 -0.125 0.203125q-0.09375 0.078125 -0.203125 0.140625q-0.125 0.046875 -0.265625 0.046875q-0.140625 0 -0.25 -0.046875q-0.125 -0.0625 -0.203125 -0.140625q-0.09375 -0.09375 -0.140625 -0.203125q-0.0625 -0.125 -0.0625 -0.265625zm0.15625 -5.9609375q0.21875 0 0.390625 0.078125q0.15625 0.0625 0.28125 0.1875q0.125 0.125 0.21875 0.28125q0.078125 0.15625 0.140625 0.34375q0.0625 0.171875 0.09375 0.375q0.03125 0.1875 0.03125 0.375q0 0.390625 -0.046875 0.734375q-0.03125 0.328125 -0.109375 0.640625l-0.625 0q0.09375 -0.34375 0.15625 -0.671875q0.046875 -0.34375 0.046875 -0.6875q0 -0.484375 -0.125 -0.71875q-0.140625 -0.234375 -0.390625 -0.234375q-0.109375 0 -0.1875 0.046875q-0.09375 0.03125 -0.15625 0.125q-0.078125 0.09375 -0.15625 0.3125q-0.09375 0.203125 -0.203125 0.546875q-0.078125 0.265625 -0.171875 0.5q-0.09375 0.21875 -0.234375 0.390625q-0.140625 0.15625 -0.3125 0.25q-0.1875 0.09375 -0.4375 0.09375q-0.171875 0 -0.359375 -0.078125q-0.203125 -0.078125 -0.359375 -0.25q-0.171875 -0.1875 -0.28125 -0.5q-0.125 -0.3125 -0.125 -0.78125q0 -0.234375 0.03125 -0.515625q0.03125 -0.28125 0.09375 -0.578125l0.59375 0q-0.078125 0.3125 -0.109375 0.609375q-0.03125 0.28125 -0.03125 0.484375q0 0.265625 0.046875 0.4375q0.03125 0.171875 0.09375 0.28125q0.0625 0.109375 0.15625 0.15625q0.09375 0.046875 0.203125 0.046875q0.109375 0 0.203125 -0.046875q0.078125 -0.046875 0.15625 -0.15625q0.078125 -0.109375 0.15625 -0.296875q0.078125 -0.203125 0.171875 -0.53125q0.109375 -0.34375 0.21875 -0.578125q0.109375 -0.25 0.25 -0.390625q0.125 -0.15625 0.296875 -0.21875q0.171875 -0.0625 0.390625 -0.0625zm-0.921875 -4.7109375q0.46875 0 0.84375 0.140625q0.375 0.125 0.65625 0.375q0.265625 0.234375 0.421875 0.578125q0.15625 0.34375 0.15625 0.796875q0 0.421875 -0.125 0.75q-0.140625 0.328125 -0.390625 0.5625q-0.265625 0.234375 -0.640625 0.359375q-0.375 0.125 -0.859375 0.125q-0.453125 0 -0.828125 -0.125q-0.390625 -0.140625 -0.65625 -0.375q-0.265625 -0.25 -0.421875 -0.59375q-0.15625 -0.34375 -0.15625 -0.78125q0 -0.421875 0.140625 -0.75q0.125 -0.34375 0.375 -0.578125q0.25 -0.234375 0.625 -0.359375q0.375 -0.125 0.859375 -0.125zm0.03125 0.703125q-0.359375 0 -0.625 0.078125q-0.28125 0.078125 -0.453125 0.234375q-0.1875 0.140625 -0.28125 0.359375q-0.09375 0.203125 -0.09375 0.46875q0 0.3125 0.125 0.53125q0.125 0.203125 0.328125 0.34375q0.1875 0.140625 0.453125 0.203125q0.265625 0.0625 0.546875 0.0625q0.375 0 0.65625 -0.078125q0.265625 -0.078125 0.453125 -0.21875q0.171875 -0.15625 0.265625 -0.359375q0.09375 -0.21875 0.09375 -0.484375q0 -0.296875 -0.125 -0.515625q-0.125 -0.21875 -0.3125 -0.359375q-0.203125 -0.140625 -0.46875 -0.203125q-0.265625 -0.0625 -0.5625 -0.0625zm1.828125 -4.7265625q0.09375 0.265625 0.140625 0.546875q0.0625 0.28125 0.0625 0.578125q0 0.921875 -0.5 1.421875q-0.515625 0.5 -1.484375 0.5q-0.46875 0 -0.84375 -0.140625q-0.375 -0.140625 -0.640625 -0.40625q-0.28125 -0.265625 -0.421875 -0.625q-0.15625 -0.359375 -0.15625 -0.796875q0 -0.3125 0.046875 -0.578125q0.046875 -0.265625 0.140625 -0.5l0.65625 0q-0.140625 0.25 -0.203125 0.515625q-0.0625 0.265625 -0.0625 0.546875q0 0.265625 0.109375 0.5q0.09375 0.21875 0.28125 0.40625q0.1875 0.171875 0.46875 0.28125q0.265625 0.09375 0.59375 0.09375q0.71875 0 1.078125 -0.34375q0.34375 -0.34375 0.34375 -0.96875q0 -0.265625 -0.0625 -0.53125q-0.0625 -0.265625 -0.1875 -0.5l0.640625 0zm0.140625 -4.8828125l0 0.9375l-2.109375 1.828125l2.109375 0l0 0.671875l-5.515625 0l0 -0.671875l3.390625 0l-1.796875 -1.765625l0 -0.890625l1.8125 1.828125l2.109375 -1.9375zm-2.171875 -4.1796875q0.140625 0 0.25 0q0.09375 0 0.171875 0.015625l0 2.75q0.609375 0 0.9375 -0.328125q0.3125 -0.34375 0.3125 -0.96875q0 -0.171875 -0.015625 -0.34375q-0.015625 -0.171875 -0.03125 -0.328125q-0.03125 -0.171875 -0.046875 -0.3125q-0.03125 -0.15625 -0.078125 -0.28125l0.5625 0q0.078125 0.28125 0.125 0.640625q0.0625 0.34375 0.0625 0.71875q0 0.5 -0.140625 0.875q-0.140625 0.359375 -0.390625 0.59375q-0.265625 0.21875 -0.640625 0.34375q-0.390625 0.109375 -0.859375 0.109375q-0.421875 0 -0.78125 -0.125q-0.375 -0.125 -0.65625 -0.34375q-0.28125 -0.234375 -0.4375 -0.5625q-0.171875 -0.328125 -0.171875 -0.75q0 -0.421875 0.140625 -0.734375q0.125 -0.3125 0.359375 -0.53125q0.234375 -0.21875 0.578125 -0.328125q0.328125 -0.109375 0.75 -0.109375zm-0.09375 0.703125q-0.265625 -0.015625 -0.484375 0.046875q-0.21875 0.0625 -0.375 0.203125q-0.15625 0.125 -0.234375 0.328125q-0.09375 0.1875 -0.09375 0.453125q0 0.21875 0.09375 0.40625q0.078125 0.171875 0.234375 0.3125q0.15625 0.125 0.375 0.21875q0.21875 0.078125 0.484375 0.09375l0 -2.0625zm2.203125 -4.9453125q0.0625 0.21875 0.09375 0.46875q0.03125 0.25 0.03125 0.5q0 0.734375 -0.328125 1.109375q-0.34375 0.359375 -1.046875 0.359375l-2.046875 0l0 1.09375l-0.5625 0l0 -1.09375l-1.078125 0l-0.171875 -0.6875l1.25 0l0 -1.75l0.5625 0l0 1.75l2.0 0q0.421875 0 0.640625 -0.21875q0.203125 -0.21875 0.203125 -0.65625q0 -0.1875 -0.03125 -0.40625q-0.03125 -0.234375 -0.09375 -0.46875l0.578125 0z" fill-rule="nonzero"></path><path fill="#000000" fill-opacity="0.0" d="m89.7812 130.00787l0 29.16536" fill-rule="nonzero"></path><path stroke="#000000" stroke-width="1.0" stroke-linejoin="round" stroke-linecap="butt" d="m89.7812 130.00787l0 29.16536" fill-rule="nonzero"></path><path fill="#000000" fill-opacity="0.0" d="m24.648294 159.17323l130.26772 0l0 36.72441l-130.26772 0z" fill-rule="nonzero"></path><path stroke="#000000" stroke-width="1.0" stroke-linejoin="round" stroke-linecap="butt" d="m24.648294 159.17323l130.26772 0l0 36.72441l-130.26772 0z" fill-rule="nonzero"></path><path fill="#000000" d="m63.110275 175.55168l-1.140625 7.84375l-1.640625 0l-1.140625 -3.28125l-0.21875 -0.796875l-0.265625 0.84375l-1.078125 3.234375l-1.609375 0l-1.125 -7.84375l1.328125 0l0.65625 5.328125l0.140625 1.1875l0.328125 -1.046875l1.140625 -3.515625l0.984375 0l1.21875 3.46875l0.359375 1.046875l0.109375 -1.109375l0.609375 -5.359375l1.34375 0zm7.75 5.703125q0 0.40625 -0.140625 0.734375q-0.140625 0.328125 -0.390625 0.59375q-0.234375 0.25 -0.5625 0.4375q-0.3125 0.171875 -0.6875 0.296875q-0.359375 0.109375 -0.75 0.15625q-0.375 0.0625 -0.734375 0.0625q-0.796875 0 -1.46875 -0.078125q-0.671875 -0.0625 -1.3125 -0.21875l0 -1.25q0.6875 0.1875 1.359375 0.296875q0.6875 0.09375 1.359375 0.09375q0.984375 0 1.453125 -0.265625q0.46875 -0.265625 0.46875 -0.75q0 -0.21875 -0.078125 -0.375q-0.078125 -0.171875 -0.28125 -0.328125q-0.1875 -0.15625 -0.59375 -0.3125q-0.40625 -0.171875 -1.125 -0.375q-0.53125 -0.15625 -0.984375 -0.359375q-0.4375 -0.203125 -0.765625 -0.46875q-0.328125 -0.28125 -0.515625 -0.640625q-0.1875 -0.375 -0.1875 -0.875q0 -0.328125 0.140625 -0.71875q0.15625 -0.390625 0.515625 -0.71875q0.375 -0.34375 1.0 -0.5625q0.625 -0.21875 1.5625 -0.21875q0.46875 0 1.03125 0.046875q0.5625 0.046875 1.171875 0.171875l0 1.21875q-0.640625 -0.15625 -1.21875 -0.234375q-0.578125 -0.078125 -1.0 -0.078125q-0.5 0 -0.859375 0.078125q-0.34375 0.078125 -0.5625 0.21875q-0.203125 0.140625 -0.296875 0.328125q-0.09375 0.171875 -0.09375 0.390625q0 0.203125 0.078125 0.375q0.078125 0.171875 0.296875 0.34375q0.234375 0.15625 0.625 0.3125q0.40625 0.15625 1.046875 0.34375q0.6875 0.203125 1.15625 0.4375q0.484375 0.21875 0.78125 0.5q0.296875 0.265625 0.421875 0.609375q0.140625 0.34375 0.140625 0.78125zm8.0625 -1.484375l-4.671875 0l0 -1.28125l4.671875 0l0 1.28125zm8.359375 3.625l-0.03125 -1.0625q-0.640625 0.640625 -1.3125 0.921875q-0.65625 0.28125 -1.375 0.28125q-0.671875 0 -1.15625 -0.171875q-0.46875 -0.171875 -0.78125 -0.46875q-0.3125 -0.3125 -0.453125 -0.71875q-0.140625 -0.40625 -0.140625 -0.875q0 -1.1875 0.875 -1.84375q0.875 -0.671875 2.59375 -0.671875l1.625 0l0 -0.6875q0 -0.703125 -0.453125 -1.109375q-0.4375 -0.421875 -1.34375 -0.421875q-0.671875 0 -1.3125 0.15625q-0.640625 0.140625 -1.328125 0.40625l0 -1.21875q0.25 -0.09375 0.5625 -0.1875q0.328125 -0.09375 0.671875 -0.15625q0.359375 -0.078125 0.734375 -0.109375q0.390625 -0.046875 0.78125 -0.046875q0.703125 0 1.265625 0.15625q0.578125 0.15625 0.96875 0.484375q0.40625 0.3125 0.609375 0.796875q0.21875 0.484375 0.21875 1.140625l0 5.40625l-1.21875 0zm-0.15625 -3.578125l-1.71875 0q-0.515625 0 -0.890625 0.109375q-0.359375 0.09375 -0.59375 0.28125q-0.234375 0.1875 -0.34375 0.453125q-0.109375 0.265625 -0.109375 0.59375q0 0.21875 0.0625 0.4375q0.078125 0.203125 0.234375 0.359375q0.15625 0.15625 0.40625 0.25q0.25 0.09375 0.609375 0.09375q0.46875 0 1.0625 -0.28125q0.609375 -0.28125 1.28125 -0.90625l0 -1.390625zm10.21875 3.578125l-1.21875 0l-0.046875 -1.265625q-0.359375 0.40625 -0.671875 0.671875q-0.3125 0.265625 -0.625 0.4375q-0.3125 0.171875 -0.640625 0.234375q-0.3125 0.0625 -0.65625 0.0625q-1.21875 0 -1.84375 -0.703125q-0.609375 -0.71875 -0.609375 -2.15625l0 -5.125l1.359375 0l0 5.015625q0 1.796875 1.359375 1.796875q0.25 0 0.484375 -0.0625q0.25 -0.078125 0.5 -0.265625q0.265625 -0.1875 0.5625 -0.5q0.3125 -0.3125 0.6875 -0.78125l0 -5.203125l1.359375 0l0 7.84375zm2.09375 -3.765625q0 -1.0 0.265625 -1.765625q0.28125 -0.78125 0.78125 -1.3125q0.5 -0.546875 1.203125 -0.8125q0.71875 -0.28125 1.578125 -0.28125q0.375 0 0.734375 0.046875q0.375 0.046875 0.71875 0.140625l0 -3.296875l1.375 0l0 11.046875l-1.21875 0l-0.046875 -1.484375q-0.578125 0.828125 -1.25 1.234375q-0.65625 0.390625 -1.421875 0.390625q-0.671875 0 -1.1875 -0.28125q-0.515625 -0.28125 -0.859375 -0.796875q-0.328125 -0.515625 -0.5 -1.234375q-0.171875 -0.71875 -0.171875 -1.59375zm1.390625 -0.078125q0 1.421875 0.40625 2.125q0.421875 0.6875 1.1875 0.6875q0.515625 0 1.09375 -0.453125q0.578125 -0.46875 1.203125 -1.375l0 -3.640625q-0.328125 -0.15625 -0.734375 -0.234375q-0.40625 -0.078125 -0.8125 -0.078125q-1.109375 0 -1.734375 0.71875q-0.609375 0.71875 -0.609375 2.25zm10.46875 -2.875l-2.3125 0l0 -1.125l3.6875 0l0 6.703125l2.34375 0l0 1.140625l-6.296875 0l0 -1.140625l2.578125 0l0 -5.578125zm0.484375 -4.421875q0.21875 0 0.40625 0.09375q0.203125 0.078125 0.34375 0.234375q0.15625 0.140625 0.234375 0.328125q0.078125 0.1875 0.078125 0.421875q0 0.21875 -0.078125 0.421875q-0.078125 0.1875 -0.234375 0.34375q-0.140625 0.140625 -0.34375 0.21875q-0.1875 0.078125 -0.40625 0.078125q-0.234375 0 -0.4375 -0.078125q-0.1875 -0.078125 -0.328125 -0.21875q-0.140625 -0.15625 -0.234375 -0.34375q-0.078125 -0.203125 -0.078125 -0.421875q0 -0.234375 0.078125 -0.421875q0.09375 -0.1875 0.234375 -0.328125q0.140625 -0.15625 0.328125 -0.234375q0.203125 -0.09375 0.4375 -0.09375zm12.46875 7.15625q0 0.90625 -0.265625 1.671875q-0.25 0.765625 -0.734375 1.3125q-0.484375 0.53125 -1.1875 0.84375q-0.6875 0.296875 -1.5625 0.296875q-0.84375 0 -1.515625 -0.265625q-0.671875 -0.265625 -1.140625 -0.765625q-0.453125 -0.515625 -0.703125 -1.265625q-0.25 -0.75 -0.25 -1.71875q0 -0.921875 0.25 -1.671875q0.265625 -0.75 0.75 -1.296875q0.484375 -0.546875 1.171875 -0.84375q0.703125 -0.296875 1.59375 -0.296875q0.84375 0 1.5 0.265625q0.671875 0.25 1.140625 0.765625q0.46875 0.5 0.703125 1.25q0.25 0.75 0.25 1.71875zm-1.390625 0.0625q0 -0.734375 -0.15625 -1.265625q-0.15625 -0.546875 -0.453125 -0.90625q-0.296875 -0.375 -0.734375 -0.546875q-0.421875 -0.1875 -0.9375 -0.1875q-0.609375 0 -1.046875 0.234375q-0.4375 0.234375 -0.71875 0.640625q-0.265625 0.390625 -0.40625 0.921875q-0.125 0.53125 -0.125 1.109375q0 0.71875 0.15625 1.265625q0.171875 0.546875 0.46875 0.921875q0.296875 0.359375 0.71875 0.546875q0.421875 0.171875 0.953125 0.171875q0.609375 0 1.03125 -0.234375q0.4375 -0.234375 0.71875 -0.625q0.28125 -0.40625 0.40625 -0.9375q0.125 -0.53125 0.125 -1.109375z" fill-rule="nonzero"></path><path fill="#000000" fill-opacity="0.0" d="m381.4252 111.63517l0 37.322838" fill-rule="nonzero"></path><path stroke="#000000" stroke-width="1.0" stroke-linejoin="round" stroke-linecap="butt" d="m381.4252 111.63517l0 37.322838" fill-rule="nonzero"></path><path fill="#000000" fill-opacity="0.0" d="m464.5118 130.29659l-82.519684 0" fill-rule="nonzero"></path><path stroke="#000000" stroke-width="1.0" stroke-linejoin="round" stroke-linecap="butt" d="m464.5118 130.29659l-82.519684 0" fill-rule="nonzero"></path><path fill="#000000" fill-opacity="0.0" d="m390.81952 70.485565l0 135.62204l-35.307068 0l0 -135.62204z" fill-rule="nonzero"></path><path fill="#666666" d="m375.92078 109.29268q-0.421875 0 -0.765625 -0.125q-0.34375 -0.125 -0.59375 -0.359375q-0.234375 -0.21875 -0.375 -0.5625q-0.125 -0.328125 -0.125 -0.765625q0 -0.46875 0.125 -0.8125q0.140625 -0.328125 0.359375 -0.53125q0.234375 -0.203125 0.546875 -0.3125q0.328125 -0.09375 0.71875 -0.09375l3.4375 0l0 0.703125l-3.375 0q-0.3125 0 -0.546875 0.046875q-0.21875 0.0625 -0.375 0.1875q-0.140625 0.140625 -0.21875 0.34375q-0.078125 0.203125 -0.078125 0.5q0 0.546875 0.3125 0.8125q0.328125 0.265625 0.90625 0.265625l3.375 0l0 0.703125l-3.328125 0zm-1.78125 4.3515625l0 -0.90625l3.1875 -1.484375l1.015625 -0.4375l-2.5625 0l-1.640625 0l0 -0.640625l5.109375 0l0 0.890625l-3.015625 1.421875l-1.171875 0.515625l2.734375 0l1.453125 0l0 0.640625l-5.109375 0zm4.515625 2.3046875l0 -1.171875l0.59375 0l0 3.0625l-0.59375 0l0 -1.1875l-3.921875 0l0 1.1875l-0.59375 0l0 -3.0625l0.59375 0l0 1.171875l3.921875 0zm-4.515625 6.8671875l0 -0.890625l2.0625 -1.234375l-2.0625 -1.25l0 -0.859375l2.609375 1.6875l2.5 -1.5625l0 0.828125l-1.921875 1.171875l1.921875 1.171875l0 0.796875l-2.46875 -1.5625l-2.640625 1.703125zm4.515625 8.546875l0 -1.515625l-4.515625 0l0 -0.703125l4.515625 0l0 -1.5l0.59375 0l0 3.71875l-0.59375 0zm-4.328125 4.2265625q-0.25 -0.609375 -0.25 -1.28125q0 -1.09375 0.640625 -1.671875q0.65625 -0.578125 1.921875 -0.578125q0.609375 0 1.109375 0.15625q0.5 0.171875 0.84375 0.46875q0.34375 0.296875 0.53125 0.71875q0.1875 0.421875 0.1875 0.9375q0 0.359375 -0.0625 0.65625q-0.0625 0.3125 -0.1875 0.59375l-0.6875 0q0.15625 -0.28125 0.234375 -0.578125q0.078125 -0.296875 0.078125 -0.640625q0 -0.359375 -0.140625 -0.65625q-0.125 -0.296875 -0.390625 -0.5q-0.25 -0.203125 -0.625 -0.3125q-0.359375 -0.109375 -0.828125 -0.109375q-1.0 0 -1.5 0.40625q-0.5 0.40625 -0.5 1.1875q0 0.328125 0.078125 0.625q0.078125 0.296875 0.203125 0.578125l-0.65625 0zm3.359375 4.4765625q-0.3125 0 -0.625 -0.125q-0.296875 -0.109375 -0.546875 -0.359375q-0.234375 -0.234375 -0.390625 -0.625q-0.15625 -0.375 -0.15625 -0.90625l0 -0.640625l-1.828125 0l0 -0.6875l5.109375 0l0 1.4375q0 0.375 -0.09375 0.71875q-0.078125 0.34375 -0.265625 0.609375q-0.1875 0.265625 -0.484375 0.421875q-0.296875 0.15625 -0.71875 0.15625zm-0.03125 -0.71875q0.484375 0 0.75 -0.328125q0.265625 -0.3125 0.265625 -0.890625l0 -0.71875l-2.109375 0l0 0.65625q0 0.609375 0.265625 0.9375q0.28125 0.34375 0.828125 0.34375zm-2.125 9.4375q-0.375 0 -0.65625 -0.15625q-0.265625 -0.140625 -0.453125 -0.40625q-0.171875 -0.265625 -0.265625 -0.640625q-0.09375 -0.359375 -0.09375 -0.8125q0 -0.203125 0.015625 -0.40625q0.015625 -0.203125 0.046875 -0.390625q0.03125 -0.1875 0.0625 -0.359375q0.03125 -0.15625 0.0625 -0.28125l0.671875 0q-0.109375 0.296875 -0.171875 0.65625q-0.0625 0.359375 -0.0625 0.828125q0 0.34375 0.046875 0.578125q0.0625 0.234375 0.15625 0.375q0.109375 0.15625 0.25 0.21875q0.15625 0.078125 0.34375 0.078125q0.203125 0 0.34375 -0.125q0.15625 -0.109375 0.265625 -0.296875q0.125 -0.1875 0.21875 -0.4375q0.09375 -0.234375 0.1875 -0.484375q0.109375 -0.25 0.21875 -0.484375q0.125 -0.234375 0.28125 -0.421875q0.171875 -0.1875 0.390625 -0.3125q0.21875 -0.109375 0.515625 -0.109375q0.265625 0 0.515625 0.109375q0.265625 0.109375 0.453125 0.328125q0.203125 0.234375 0.3125 0.59375q0.125 0.375 0.125 0.875q0 0.125 -0.015625 0.265625q0 0.15625 -0.03125 0.3125q-0.015625 0.15625 -0.046875 0.296875q-0.015625 0.15625 -0.046875 0.28125l-0.625 0q0.078125 -0.296875 0.125 -0.59375q0.046875 -0.296875 0.046875 -0.578125q0 -0.609375 -0.203125 -0.890625q-0.203125 -0.28125 -0.53125 -0.28125q-0.203125 0 -0.359375 0.109375q-0.140625 0.125 -0.265625 0.3125q-0.109375 0.1875 -0.21875 0.421875q-0.09375 0.25 -0.203125 0.5q-0.09375 0.25 -0.21875 0.484375q-0.109375 0.25 -0.28125 0.4375q-0.15625 0.1875 -0.390625 0.296875q-0.21875 0.109375 -0.515625 0.109375zm0.609375 4.5546875q-0.46875 0 -0.84375 -0.140625q-0.375 -0.125 -0.65625 -0.375q-0.265625 -0.234375 -0.421875 -0.578125q-0.15625 -0.34375 -0.15625 -0.796875q0 -0.421875 0.125 -0.75q0.140625 -0.328125 0.390625 -0.5625q0.265625 -0.234375 0.640625 -0.359375q0.375 -0.125 0.859375 -0.125q0.453125 0 0.828125 0.125q0.390625 0.140625 0.65625 0.375q0.265625 0.25 0.421875 0.59375q0.15625 0.34375 0.15625 0.78125q0 0.421875 -0.140625 0.75q-0.125 0.34375 -0.375 0.578125q-0.25 0.234375 -0.625 0.359375q-0.375 0.125 -0.859375 0.125zm-0.03125 -0.703125q0.359375 0 0.625 -0.078125q0.28125 -0.078125 0.453125 -0.234375q0.1875 -0.140625 0.28125 -0.359375q0.09375 -0.203125 0.09375 -0.46875q0 -0.3125 -0.125 -0.53125q-0.125 -0.203125 -0.328125 -0.34375q-0.1875 -0.140625 -0.453125 -0.203125q-0.265625 -0.0625 -0.546875 -0.0625q-0.375 0 -0.65625 0.078125q-0.265625 0.078125 -0.453125 0.21875q-0.171875 0.15625 -0.265625 0.359375q-0.09375 0.21875 -0.09375 0.484375q0 0.296875 0.125 0.515625q0.125 0.21875 0.3125 0.359375q0.203125 0.140625 0.46875 0.203125q0.265625 0.0625 0.5625 0.0625zm-1.828125 4.7265625q-0.09375 -0.265625 -0.140625 -0.546875q-0.0625 -0.28125 -0.0625 -0.578125q0 -0.921875 0.5 -1.421875q0.515625 -0.5 1.484375 -0.5q0.46875 0 0.84375 0.140625q0.375 0.140625 0.640625 0.40625q0.28125 0.265625 0.421875 0.625q0.15625 0.359375 0.15625 0.796875q0 0.3125 -0.046875 0.578125q-0.046875 0.265625 -0.140625 0.5l-0.65625 0q0.140625 -0.25 0.203125 -0.515625q0.0625 -0.265625 0.0625 -0.546875q0 -0.265625 -0.109375 -0.5q-0.09375 -0.21875 -0.28125 -0.40625q-0.1875 -0.171875 -0.46875 -0.28125q-0.265625 -0.09375 -0.59375 -0.09375q-0.71875 0 -1.078125 0.34375q-0.34375 0.34375 -0.34375 0.96875q0 0.265625 0.0625 0.53125q0.0625 0.265625 0.1875 0.5l-0.640625 0zm-0.140625 4.8828125l0 -0.9375l2.109375 -1.828125l-2.109375 0l0 -0.671875l5.515625 0l0 0.671875l-3.390625 0l1.796875 1.765625l0 0.890625l-1.8125 -1.828125l-2.109375 1.9375zm2.171875 4.1796875q-0.140625 0 -0.25 0q-0.09375 0 -0.171875 -0.015625l0 -2.75q-0.609375 0 -0.9375 0.328125q-0.3125 0.34375 -0.3125 0.96875q0 0.171875 0.015625 0.34375q0.015625 0.171875 0.03125 0.328125q0.03125 0.171875 0.046875 0.3125q0.03125 0.15625 0.078125 0.28125l-0.5625 0q-0.078125 -0.28125 -0.125 -0.640625q-0.0625 -0.34375 -0.0625 -0.71875q0 -0.5 0.140625 -0.875q0.140625 -0.359375 0.390625 -0.59375q0.265625 -0.21875 0.640625 -0.34375q0.390625 -0.109375 0.859375 -0.109375q0.421875 0 0.78125 0.125q0.375 0.125 0.65625 0.34375q0.28125 0.234375 0.4375 0.5625q0.171875 0.328125 0.171875 0.75q0 0.421875 -0.140625 0.734375q-0.125 0.3125 -0.359375 0.53125q-0.234375 0.21875 -0.578125 0.328125q-0.328125 0.109375 -0.75 0.109375zm0.09375 -0.703125q0.265625 0.015625 0.484375 -0.046875q0.21875 -0.0625 0.375 -0.203125q0.15625 -0.125 0.234375 -0.328125q0.09375 -0.1875 0.09375 -0.453125q0 -0.21875 -0.09375 -0.40625q-0.078125 -0.171875 -0.234375 -0.3125q-0.15625 -0.125 -0.375 -0.21875q-0.21875 -0.078125 -0.484375 -0.09375l0 2.0625zm-2.203125 4.9453125q-0.0625 -0.21875 -0.09375 -0.46875q-0.03125 -0.25 -0.03125 -0.5q0 -0.734375 0.328125 -1.109375q0.34375 -0.359375 1.046875 -0.359375l2.046875 0l0 -1.09375l0.5625 0l0 1.09375l1.078125 0l0.171875 0.6875l-1.25 0l0 1.75l-0.5625 0l0 -1.75l-2.0 0q-0.421875 0 -0.640625 0.21875q-0.203125 0.21875 -0.203125 0.65625q0 0.1875 0.03125 0.40625q0.03125 0.234375 0.09375 0.46875l-0.578125 0z" fill-rule="nonzero"></path><path fill="#666666" d="m369.65515 84.89815l-6.359375 -2.6875l0 -0.640625l6.359375 2.671875l0 0.65625zm-5.453125 4.3984375q-0.0625 -0.21875 -0.09375 -0.46875q-0.03125 -0.25 -0.03125 -0.5q0 -0.734375 0.328125 -1.109375q0.34375 -0.359375 1.046875 -0.359375l2.046875 0l0 -1.09375l0.5625 0l0 1.09375l1.078125 0l0.171875 0.6875l-1.25 0l0 1.75l-0.5625 0l0 -1.75l-2.0 0q-0.421875 0 -0.640625 0.21875q-0.203125 0.21875 -0.203125 0.65625q0 0.1875 0.03125 0.40625q0.03125 0.234375 0.09375 0.46875l-0.578125 0zm-0.0625 4.0390625l2.8125 0q0.1875 0 0.296875 -0.015625q0.125 -0.015625 0.1875 -0.046875q0.078125 -0.015625 0.09375 -0.0625q0.03125 -0.046875 0.03125 -0.109375q0 -0.078125 -0.046875 -0.15625q-0.046875 -0.0625 -0.15625 -0.140625q-0.09375 -0.078125 -0.265625 -0.171875q-0.171875 -0.078125 -0.4375 -0.203125l-2.515625 0l0 -0.625l2.75 0q0.203125 0 0.328125 -0.015625q0.140625 -0.015625 0.21875 -0.046875q0.078125 -0.03125 0.09375 -0.078125q0.03125 -0.046875 0.03125 -0.109375q0 -0.0625 -0.046875 -0.125q-0.03125 -0.0625 -0.140625 -0.140625q-0.09375 -0.078125 -0.265625 -0.171875q-0.171875 -0.09375 -0.453125 -0.21875l-2.515625 0l0 -0.625l3.921875 0l0 0.515625l-0.75 0.03125q0.234375 0.09375 0.390625 0.1875q0.15625 0.109375 0.25 0.203125q0.09375 0.109375 0.140625 0.21875q0.046875 0.109375 0.046875 0.25q0 0.328125 -0.21875 0.484375q-0.203125 0.171875 -0.640625 0.171875q0.203125 0.09375 0.359375 0.171875q0.171875 0.09375 0.265625 0.1875q0.109375 0.109375 0.171875 0.234375q0.0625 0.125 0.0625 0.296875q0 0.734375 -1.140625 0.734375l-2.859375 0l0 -0.625zm2.03125 4.9609375q-0.515625 0 -0.90625 -0.15625q-0.390625 -0.140625 -0.65625 -0.40625q-0.25 -0.25 -0.390625 -0.609375q-0.125 -0.34375 -0.125 -0.75q0 -0.1875 0.015625 -0.375q0.015625 -0.1875 0.078125 -0.375l-1.65625 0l0 -0.6875l5.53125 0l0 0.609375l-0.65625 0.046875q0.40625 0.28125 0.5625 0.609375q0.171875 0.34375 0.171875 0.734375q0 0.328125 -0.140625 0.578125q-0.140625 0.265625 -0.40625 0.4375q-0.25 0.171875 -0.609375 0.25q-0.359375 0.09375 -0.8125 0.09375zm-0.03125 -0.703125q0.3125 0 0.5625 -0.046875q0.265625 -0.046875 0.4375 -0.140625q0.1875 -0.09375 0.296875 -0.25q0.109375 -0.15625 0.109375 -0.359375q0 -0.125 -0.046875 -0.265625q-0.046875 -0.125 -0.140625 -0.28125q-0.09375 -0.140625 -0.25 -0.296875q-0.15625 -0.15625 -0.390625 -0.328125l-1.90625 0q-0.078125 0.1875 -0.125 0.390625q-0.046875 0.203125 -0.046875 0.40625q0 0.546875 0.375 0.859375q0.375 0.3125 1.125 0.3125zm3.515625 4.8984375l-6.359375 -2.6875l0 -0.640625l6.359375 2.671875l0 0.65625zm-5.515625 4.0390625l2.8125 0q0.1875 0 0.296875 -0.015625q0.125 -0.015625 0.1875 -0.046875q0.078125 -0.015625 0.09375 -0.0625q0.03125 -0.046875 0.03125 -0.109375q0 -0.078125 -0.046875 -0.15625q-0.046875 -0.0625 -0.15625 -0.140625q-0.09375 -0.078125 -0.265625 -0.171875q-0.171875 -0.078125 -0.4375 -0.203125l-2.515625 0l0 -0.625l2.75 0q0.203125 0 0.328125 -0.015625q0.140625 -0.015625 0.21875 -0.046875q0.078125 -0.03125 0.09375 -0.078125q0.03125 -0.046875 0.03125 -0.109375q0 -0.0625 -0.046875 -0.125q-0.03125 -0.0625 -0.140625 -0.140625q-0.09375 -0.078125 -0.265625 -0.171875q-0.171875 -0.09375 -0.453125 -0.21875l-2.515625 0l0 -0.625l3.921875 0l0 0.515625l-0.75 0.03125q0.234375 0.09375 0.390625 0.1875q0.15625 0.109375 0.25 0.203125q0.09375 0.109375 0.140625 0.21875q0.046875 0.109375 0.046875 0.25q0 0.328125 -0.21875 0.484375q-0.203125 0.171875 -0.640625 0.171875q0.203125 0.09375 0.359375 0.171875q0.171875 0.09375 0.265625 0.1875q0.109375 0.109375 0.171875 0.234375q0.0625 0.125 0.0625 0.296875q0 0.734375 -1.140625 0.734375l-2.859375 0l0 -0.625zm3.359375 2.9453125l0 -1.171875l0.5625 0l0 1.859375l-3.359375 0l0 1.15625l-0.5625 0l0 -3.140625l0.5625 0l0 1.296875l2.796875 0zm2.203125 0.234375q0 0.109375 -0.046875 0.203125q-0.03125 0.109375 -0.109375 0.171875q-0.0625 0.078125 -0.171875 0.109375q-0.09375 0.046875 -0.203125 0.046875q-0.109375 0 -0.203125 -0.046875q-0.09375 -0.03125 -0.171875 -0.109375q-0.078125 -0.0625 -0.125 -0.171875q-0.03125 -0.09375 -0.03125 -0.203125q0 -0.109375 0.03125 -0.21875q0.046875 -0.09375 0.125 -0.171875q0.078125 -0.0625 0.171875 -0.109375q0.09375 -0.03125 0.203125 -0.03125q0.109375 0 0.203125 0.03125q0.109375 0.046875 0.171875 0.109375q0.078125 0.078125 0.109375 0.171875q0.046875 0.109375 0.046875 0.21875zm-5.421875 5.8671875q-0.09375 -0.265625 -0.140625 -0.546875q-0.0625 -0.28125 -0.0625 -0.578125q0 -0.921875 0.5 -1.421875q0.515625 -0.5 1.484375 -0.5q0.46875 0 0.84375 0.140625q0.375 0.140625 0.640625 0.40625q0.28125 0.265625 0.421875 0.625q0.15625 0.359375 0.15625 0.796875q0 0.3125 -0.046875 0.578125q-0.046875 0.265625 -0.140625 0.5l-0.65625 0q0.140625 -0.25 0.203125 -0.515625q0.0625 -0.265625 0.0625 -0.546875q0 -0.265625 -0.109375 -0.5q-0.09375 -0.21875 -0.28125 -0.40625q-0.1875 -0.171875 -0.46875 -0.28125q-0.265625 -0.09375 -0.59375 -0.09375q-0.71875 0 -1.078125 0.34375q-0.34375 0.34375 -0.34375 0.96875q0 0.265625 0.0625 0.53125q0.0625 0.265625 0.1875 0.5l-0.640625 0zm3.78125 1.5078125l0 0.625l-0.71875 0.015625q0.421875 0.359375 0.609375 0.6875q0.1875 0.34375 0.1875 0.6875q0 0.609375 -0.40625 0.921875q-0.390625 0.3125 -1.171875 0.296875l0 -0.6875q0.515625 0 0.75 -0.15625q0.234375 -0.15625 0.234375 -0.46875q0 -0.140625 -0.046875 -0.28125q-0.046875 -0.140625 -0.15625 -0.296875q-0.109375 -0.140625 -0.28125 -0.3125q-0.15625 -0.15625 -0.40625 -0.34375l-2.515625 0l0 -0.6875l3.921875 0zm-1.921875 7.6640625q-0.46875 0 -0.84375 -0.140625q-0.375 -0.125 -0.65625 -0.375q-0.265625 -0.234375 -0.421875 -0.578125q-0.15625 -0.34375 -0.15625 -0.796875q0 -0.421875 0.125 -0.75q0.140625 -0.328125 0.390625 -0.5625q0.265625 -0.234375 0.640625 -0.359375q0.375 -0.125 0.859375 -0.125q0.453125 0 0.828125 0.125q0.390625 0.140625 0.65625 0.375q0.265625 0.25 0.421875 0.59375q0.15625 0.34375 0.15625 0.78125q0 0.421875 -0.140625 0.75q-0.125 0.34375 -0.375 0.578125q-0.25 0.234375 -0.625 0.359375q-0.375 0.125 -0.859375 0.125zm-0.03125 -0.703125q0.359375 0 0.625 -0.078125q0.28125 -0.078125 0.453125 -0.234375q0.1875 -0.140625 0.28125 -0.359375q0.09375 -0.203125 0.09375 -0.46875q0 -0.3125 -0.125 -0.53125q-0.125 -0.203125 -0.328125 -0.34375q-0.1875 -0.140625 -0.453125 -0.203125q-0.265625 -0.0625 -0.546875 -0.0625q-0.375 0 -0.65625 0.078125q-0.265625 0.078125 -0.453125 0.21875q-0.171875 0.15625 -0.265625 0.359375q-0.09375 0.21875 -0.09375 0.484375q0 0.296875 0.125 0.515625q0.125 0.21875 0.3125 0.359375q0.203125 0.140625 0.46875 0.203125q0.265625 0.0625 0.5625 0.0625zm-0.890625 4.7890625q-0.21875 0 -0.390625 -0.078125q-0.15625 -0.0625 -0.28125 -0.1875q-0.125 -0.125 -0.21875 -0.28125q-0.078125 -0.15625 -0.140625 -0.34375q-0.0625 -0.171875 -0.09375 -0.375q-0.03125 -0.1875 -0.03125 -0.375q0 -0.390625 0.046875 -0.734375q0.03125 -0.328125 0.109375 -0.640625l0.625 0q-0.09375 0.34375 -0.15625 0.671875q-0.046875 0.34375 -0.046875 0.6875q0 0.484375 0.125 0.71875q0.140625 0.234375 0.390625 0.234375q0.109375 0 0.1875 -0.046875q0.09375 -0.03125 0.15625 -0.125q0.078125 -0.09375 0.15625 -0.3125q0.09375 -0.203125 0.203125 -0.546875q0.078125 -0.265625 0.171875 -0.5q0.09375 -0.21875 0.234375 -0.390625q0.140625 -0.15625 0.3125 -0.25q0.1875 -0.09375 0.4375 -0.09375q0.171875 0 0.359375 0.078125q0.203125 0.078125 0.359375 0.25q0.171875 0.1875 0.28125 0.5q0.125 0.3125 0.125 0.78125q0 0.234375 -0.03125 0.515625q-0.03125 0.28125 -0.09375 0.578125l-0.59375 0q0.078125 -0.3125 0.109375 -0.609375q0.03125 -0.28125 0.03125 -0.484375q0 -0.265625 -0.046875 -0.4375q-0.03125 -0.171875 -0.09375 -0.28125q-0.0625 -0.109375 -0.15625 -0.15625q-0.09375 -0.046875 -0.203125 -0.046875q-0.109375 0 -0.203125 0.046875q-0.078125 0.046875 -0.15625 0.15625q-0.078125 0.109375 -0.15625 0.296875q-0.078125 0.203125 -0.171875 0.53125q-0.109375 0.34375 -0.21875 0.578125q-0.109375 0.25 -0.25 0.390625q-0.125 0.15625 -0.296875 0.21875q-0.171875 0.0625 -0.390625 0.0625zm0.734375 4.0390625l0 -2.34375l0.640625 0l0 2.34375l-0.640625 0zm-1.671875 4.6953125q-0.09375 -0.265625 -0.140625 -0.546875q-0.0625 -0.28125 -0.0625 -0.578125q0 -0.921875 0.5 -1.421875q0.515625 -0.5 1.484375 -0.5q0.46875 0 0.84375 0.140625q0.375 0.140625 0.640625 0.40625q0.28125 0.265625 0.421875 0.625q0.15625 0.359375 0.15625 0.796875q0 0.3125 -0.046875 0.578125q-0.046875 0.265625 -0.140625 0.5l-0.65625 0q0.140625 -0.25 0.203125 -0.515625q0.0625 -0.265625 0.0625 -0.546875q0 -0.265625 -0.109375 -0.5q-0.09375 -0.21875 -0.28125 -0.40625q-0.1875 -0.171875 -0.46875 -0.28125q-0.265625 -0.09375 -0.59375 -0.09375q-0.71875 0 -1.078125 0.34375q-0.34375 0.34375 -0.34375 0.96875q0 0.265625 0.0625 0.53125q0.0625 0.265625 0.1875 0.5l-0.640625 0zm1.859375 4.7734375q-0.46875 0 -0.84375 -0.140625q-0.375 -0.125 -0.65625 -0.375q-0.265625 -0.234375 -0.421875 -0.578125q-0.15625 -0.34375 -0.15625 -0.796875q0 -0.421875 0.125 -0.75q0.140625 -0.328125 0.390625 -0.5625q0.265625 -0.234375 0.640625 -0.359375q0.375 -0.125 0.859375 -0.125q0.453125 0 0.828125 0.125q0.390625 0.140625 0.65625 0.375q0.265625 0.25 0.421875 0.59375q0.15625 0.34375 0.15625 0.78125q0 0.421875 -0.140625 0.75q-0.125 0.34375 -0.375 0.578125q-0.25 0.234375 -0.625 0.359375q-0.375 0.125 -0.859375 0.125zm-0.03125 -0.703125q0.359375 0 0.625 -0.078125q0.28125 -0.078125 0.453125 -0.234375q0.1875 -0.140625 0.28125 -0.359375q0.09375 -0.203125 0.09375 -0.46875q0 -0.3125 -0.125 -0.53125q-0.125 -0.203125 -0.328125 -0.34375q-0.1875 -0.140625 -0.453125 -0.203125q-0.265625 -0.0625 -0.546875 -0.0625q-0.375 0 -0.65625 0.078125q-0.265625 0.078125 -0.453125 0.21875q-0.171875 0.15625 -0.265625 0.359375q-0.09375 0.21875 -0.09375 0.484375q0 0.296875 0.125 0.515625q0.125 0.21875 0.3125 0.359375q0.203125 0.140625 0.46875 0.203125q0.265625 0.0625 0.5625 0.0625zm1.953125 1.6796875l0 0.609375l-0.625 0.03125q0.203125 0.171875 0.328125 0.328125q0.140625 0.15625 0.21875 0.3125q0.078125 0.15625 0.109375 0.3125q0.046875 0.15625 0.046875 0.328125q0 0.609375 -0.359375 0.921875q-0.359375 0.3125 -1.078125 0.3125l-2.5625 0l0 -0.6875l2.5 0q0.46875 0 0.6875 -0.171875q0.21875 -0.171875 0.21875 -0.5q0 -0.125 -0.046875 -0.25q-0.03125 -0.125 -0.125 -0.25q-0.078125 -0.125 -0.234375 -0.28125q-0.15625 -0.140625 -0.390625 -0.328125l-2.609375 0l0 -0.6875l3.921875 0zm-3.859375 7.5546875q-0.0625 -0.21875 -0.09375 -0.46875q-0.03125 -0.25 -0.03125 -0.5q0 -0.734375 0.328125 -1.109375q0.34375 -0.359375 1.046875 -0.359375l2.046875 0l0 -1.09375l0.5625 0l0 1.09375l1.078125 0l0.171875 0.6875l-1.25 0l0 1.75l-0.5625 0l0 -1.75l-2.0 0q-0.421875 0 -0.640625 0.21875q-0.203125 0.21875 -0.203125 0.65625q0 0.1875 0.03125 0.40625q0.03125 0.234375 0.09375 0.46875l-0.578125 0zm3.859375 1.3984375l0 0.625l-0.71875 0.015625q0.421875 0.359375 0.609375 0.6875q0.1875 0.34375 0.1875 0.6875q0 0.609375 -0.40625 0.921875q-0.390625 0.3125 -1.171875 0.296875l0 -0.6875q0.515625 0 0.75 -0.15625q0.234375 -0.15625 0.234375 -0.46875q0 -0.140625 -0.046875 -0.28125q-0.046875 -0.140625 -0.15625 -0.296875q-0.109375 -0.140625 -0.28125 -0.3125q-0.15625 -0.15625 -0.40625 -0.34375l-2.515625 0l0 -0.6875l3.921875 0zm-1.921875 7.6640625q-0.46875 0 -0.84375 -0.140625q-0.375 -0.125 -0.65625 -0.375q-0.265625 -0.234375 -0.421875 -0.578125q-0.15625 -0.34375 -0.15625 -0.796875q0 -0.421875 0.125 -0.75q0.140625 -0.328125 0.390625 -0.5625q0.265625 -0.234375 0.640625 -0.359375q0.375 -0.125 0.859375 -0.125q0.453125 0 0.828125 0.125q0.390625 0.140625 0.65625 0.375q0.265625 0.25 0.421875 0.59375q0.15625 0.34375 0.15625 0.78125q0 0.421875 -0.140625 0.75q-0.125 0.34375 -0.375 0.578125q-0.25 0.234375 -0.625 0.359375q-0.375 0.125 -0.859375 0.125zm-0.03125 -0.703125q0.359375 0 0.625 -0.078125q0.28125 -0.078125 0.453125 -0.234375q0.1875 -0.140625 0.28125 -0.359375q0.09375 -0.203125 0.09375 -0.46875q0 -0.3125 -0.125 -0.53125q-0.125 -0.203125 -0.328125 -0.34375q-0.1875 -0.140625 -0.453125 -0.203125q-0.265625 -0.0625 -0.546875 -0.0625q-0.375 0 -0.65625 0.078125q-0.265625 0.078125 -0.453125 0.21875q-0.171875 0.15625 -0.265625 0.359375q-0.09375 0.21875 -0.09375 0.484375q0 0.296875 0.125 0.515625q0.125 0.21875 0.3125 0.359375q0.203125 0.140625 0.46875 0.203125q0.265625 0.0625 0.5625 0.0625zm3.0 3.0234375l0 -1.171875l0.546875 0l0 1.859375l-4.953125 0l0 1.15625l-0.5625 0l0 -3.140625l0.5625 0l0 1.296875l4.40625 0zm-3.734375 4.6015625q0 0.125 -0.0625 0.25q-0.046875 0.125 -0.140625 0.203125q-0.078125 0.09375 -0.203125 0.140625q-0.109375 0.046875 -0.25 0.046875q-0.140625 0 -0.265625 -0.046875q-0.109375 -0.046875 -0.203125 -0.140625q-0.078125 -0.078125 -0.125 -0.203125q-0.0625 -0.125 -0.0625 -0.25q0 -0.140625 0.0625 -0.265625q0.046875 -0.109375 0.125 -0.203125q0.09375 -0.078125 0.203125 -0.140625q0.125 -0.046875 0.265625 -0.046875q0.140625 0 0.25 0.046875q0.125 0.0625 0.203125 0.140625q0.09375 0.09375 0.140625 0.203125q0.0625 0.125 0.0625 0.265625zm-0.15625 5.9609375q-0.21875 0 -0.390625 -0.078125q-0.15625 -0.0625 -0.28125 -0.1875q-0.125 -0.125 -0.21875 -0.28125q-0.078125 -0.15625 -0.140625 -0.34375q-0.0625 -0.171875 -0.09375 -0.375q-0.03125 -0.1875 -0.03125 -0.375q0 -0.390625 0.046875 -0.734375q0.03125 -0.328125 0.109375 -0.640625l0.625 0q-0.09375 0.34375 -0.15625 0.671875q-0.046875 0.34375 -0.046875 0.6875q0 0.484375 0.125 0.71875q0.140625 0.234375 0.390625 0.234375q0.109375 0 0.1875 -0.046875q0.09375 -0.03125 0.15625 -0.125q0.078125 -0.09375 0.15625 -0.3125q0.09375 -0.203125 0.203125 -0.546875q0.078125 -0.265625 0.171875 -0.5q0.09375 -0.21875 0.234375 -0.390625q0.140625 -0.15625 0.3125 -0.25q0.1875 -0.09375 0.4375 -0.09375q0.171875 0 0.359375 0.078125q0.203125 0.078125 0.359375 0.25q0.171875 0.1875 0.28125 0.5q0.125 0.3125 0.125 0.78125q0 0.234375 -0.03125 0.515625q-0.03125 0.28125 -0.09375 0.578125l-0.59375 0q0.078125 -0.3125 0.109375 -0.609375q0.03125 -0.28125 0.03125 -0.484375q0 -0.265625 -0.046875 -0.4375q-0.03125 -0.171875 -0.09375 -0.28125q-0.0625 -0.109375 -0.15625 -0.15625q-0.09375 -0.046875 -0.203125 -0.046875q-0.109375 0 -0.203125 0.046875q-0.078125 0.046875 -0.15625 0.15625q-0.078125 0.109375 -0.15625 0.296875q-0.078125 0.203125 -0.171875 0.53125q-0.109375 0.34375 -0.21875 0.578125q-0.109375 0.25 -0.25 0.390625q-0.125 0.15625 -0.296875 0.21875q-0.171875 0.0625 -0.390625 0.0625zm0.921875 4.7109375q-0.46875 0 -0.84375 -0.140625q-0.375 -0.125 -0.65625 -0.375q-0.265625 -0.234375 -0.421875 -0.578125q-0.15625 -0.34375 -0.15625 -0.796875q0 -0.421875 0.125 -0.75q0.140625 -0.328125 0.390625 -0.5625q0.265625 -0.234375 0.640625 -0.359375q0.375 -0.125 0.859375 -0.125q0.453125 0 0.828125 0.125q0.390625 0.140625 0.65625 0.375q0.265625 0.25 0.421875 0.59375q0.15625 0.34375 0.15625 0.78125q0 0.421875 -0.140625 0.75q-0.125 0.34375 -0.375 0.578125q-0.25 0.234375 -0.625 0.359375q-0.375 0.125 -0.859375 0.125zm-0.03125 -0.703125q0.359375 0 0.625 -0.078125q0.28125 -0.078125 0.453125 -0.234375q0.1875 -0.140625 0.28125 -0.359375q0.09375 -0.203125 0.09375 -0.46875q0 -0.3125 -0.125 -0.53125q-0.125 -0.203125 -0.328125 -0.34375q-0.1875 -0.140625 -0.453125 -0.203125q-0.265625 -0.0625 -0.546875 -0.0625q-0.375 0 -0.65625 0.078125q-0.265625 0.078125 -0.453125 0.21875q-0.171875 0.15625 -0.265625 0.359375q-0.09375 0.21875 -0.09375 0.484375q0 0.296875 0.125 0.515625q0.125 0.21875 0.3125 0.359375q0.203125 0.140625 0.46875 0.203125q0.265625 0.0625 0.5625 0.0625zm-1.828125 4.7265625q-0.09375 -0.265625 -0.140625 -0.546875q-0.0625 -0.28125 -0.0625 -0.578125q0 -0.921875 0.5 -1.421875q0.515625 -0.5 1.484375 -0.5q0.46875 0 0.84375 0.140625q0.375 0.140625 0.640625 0.40625q0.28125 0.265625 0.421875 0.625q0.15625 0.359375 0.15625 0.796875q0 0.3125 -0.046875 0.578125q-0.046875 0.265625 -0.140625 0.5l-0.65625 0q0.140625 -0.25 0.203125 -0.515625q0.0625 -0.265625 0.0625 -0.546875q0 -0.265625 -0.109375 -0.5q-0.09375 -0.21875 -0.28125 -0.40625q-0.1875 -0.171875 -0.46875 -0.28125q-0.265625 -0.09375 -0.59375 -0.09375q-0.71875 0 -1.078125 0.34375q-0.34375 0.34375 -0.34375 0.96875q0 0.265625 0.0625 0.53125q0.0625 0.265625 0.1875 0.5l-0.640625 0zm-0.140625 4.8828125l0 -0.9375l2.109375 -1.828125l-2.109375 0l0 -0.671875l5.515625 0l0 0.671875l-3.390625 0l1.796875 1.765625l0 0.890625l-1.8125 -1.828125l-2.109375 1.9375zm2.171875 4.1796875q-0.140625 0 -0.25 0q-0.09375 0 -0.171875 -0.015625l0 -2.75q-0.609375 0 -0.9375 0.328125q-0.3125 0.34375 -0.3125 0.96875q0 0.171875 0.015625 0.34375q0.015625 0.171875 0.03125 0.328125q0.03125 0.171875 0.046875 0.3125q0.03125 0.15625 0.078125 0.28125l-0.5625 0q-0.078125 -0.28125 -0.125 -0.640625q-0.0625 -0.34375 -0.0625 -0.71875q0 -0.5 0.140625 -0.875q0.140625 -0.359375 0.390625 -0.59375q0.265625 -0.21875 0.640625 -0.34375q0.390625 -0.109375 0.859375 -0.109375q0.421875 0 0.78125 0.125q0.375 0.125 0.65625 0.34375q0.28125 0.234375 0.4375 0.5625q0.171875 0.328125 0.171875 0.75q0 0.421875 -0.140625 0.734375q-0.125 0.3125 -0.359375 0.53125q-0.234375 0.21875 -0.578125 0.328125q-0.328125 0.109375 -0.75 0.109375zm0.09375 -0.703125q0.265625 0.015625 0.484375 -0.046875q0.21875 -0.0625 0.375 -0.203125q0.15625 -0.125 0.234375 -0.328125q0.09375 -0.1875 0.09375 -0.453125q0 -0.21875 -0.09375 -0.40625q-0.078125 -0.171875 -0.234375 -0.3125q-0.15625 -0.125 -0.375 -0.21875q-0.21875 -0.078125 -0.484375 -0.09375l0 2.0625zm-2.203125 4.9453125q-0.0625 -0.21875 -0.09375 -0.46875q-0.03125 -0.25 -0.03125 -0.5q0 -0.734375 0.328125 -1.109375q0.34375 -0.359375 1.046875 -0.359375l2.046875 0l0 -1.09375l0.5625 0l0 1.09375l1.078125 0l0.171875 0.6875l-1.25 0l0 1.75l-0.5625 0l0 -1.75l-2.0 0q-0.421875 0 -0.640625 0.21875q-0.203125 0.21875 -0.203125 0.65625q0 0.1875 0.03125 0.40625q0.03125 0.234375 0.09375 0.46875l-0.578125 0z" fill-rule="nonzero"></path><path fill="#000000" fill-opacity="0.0" d="m464.51086 130.29659l0 29.16536" fill-rule="nonzero"></path><path stroke="#000000" stroke-width="1.0" stroke-linejoin="round" stroke-linecap="butt" d="m464.51086 130.29659l0 29.16536" fill-rule="nonzero"></path><path fill="#000000" fill-opacity="0.0" d="m399.37796 159.17323l130.26773 0l0 36.72441l-130.26773 0z" fill-rule="nonzero"></path><path stroke="#000000" stroke-width="1.0" stroke-linejoin="round" stroke-linecap="butt" d="m399.37796 159.17323l130.26773 0l0 36.72441l-130.26773 0z" fill-rule="nonzero"></path><path fill="#000000" d="m433.4415 175.55168l-1.140625 7.84375l-1.640625 0l-1.140625 -3.28125l-0.21875 -0.796875l-0.265625 0.84375l-1.078125 3.234375l-1.609375 0l-1.125 -7.84375l1.328125 0l0.65625 5.328125l0.140625 1.1875l0.328125 -1.046875l1.140625 -3.515625l0.984375 0l1.21875 3.46875l0.359375 1.046875l0.109375 -1.109375l0.609375 -5.359375l1.34375 0zm7.75 5.703125q0 0.40625 -0.140625 0.734375q-0.140625 0.328125 -0.390625 0.59375q-0.234375 0.25 -0.5625 0.4375q-0.3125 0.171875 -0.6875 0.296875q-0.359375 0.109375 -0.75 0.15625q-0.375 0.0625 -0.734375 0.0625q-0.796875 0 -1.46875 -0.078125q-0.671875 -0.0625 -1.3125 -0.21875l0 -1.25q0.6875 0.1875 1.359375 0.296875q0.6875 0.09375 1.359375 0.09375q0.984375 0 1.453125 -0.265625q0.46875 -0.265625 0.46875 -0.75q0 -0.21875 -0.078125 -0.375q-0.078125 -0.171875 -0.28125 -0.328125q-0.1875 -0.15625 -0.59375 -0.3125q-0.40625 -0.171875 -1.125 -0.375q-0.53125 -0.15625 -0.984375 -0.359375q-0.4375 -0.203125 -0.765625 -0.46875q-0.328125 -0.28125 -0.515625 -0.640625q-0.1875 -0.375 -0.1875 -0.875q0 -0.328125 0.140625 -0.71875q0.15625 -0.390625 0.515625 -0.71875q0.375 -0.34375 1.0 -0.5625q0.625 -0.21875 1.5625 -0.21875q0.46875 0 1.03125 0.046875q0.5625 0.046875 1.171875 0.171875l0 1.21875q-0.640625 -0.15625 -1.21875 -0.234375q-0.578125 -0.078125 -1.0 -0.078125q-0.5 0 -0.859375 0.078125q-0.34375 0.078125 -0.5625 0.21875q-0.203125 0.140625 -0.296875 0.328125q-0.09375 0.171875 -0.09375 0.390625q0 0.203125 0.078125 0.375q0.078125 0.171875 0.296875 0.34375q0.234375 0.15625 0.625 0.3125q0.40625 0.15625 1.046875 0.34375q0.6875 0.203125 1.15625 0.4375q0.484375 0.21875 0.78125 0.5q0.296875 0.265625 0.421875 0.609375q0.140625 0.34375 0.140625 0.78125zm8.0625 -1.484375l-4.671875 0l0 -1.28125l4.671875 0l0 1.28125zm9.40625 3.328125q-0.53125 0.203125 -1.09375 0.296875q-0.546875 0.109375 -1.140625 0.109375q-1.859375 0 -2.875 -1.0q-1.0 -1.015625 -1.0 -2.953125q0 -0.9375 0.28125 -1.6875q0.296875 -0.765625 0.8125 -1.296875q0.53125 -0.546875 1.25 -0.828125q0.734375 -0.296875 1.609375 -0.296875q0.609375 0 1.140625 0.09375q0.53125 0.078125 1.015625 0.265625l0 1.296875q-0.5 -0.265625 -1.03125 -0.375q-0.53125 -0.125 -1.09375 -0.125q-0.515625 0 -0.984375 0.203125q-0.46875 0.1875 -0.828125 0.5625q-0.34375 0.375 -0.546875 0.921875q-0.203125 0.53125 -0.203125 1.21875q0 1.421875 0.6875 2.125q0.703125 0.703125 1.921875 0.703125q0.5625 0 1.078125 -0.125q0.515625 -0.125 1.0 -0.375l0 1.265625zm9.53125 -3.6875q0 0.90625 -0.265625 1.671875q-0.25 0.765625 -0.734375 1.3125q-0.484375 0.53125 -1.1875 0.84375q-0.6875 0.296875 -1.5625 0.296875q-0.84375 0 -1.515625 -0.265625q-0.671875 -0.265625 -1.140625 -0.765625q-0.453125 -0.515625 -0.703125 -1.265625q-0.25 -0.75 -0.25 -1.71875q0 -0.921875 0.25 -1.671875q0.265625 -0.75 0.75 -1.296875q0.484375 -0.546875 1.171875 -0.84375q0.703125 -0.296875 1.59375 -0.296875q0.84375 0 1.5 0.265625q0.671875 0.25 1.140625 0.765625q0.46875 0.5 0.703125 1.25q0.25 0.75 0.25 1.71875zm-1.390625 0.0625q0 -0.734375 -0.15625 -1.265625q-0.15625 -0.546875 -0.453125 -0.90625q-0.296875 -0.375 -0.734375 -0.546875q-0.421875 -0.1875 -0.9375 -0.1875q-0.609375 0 -1.046875 0.234375q-0.4375 0.234375 -0.71875 0.640625q-0.265625 0.390625 -0.40625 0.921875q-0.125 0.53125 -0.125 1.109375q0 0.71875 0.15625 1.265625q0.171875 0.546875 0.46875 0.921875q0.296875 0.359375 0.71875 0.546875q0.421875 0.171875 0.953125 0.171875q0.609375 0 1.03125 -0.234375q0.4375 -0.234375 0.71875 -0.625q0.28125 -0.40625 0.40625 -0.9375q0.125 -0.53125 0.125 -1.109375zm3.359375 -3.921875l1.21875 0l0.046875 1.265625q0.34375 -0.40625 0.65625 -0.671875q0.328125 -0.28125 0.640625 -0.4375q0.3125 -0.171875 0.625 -0.234375q0.328125 -0.0625 0.671875 -0.0625q1.203125 0 1.828125 0.71875q0.625 0.703125 0.625 2.140625l0 5.125l-1.359375 0l0 -5.015625q0 -0.921875 -0.34375 -1.359375q-0.34375 -0.4375 -1.03125 -0.4375q-0.25 0 -0.484375 0.078125q-0.234375 0.0625 -0.5 0.25q-0.25 0.1875 -0.5625 0.5q-0.296875 0.3125 -0.671875 0.78125l0 5.203125l-1.359375 0l0 -7.84375zm15.765625 -1.9375q-1.078125 -0.21875 -1.84375 -0.21875q-1.84375 0 -1.84375 1.921875l0 1.375l3.4375 0l0 1.125l-3.4375 0l0 5.578125l-1.375 0l0 -5.578125l-2.53125 0l0 -1.125l2.53125 0l0 -1.296875q0 -3.140625 3.265625 -3.140625q0.8125 0 1.796875 0.1875l0 1.171875zm-8.21875 1.9375l0 0zm12.71875 1.125l-2.3125 0l0 -1.125l3.6875 0l0 6.703125l2.34375 0l0 1.140625l-6.296875 0l0 -1.140625l2.578125 0l0 -5.578125zm0.484375 -4.421875q0.21875 0 0.40625 0.09375q0.203125 0.078125 0.34375 0.234375q0.15625 0.140625 0.234375 0.328125q0.078125 0.1875 0.078125 0.421875q0 0.21875 -0.078125 0.421875q-0.078125 0.1875 -0.234375 0.34375q-0.140625 0.140625 -0.34375 0.21875q-0.1875 0.078125 -0.40625 0.078125q-0.234375 0 -0.4375 -0.078125q-0.1875 -0.078125 -0.328125 -0.21875q-0.140625 -0.15625 -0.234375 -0.34375q-0.078125 -0.203125 -0.078125 -0.421875q0 -0.234375 0.078125 -0.421875q0.09375 -0.1875 0.234375 -0.328125q0.140625 -0.15625 0.328125 -0.234375q0.203125 -0.09375 0.4375 -0.09375zm11.296875 4.40625q0.21875 0.265625 0.328125 0.640625q0.125 0.359375 0.125 0.78125q0 0.609375 -0.21875 1.109375q-0.21875 0.5 -0.625 0.859375q-0.40625 0.359375 -0.984375 0.5625q-0.5625 0.203125 -1.234375 0.203125q-0.5 0 -0.9375 -0.109375q-0.421875 -0.109375 -0.671875 -0.265625q-0.140625 0.21875 -0.25 0.421875q-0.09375 0.1875 -0.09375 0.4375q0 0.296875 0.28125 0.5q0.28125 0.1875 0.75 0.203125l2.0625 0.078125q0.59375 0.015625 1.078125 0.15625q0.5 0.125 0.859375 0.375q0.359375 0.25 0.546875 0.625q0.203125 0.359375 0.203125 0.84375q0 0.53125 -0.234375 1.0q-0.21875 0.46875 -0.6875 0.8125q-0.46875 0.359375 -1.203125 0.5625q-0.71875 0.21875 -1.71875 0.21875q-0.953125 0 -1.625 -0.15625q-0.671875 -0.140625 -1.109375 -0.421875q-0.421875 -0.265625 -0.625 -0.640625q-0.1875 -0.359375 -0.1875 -0.8125q0 -0.5625 0.265625 -1.0q0.265625 -0.4375 0.828125 -0.828125q-0.203125 -0.09375 -0.359375 -0.234375q-0.140625 -0.140625 -0.234375 -0.3125q-0.09375 -0.171875 -0.140625 -0.359375q-0.046875 -0.1875 -0.046875 -0.359375q0 -0.515625 0.234375 -0.9375q0.234375 -0.421875 0.5625 -0.796875q-0.140625 -0.171875 -0.265625 -0.34375q-0.109375 -0.171875 -0.1875 -0.375q-0.078125 -0.203125 -0.125 -0.421875q-0.046875 -0.234375 -0.046875 -0.53125q0 -0.609375 0.21875 -1.109375q0.234375 -0.515625 0.625 -0.875q0.40625 -0.359375 0.96875 -0.546875q0.578125 -0.203125 1.265625 -0.203125q0.28125 0 0.546875 0.046875q0.265625 0.03125 0.46875 0.09375l2.84375 0l0 1.109375l-1.25 0zm-4.71875 7.875q0 0.546875 0.578125 0.796875q0.578125 0.265625 1.609375 0.265625q0.640625 0 1.078125 -0.125q0.453125 -0.109375 0.71875 -0.3125q0.265625 -0.1875 0.375 -0.4375q0.125 -0.234375 0.125 -0.5q0 -0.46875 -0.390625 -0.703125q-0.390625 -0.234375 -1.1875 -0.265625l-2.046875 -0.078125q-0.265625 0.171875 -0.4375 0.34375q-0.15625 0.171875 -0.25 0.328125q-0.09375 0.171875 -0.140625 0.34375q-0.03125 0.171875 -0.03125 0.34375zm0.40625 -6.421875q0 0.375 0.125 0.6875q0.125 0.3125 0.34375 0.53125q0.234375 0.21875 0.546875 0.34375q0.3125 0.109375 0.6875 0.109375q0.40625 0 0.71875 -0.125q0.3125 -0.140625 0.53125 -0.375q0.21875 -0.234375 0.328125 -0.53125q0.109375 -0.3125 0.109375 -0.640625q0 -0.375 -0.125 -0.6875q-0.125 -0.3125 -0.359375 -0.53125q-0.21875 -0.21875 -0.53125 -0.34375q-0.296875 -0.125 -0.671875 -0.125q-0.40625 0 -0.734375 0.140625q-0.3125 0.140625 -0.53125 0.375q-0.203125 0.234375 -0.328125 0.546875q-0.109375 0.296875 -0.109375 0.625z" fill-rule="nonzero"></path></g></svg>

